<mxfile host="app.diagrams.net" agent="Mozilla/5.0 (Windows NT 10.0; Win64; x64) AppleWebKit/537.36 (KHTML, like Gecko) Chrome/129.0.0.0 Safari/537.36" version="24.7.17" pages="2">
  <diagram name="Page-1" id="DKJzPCU0Z89Mcqm6ACKN">
    <mxGraphModel dx="1313" dy="696" grid="1" gridSize="10" guides="1" tooltips="1" connect="1" arrows="1" fold="1" page="1" pageScale="1" pageWidth="827" pageHeight="1169" math="0" shadow="0">
      <root>
        <mxCell id="0" />
        <mxCell id="1" parent="0" />
        <mxCell id="_NYBwnaIKDqg1busJ0AT-14" value="" style="shape=image;verticalLabelPosition=bottom;labelBackgroundColor=default;verticalAlign=top;aspect=fixed;imageAspect=0;image=data:image/png,iVBORw0KGgoAAAANSUhEUgAAAiYAAADiCAYAAAB6KAzNAAAAAXNSR0IArs4c6QAAAARnQU1BAACxjwv8YQUAAAAJcEhZcwAADsMAAA7DAcdvqGQAAEtXSURBVHhe7d0HXFPXFwfwX8JygIJ7o3VQN6gF954VcdVWrZu6FUdt1aodf62tu27rrANHXRVH3XvjAlQUZx0sBSfKSu4/5/JQUFRAAkk4335SyM2LJHn35Z13x7kqoQPGGGOMMQOgVn4yxhhjjGU4DkwYY4wxZjA4MGGMMcaYweDAhDHGGGMGgwMTxhhjjBkMDkwYY4wxZjA4MGGMMcaYweDAhDHGGGMGgwMTxhhjjBkMDkwYY4wxZjA4MGGMMcaYweDAhDHGGGMGgwMTxhhjjBkMDkwYY4wxZjA4MGGMMcaYweDAhDHGGGMGgwMTxhhjjBkMldBRfmcmiHbv3bt3cebMGXm7ePEiIiIi8PLlS2i1WmUr42Nubo4sWbLAzs4Ojo6OqFatmrzlzp1b2YKlVGBg4Kt64uvri2fPniEyMhIajUbZwrRRncqaNausU05OTrI+Va1aFbly5VK2YIylBw5MTBDt0kOHDmH+/Pk4cOAA1Go1PvvsM/lFW7FiReTIkUN+AZuZmSnPMD4xMTEyuAoLC8P58+fh7e2Nc+fOycCkRYsWGDhwIMqVK6dszZJC9eTUqVOYN28e9u7di+jo6Ff1pHLlyrC1tZXBH52wM4P4OvXw4UNZlyhAo5958+aFq6srBgwYAAcHB2Vrxpi+cGBiQp4/f46VK1di7ty58qRDJ+fWrVujUKFCUKlUylami1qAAgICsGbNGixcuFAGJoMGDUKrVq0yzck1Oejku3btWllPHj9+LOtJ27ZtYW9vnynqSUpQnbpy5QpWr16NRYsWydY5+rxatmxp1IE9Y4aMAxMTQLuQTsZDhw5F7dq1MXjwYNSvXz9Tn2To6n/jxo2YPXs2wsPD8ddff6F69erKo5mXl5cX+vfvL1tEqJ40a9ZMtqixD4uKisL69etlnaLuUKpT1LrEGEtbHJgYudDQUPTr10+2FCxfvlz2ibPE6GRCJ+EePXrg559/lt0Tmc2jR49k4Hr06FEsW7YMdevWVR5hKUVfmdTiRJ9nnz59MG7cOFhaWiqPMsY+Fl8qGTG6+q1UqZLs9z579iwHJe/QoUMHOZjz2rVr8jOi3zOT/fv3vxpbRO+dg5KPQy2RnTp1woULF+Dj4yPH5fj7+yuPMsY+FreYGCnq8/7222+xefNm7qJIJqrqNAbnu+++w86dO+XMC1O3fft29OzZU9aXxo0bK6UsrVCdWrx4MX766Sfs3r0bFSpUUB5hjKUWByZGyNPTU55c+YswdTZt2iTHWfz777+oUqWKUmp6tm3bhl69emHr1q1wcXFRSpk+0Biv4cOHY8+ePXxMMvaRODAxMnTlO2LECPkFWL58eaWUpRS1NNHYHFMNTuJbSjgoST807mTYsGHygoG6zhhjqcOBiRGh8QGNGjXCwYMHOShJAxs2bJDdYfS55syZUyk1fjdv3oSzs7MMTjgoSV/UmkndOjT+xNraWilljKUEByZGgqa/0slmyJAh8kqYpQ1qNaHPdunSpUqJcaO8Gw0aNICbm5sMulj66969uwxKKE8MYyzleFaOkZgwYQKKFi0qp7yytDNlyhTZAkXjMUzBrFmzZAp5msrKMsbMmTNlFxpl02WMpRy3mBgBmgr8+eefy+bhggULKqUsrVD6/s6dO8t1hGidFGNF06Fr1qyJEydOoFSpUkopywi7du2SOU6oTtnY2CiljLHk4BYTIzBx4kSZxImDEv2oV68eGjZsKFOOG7PJkyfLRHIclGQ8yqhL+U0oOyxjLGW4xcTA3blzR67P8d9///GVlx7Rgm1ffPEFbty4YZRroFDa/ZIlS8p1XfLnz6+Usox05MgRfPPNNzL5Gqf9Zyz5+GgxcAsWLEDXrl05KNEzWvOkQIECRjvWhAbv0gq4HJQYDlq3ipY/4LEmjKUMt5gYsMjISBQrVkyub1KmTBml9EM0CDyxEbsuPUWsbteqzPKgatvWcLJ7IwbVPsbFXdvgfT8ybjuVObIUdkaXFvqehqzFk4D92OC5Bus27IJZ/1PYPqiwQUTINNWT1pExthMJDXal7pt169bJmVv6pgk8gY27LuFprIBQmSFP1bZo7WT3xj7U4vHFXdjmfR+RcjsVzLMUhnOrFihvOjOzP4iywm7ZskUOhmWMJRMFJsww7dy5U9SqVUu5lxKx4pH/FvFTsyLCQmUmCrZZLK7HKA8lEiOCtvcVZazKiD5bg3T30oNGhFw7Jw78VFtkVVmKBrPu6UoMgy4QFNbW1iI8PFwpMQ6nT58WZcuWVe6lj9hH/mLLT81EEQuVMCvYRixOuoKJmKDtom8ZK1Gmz1YRlD4VzKBERESIrFmziufPnysljLEP4a4cA0bjHmrUqKHcSwkz2H7qhp/XTUCLLFoEbRmGzuNP4Lny6GvmKFC/IZwKfoZmjQvo7qUHNfKVckKNWuWR28Bqn5WVlVw/59y5c0qJcUh9PUk9M9tP4fbzOkxokQXaoC0Y1nk8TrxdwWBeoD4aOhXEZ80ao0D6VDCDki1bNpkMkWbUMcaShwMTA+bt7S3HPqSahTks8leCY6FIeP/WBYM3BkKrPPSK2hJZrLMii3I33ZjrXpvyqyGhz5s+d2Py0fUk1SxgbpEflRwLIdL7N3QZvBGBb1cwWGaxRtZ0r2CGwxjrFGMZiQMTA0ZXwjTl8GOobBvh9xXfoorlLazo2x2zLkYpjyRFC01srMyEGh2reRXEaDWxiKWy6FhoEp14InH/9D54y7ORFk9unsSu7QdxOUwT97COJtwfh7Z5YZ9fKGKVsjgq5Sd5gTveO+G17QgCHr9+biKRQfDZvxWbvfbDJyhSKXztxZ1T2H82WPdaw3FZt90enzf/XvLQ502fuzFJi3qSaipbNPp9Bb6tYolbK/qi+6yLeF8Ne0X7HHfO7MWWjRvhte887r9QyhOIvH8a+7zjgmntk5s4uWs7Dl4Ow6saotvX/oe26Z7vh9Akd3Ykgnz2Y+tmL+z3CdLdyxjGWKcYy0gcmBiokJAQvHz5EiVKlFBKUksF69rj4Tm1BfI82ocfOo/GvkdvXdbG0dzDyXV/wL2KLbJk+wy/+NC3vRbBp9dhStdKyJElG2pPvqo7MTyD74aJ6OlcBCVqdMbcU9exeXh9VHSsj5atGqJy+eaY4RuBm+sHwKWsM1q0a4smThXRcvalt4OFpycxqWVFVKzjhjat6qF86boY+a8uwFAe1r0o3N06Fp3cp2DvzRAEeI1Eo9Ll0HqGN57rtgrzXo2fO1ZC4ZK10G3mckx0dUK1pq3RrLY7VjxQ/okUoKtbYzqJUB2hxGoZuWicyro2xntORYs8j7Dvh84Yve9Rgv33Nm3gNoyoXRnt5pxFeEQwjkxshdKftsb8y3G145nvBkzs6YwiJWqg89xTuL55OOpXdET9lq3QsHJ5NJ/hi4ib6zHApSycW7RD2yZOqNhyNi4lqFyau1sxtpM7puy9iZAAL4xsVBrlWs+AdxLdTfrGgQljKaSMNWEGxs/PT5QrV065l0oRq8QXjt+Ko1G63zUhYmufMsJSZSYKt/9L3IyN20S83Cy6V/hGbH+p3Bcx4vy4ysLCwkn8eOH1aMWok9+LsuYWovpvV0TcU2PFjSm1hYXKRlT5aqyYu/eWiNBEiMsLWouCZmYif/UvxIDxm8WVpxoRG7RV9C5tLsyK9BW7I+WTReT+QaKEbru8n/UW806EiJiYcHFhaQ9RNptKqPO3Fyvvxw2JjTo3QdSpMVIcj5B3de8jUCxtbSfUFuXEiKNxLzr28gThbKESloVbiunnn4rn9y6IE35Bgt52Sj19+lRkz55duWf4AgMDRf78+ZV76S1CrPrCUXwbV8FEyNY+ooylSpgVbi/+el3BxObuFcQ3rypYlDg0pJQwt2ohFiljjGOv/CaqW5iLMsOPvtpnsTemiNq6fWpT5Ssxdu5ecStCIyIuLxCtC5oJs/zVxRcDxovNV54KTWyQ2Nq7tDA3KyL6xleuqHNiQp0aYuTrSiMCl7YWdmoLUW7EUaUs/YSGhorcuXMr9xhjH8ItJgaKroQpB0KaUeeD6wxP/FTLBkGbh6DLxNOIUB56k1r9doIxtZkFzBP2vsAM+fLaQa2yQvmOozGgUXFkU2dD2S4dUSu7Fo9tm2L82DZwsFHDrEATtKmbDwi9geuPE15Lm6FC15/Qt3o+mJvboXLPBfjLozzMQrdj6YZ7uscjsHPWfNyxt8eL0wflmjYHD/vDIl8BqGMCsO2f8/JfUdnZIYdKjbyfD8IARxtkL1wZ1SsUgKV8NGWyZs0qP3vdsaGUGDZ6rfSaM54a+VxnwPOnWrAJ2owhXSbidJIVzAyFqzRAQ7dmqBqfmsfGGtnVujoTFvaqpcUsX17YqVWwKt8Rowc0QvFsamQr2wUda2WH9rEtmo4fizYONrp6WQBN2tRFPoTixvXH8vkRO2dh/h172L84HVdnDh6Gv0U+FFDHIGDbP3F/IB3RcUz7iTGWPByYGCjKTZHmGUizVcPIVbPRvlAETkzogiFbEnaZpJxa9/pUuiqUKKulmQ1yZNNFMLqy16Uq2Nhk0/0/GpHv7ei3gmOrZihhFoNrl/yB6Is4fvoBNE/v4ML58zgvbz54ULY3Jk+fgqGNC8Q9TflbKlWiyClV6L3QCr3GQi/1JNWyodrIVZjdvhAiTkxAlyFbEPzWR2mGkt0WYtffQ1Dq2hZMGtAJncdsx33ddrGxCcYX6YJjM1mNEtYjM9jkoHpEdU4p0lHZ2ICqXLSsXNG4ePw0Hmie4s6F+DpzHj4PyqL35OmYMrRx3JPSkbm5ue69JTkIhjGWhASHNzMkdBVMCdbSmpl9FyxcMRSVza9jWe+emH8lBunaNvCBP2ZWoADyqQRioqN124bh4WMB8xJNMWjYMAxLdBuKvs0+dvzN2+gzp2nDaRHkpAeDuxo3s0eXhSswtLI5ri/rjZ7zryDmzX0efRObv2uEBsNOocyQRVg392t8miaxFf0hgbCHjyHMS6DpoDfrzDAM7dssbtN0ZDitWowZBw5MDFT27Nnx7Nkz5V7asm3wK1b93gS5wnbh+y5T4ROd+MyRkedk8eIFXuqujIvQoF9VDuSwFrh/7CD837zg1D5CwNUg5U7aoc+cPntjEV9PDKrrybYBfl31O5rkCsOu77tgqk90gnj0GfZ99zm+3lgS49dNRFsHa6U8raiQI4c1xP1jOPh2pcGjgKvK7+nH2OoUYxmNAxMDVbx4cTx48ABPnjxRSlJBd7IS2qROWJYoP3A5FvUsiZjLp+GXKP5R6a7usuieG4nIyNft8NrYaHnlq+9ujud+F3HTrBLcWn+qe5kV4OKUExrf+fjhT/9E01AjvGdj7u53jZJJPT8/P5kQy1jY2dnJJF602GP609UvoU2yEcyy/EAsX9QTJWMu43TCChZ1HH9vug5N6Sqvx5i8khbBlSUquDghp8YX83/4E/6JKw1mz92t3Ek/vr6+RlWnGMtoHJgYKOqXrly58kdlIdWGh+ORLrB5ktT3vboA2vyxCmNccrxRCcxQsGRx2GhvYs/6YwjRBSTBxxdg1JT9eKQLdMJDH7ya8hsdTd1AMYhJdGGqict1oonVPRJPQKMrFCIG0bEJX4zA07CHr7eLvoTFC4+ihMdUeFSmNKG2aOXRGxUtH2LnsMZo2n8qVm7aBM/pHnAb8h/qfvVJ3PM0ur+p+7deRkSkKndJQpQIK8NygqQCdTnR682QBF7acIQ/0tWvpCsYCrT5A6vGuCBHwgqmyoqsWVSIPb0Oi88+QfSD01g8ehG8dfUi8vEjPAg4DZ9QXQWKjguEYxJXLlmPqI7Fvq5cELr9r9XVzZjoWBna2LbyQO+Klni4cxgaN+2PqSs3YZPndHi4DcF/db+Ke1I6ytA8M4wZIzk3hxmkIUOGiEmTJin3UkATKs5tWSzGd3AQWczyiXpDZ4mV+66K+MmTCcXeWCbaV+2dYLqwzvNj4kcXW6FWqYS5pY0o2foPceLQD6KihVpYl2krxv51UJzYPV941M4l1DAThZuPEYv2XBWPr+0Vi8d9Loqaq4Q6Tx3hMcdL+IbdFoeX/U+0K2UhVDS12H2G2HrpudAE7xe/fekk8mXNL6r3+FHMXDhLjOrQRHSYsE8EJVo8J1JcWdVHVMllLlTyklolrIo0Fb8eCZdr7Dy96CVm9nMRdmoItU0l8fXEDcJHF0GlVrt27cSaNWuUe8bhl19+ESNHjlTupQeNCD23RSwe30E4ZDET+eoNFbNW7hNXk65gYln7qqJ3gunCF6Y2FHnNVEKlthA5yrQTfxzdLoaW0e1fdU5Rud8GcS1gr5jvUVvk0u1Ts8LNxZhFe8TVx9fE3sXjxOdFabs8oo7HHOHlGyZuH14m/teulLDQ1VWbKu5ixtZLglalibyySvSpkkuYq2SsIlRWRUTTX4+I8AxYmKlFixZi8+bNyj3G2Ifw6sIGbNWqVXJl0vXr1ysl+vHs/l3EFiyKRAsQRwXi7AFvhNg5op6LPbI+8sNhP0s41naAbRq2s0WFXMIp76t4qMqH8jWqwyFX0guqaJ/cwMljvghRF0bVOs4opqcue1rNef/+/XK1XmOxY8cOTJs2Dfv27VNKDMyz+7gbWxBFX1WwKAT7HIH3fWtUqlcd9rp9+ezqIRx9WAx1a5VAmu1a7RPcOHkMviFqFK5aB876qjTvQV+v+fLlkzODihQpopQyxt6HAxMDRuMGqlSpgv/++y9Fg+dosF3GjDkwLA4ODrJLLLloobVWrVrJz85YZuWQR48eyQzB169fR548eZRSZghOnDiBrl27yuy8xlSnGMtIHJgYODc3N3my7N27t1LyYYcPH0b//v2Ve5nXsWPHYGtrq9z7sG+++Uae4MeMGaOUGI8ePXqgbNmyGDlypFLCDMHXX3+NqlWrYvjw4UoJY+xDODAxcHv27MG3334LHx8fvuLSo7CwMNl9c/XqVdn0bmzOnj2Ldu3a4caNGylqJWL6ExwcLIPFmzdvytlTjLHkScPRAkwfGjVqJFf7PXLkiFLC9GHp0qWydcoYgxJCV+WFCxfGtm3blBKW0RYuXIgvv/ySgxLGUohbTIzA/PnzsW7dOjkoM1H6d5YmwsPD5eq8Xl5e8gRvrP7++2/89ttvOH36NCwsLJRSlhFCQ0NRqVIl7N27FxUqVFBKGWPJwWc5I9CnTx9ERUVh7ty5SglLS4MHD8YXX3xh1EEJ6dChAwoWLIhff/1VKWEZga71aIxX9+7dOShhLBW4xcRIBAQEoGbNmjh+/DjKlCmjlLKPtXHjRowePVrOyKEMqsYuMDAQjo6O+Pfff40+0DJWnp6esuWKEqul6QrhjGUSHJgYkdmzZ2PNmjVy1g0PcPx4ISEhMrvupk2bZNBnKuJPjJQNlhePS1/379+Hk5MTB4aMfQTuyjEiAwcORO7cueUURF5G/eM8fPgQTZs2xYABA0wqKCGdO3eW+W/atm2rlxWqWdIo0G3SpAm+++47DkoY+wgcmBgRGvhKWWApgRoHJ6lHQQnNdmrZsiXGjRunlJoOmlZOs4woh0ubNm04OEkHNDW4QYMG6NixowxMGGOpx4GJkaE+a+p6eP78ubwyjolJsJoZ+yBasblhw4ZwdXWVg0RNNTcMdfXRkgY0VbV169Z4+fKl8ghLaxSUUJ3q1KkTfvzxR6WUMZZaHJgYofjghGbq1K5dG/7+/soj7H12794tm9ipFWHChAkmn7COgpOVK1cif/78cHZ2/qiVqlnStm/fjmrVqqFLly4m2frGWEYw+1lH+Z0ZETrpULOxRqNBt27dYGZmBhcXF85zkgTq+vLw8MCMGTOwZMkSmXo+s2TRpfpAgViOHDnkmi0RERFyTA3VF5Z6jx8/luOTKMfQihUr5GfLGEsbfBYzYnRy7devH06dOoWtW7eiTp06slVAq9UqW2RuNLaCThqU6Io+E19fXzk4MbOhekJX9DQlmmbqUABLyeQoqGUpQ11iy5Ytk3WKWi6pTtWrV095lDGWFni6sImgEy+dhP/44w/55UkzeCjBU86cOZUtMg9aHXjBggWydYSmbtJgRBrsyuKSf1GGWGo9orERdNXv7u4uZ3uxd7t9+7ZsHaFBxdQt9v3333NAwpiecGBiYmh3UhK2OXPmYNeuXbLZnvrA428FChRQtjQN9H5pkTRqCaATLqUCpzE31LROJ11ORvdulACMsgn/888/shUlYT2hdXcyS3fXmyjIp8UQ6fOhG6X4pzpFKzhTRteSJUsqWzLG9IEDExNGJ2kKUujLlU7c9JPGFtjY2MjEW8aapI2qLM1GopYhWueGWoU+++wzeTKhE+y0adNgbW2tbM0+hD5DqifxdYR+0smZPlfqrkjvdXeo3mbPnl3e0subdYpmM1GARvWKftaoUcMkMgMzZgw4MMlEaFdT8/2LFy/kF7AxjzGgkyWdNOnkGd8NQbNOaGostaDwInapR/WEggOakp7e9YS6TKhlgmad5cqVSylNH1RnKGCnOpXef5sx9hoHJsyk0FgSOrHxLAnj5ObmJgdxc5IyxjIvnpXDTAqd0KZMmSKv+plx2bdvHy5duiSndjPGMi8OTJhJadasmQxKaNo0Mx7UXTR8+HBMnjwZVlZWSiljLDPiwISZFJpJMmLECNlqwoxH/No+7dq1U0oYY5kVjzFhJic6OhqffPKJTDpHeUyYYXv69CkcHBywbds2XpWXMcYtJsz0WFpaYsiQIZg6dapSwgzZb7/9JrvgOChhjBFuMWEm6cmTJ7LVhKYQ29vbK6XM0ND0YApI/Pz8UKhQIaWUMZaZcYsJM0mUi6JXr14yRT8zXCNHjpStWxyUMMbicYsJM1n37t2Ti61RRljK5MkMy7Fjx9CpUydcuXKFs6oyxl7hFhNmsooUKQJXV1e5oB8zLJTyftiwYXJ8CQcljLGEODBhJo2mDs+ePRtRUVFKCTMEnp6ecmo3tZgwxlhCHJgwk0ZdOXSjEyEzDBEREfjhhx8wY8YMqNX8FcQYS4y/FZjJozT1NHWYug9YxqN9UatWLdSsWVMpYYyx1zgwYSavYcOGciXiHTt2KCUso9y/fx+zZs3CpEmTlBLGGEuMAxNm8mgsQ/zifixjURdO3759ObcMY+ydeLowyxRiYmJQqlQprF+/Hs7OzkopS09nzpyBm5sbrl69ChsbG6WUMcYS4xYTlilYWFjI6ancapIx6PqHPv///e9/HJQwxt6LAxOWaXzzzTc4cOCATLjG0tfGjRvx7Nkz9OzZUylhjLGkcVcOy1RojAOtZjtnzhylhOlbZGQkypUrh8WLF8uByIwx9j4cmLBMJSgoCOXLl0dAQADy5MmjlDJ9mjx5skw/v2XLFqWEMcbejQMTlulQl06xYsXw448/KiVMX0JCQmQgePz4cZQpU0YpZYyxd+PAhGU6/v7+qF+/vlxyP2vWrEop0weaGpw9e3ZMnz5dKWGMsffjwIRlSq1atULLli3Rr18/pYSlNT8/PzRu3FiuHsyrOzPGkotn5bBMiRKu0VW8RqNRSlhaouud4cOHY9y4cRyUsI+gRcTtEzhwPkT3GxAd4ot9W3fg5O2IuIeZSeLAhGVKderUkSdMLy8vpYSlpe3bt+PevXuyK4exlNMizHs1fulcBUVK10GvxWdwfkk3VKtQE67tXFGzYm2MOvRM2ZaZGg5MWKbEaer1h7LsjhgxAtOmTZOJ7RhLOTVyf9YZY753g71K4PGxRfB86Y5/7z3Fg5PjUC3GF/P/2IxwZWtmWjgwYZlW27ZtERoaKqeysrQzf/58uRZOixYtlBLGUkedOw9y6S4irJ37YeKgeihspYZ15bZo/qkZXt66hv9ilQ2ZSeHAhGVaZmZmchwEt5qknfDwcEyYMEG2llCrFGMfxUwNqkXmFpbyp6S2hW0OQERGIpIGnjCTw4EJy9R69Oghc2zQwnLs49FaOO3bt0eFChWUEsbSXnzQy1NKTRMHJixTy5YtG/r37895NtIABXeenp4yOGGMsdTiwIRleoMGDcL69etlllKWejSY+Pvvv0fevHmVEsYYSzkOTFimRyfSr776ihf2+wh79+7FpUuX4OHhoZQw9vFEVBSiBRAbG6OU6AgtNBoqjEaCUmZCODBhTIcGwS5YsAAREZy4KaUoSR19frRYn5WVlVLK2Md5cXUX/py0Fj6xWgTvWYBJyw7iZvBZbJ43CWv9NNDc2YE509bhdAiPgDU1nJKeMQUN2qQ1dAYPHqyUsORYuHChHFty8OBBnonDGPtoHJgwpjhx4gQ6d+6Ma9euwdzcXCll7/P06VM4ODhg27ZtqFq1qlLKGGOpx105jClq1KiBwoULY+PGjUoJ+5CJEyeiefPmHJQwxtIMt5gwlsCWLVswfvx4eHt7c7fEB9y6dQvVqlWTqwgXKlRIKWWMsY/DLSaMJdCqVSs8f/4chw4dUkrYu4wcORJDhw7loIQxlqa4xYSxNyxatAj//POPXCGXJe3o0aNyPM6VK1dkkjrGGEsrHJgw9obIyEgUL14c+/btQ/ny5ZVSFk+r1cLFxUW2lnz99ddKKWOMpQ0OTFimEBYWJvNsUM6N5Dh58qSccdK0aVOlhMXz9/fHuXPnZIuJPsfh0EBkCn54rA9jmQsHJixT+Pvvv9G7d2+MGzdOKXk/ajUJDg6WLScssQcPHsiVmXPlyqWU6AeluH/x4gWyZs2qlDDGMgMOTFimQIHJhg0b5E9mHLJkyYJHjx5xYMJYJsOzchhjjDFmMDgwYYwxxpjB4MCEMcYYYwaDAxPGGGOMGQwe/MoyBR78anx48CtLCTqV0SwuytycnFtgYCB8fX3h7OyM77//Hvb29sq/xDIaByYsU+DAxPhwYGK6YmNjkwwWknuLiIh4qyx+arm1tXWiW/bs2V/9bmlpiXv37smMxaGhoXKtp2LFiuHff/9FhQoV0K1bN3zxxRfIkSOH8kpZRuDAhGUKHJgYHw5MMh6dHiinz5tBQFK3pIKFd90oMEkYPKTFjZZGUKvfHp1Af2vPnj1YsWKFDEAaNmyIrl274vPPP4eVlZXcJioqCjt27JDbHDhwAC1atJBBSpMmTWBubi63YemHAxOWKXBgYnw4MEkZymqcMDhISaDwvhu1MiQVCHzMjf5NfWb0pdPahQsXsHLlSqxevRolSpSQgcaXX36J3LlzK1sljbJEr1u3TgYp//33Hzp16iSfW7lyZc5CnE44MGGZAgcmxseUA5Po6Ogkg4CPudFVf8Jui5TeknoulRlTi8H9+/dlIEJBBX0mXbp0ka0jZcqUUbZImYCAABnc0M3GxkYGKLQ+FK+orV8cmLBMgQMT42MIgQl9PaZkQGVybtSSQVfebwYBSd1SEmjQ55QZr+jp89y8ebMMRs6cOYP27dvLYKR27dpJdu2kBi1cSStq09/YtGmTHJtCQUrbtm3lPmJpiwMTlilwYGJ8UhqYfMyAynd1e7w5oPJjWiTib/RvUFcGSz3qtqKxINSSsWXLFhmEUDDi5uam90D25cuX8PLykkHK8ePH5d+kIKV+/fpyDSn28TgwYZkCBybGx8LCQk7jpC6KpIKGN2/pOaCSZYxLly7JYGTVqlXInz+/DEZoDAj9nhFCQkKwZs0aGaTQLB/qOqIgpVy5csoWLDU4MGGZAgcmxocCk5EjR8LOzi7JoCH+Ft+KQTMseHCi6aETfvzJnwKB+HEj5cuXV7YwDBcvXpRBk6enJwoUKPAqaMqXL5+yBUsuDkxYpsCBifHhWTmZV3x3CZ3oaWxH69at5Ym+QYMGBt9dEt/NRIEUvQfqZqJWFOryoTrNPozbKBljjGU4GmB6+PBh9O7dG4ULF8aSJUvw1VdfyYRoy5cvR+PGjY1iDAe9RnqtFJjQa6f3sGjRIjmTh97bkSNH5Htl78aBCWOMsQxDU3LHjRuHkiVLYsCAAXJqr5+fH3bv3i1bSaibzljRa6f3QAneKP196dKl0b9/f5QqVQo//vgjrl27pmzJEuLAhDHGWLqiJGbz5s1DjRo1ULduXTkriqbhUkDy3XffyRYTU1OkSBE5mJve48aNG/Hs2TPUqVNHfgbz589HeHi4siXjwIQxxpje0ewqyjfSrl07fPLJJ7JLg1pKqLtj+vTpcHJyyhSDl+k90nudMWOGfO/0GRw6dEh+JvTZ/PPPPzIBX2bGgQljjDG9oLkVJ0+elF001Aoyc+ZMuLq64s6dO3KmDa1Xk5nXoqH3Tp/B2rVrZfr7li1b4o8//pCf1cCBA3Hq1Cn5GWY2HJgwxhhLU7du3cL48ePh4OCA7t27yxMtZWU9ePAgevXqhZw5cypbsnj0mbi7u8vPyNvbGwULFpSzeT799FNMmDABt2/fVrY0fRyYMMYY+2hPnjzB4sWLUa9ePTg7O8ucIzTd98qVKxgzZgyKFy+ubMk+hD6rsWPHys+OZvcEBQXhs88+k58tzVaiz9qUcWDCmL5F3MKBpb9h1CB3dOncFT37DMMv8zbgyJWbOLZgIfY+U7ZjzMjExMTAa+kkVHf+TCYVowGtFSpUwPgJE+FcqxGeqvLhidaUx408hldfB9gVaYOFNzVK2Yc99uoLB7siaLPwJt73LBqP4uLigrlz58oFCocNG4YdO3bA3t4eHTt2lL9TxmNTw4EJY3rzBOcXfQPnss3w+6U8aDZ4MhavWokFE9xR9eVWeNQojdoeK3HhQfK/0BjLaDTm4dy5cxg6dKicafL74i3o1rkZRlazwIXzftgZXBTZc9sCQYcw5avyKPppS/z0b+B7T8DGywYVXXvAvecXqJ4/+TlWbCq6ood7T3xRPT8SPSs2AhFRyu9voPWV2rRpI2f03LhxQ7aeUBcP7QMKWM6fP28641F0b4Qxk7du3TrRoUMH5V56eC68f28gclsUFV+uvCVildLXNCL8wAjhaFNZjD0To5SxhKysrMSLFy+Ueyyj3b17V/z++++ifPnyokSJEuLHH38UAQEByqMx4sKPTsICFqLW5Ouv6nvM1dmiia1aqKyrinEnXiqlLGkaEbR8iBi7P1K5nzy0D8aNGyeKFy8u982kSZPEvXv3lEeNE7eYMKYHL46Ph/tPh6BpMg5TOxdPfFUkqWFX/2dM7ZEbT59yiwkzTLQ4Io1xoEymlSpVklfqCxYskD9/+eUXmTAsjkp3RW+h/P6aeZnu6N3CDqrn57FwwW68UMpZEp4fx/QZ/+JRChs9aB/873//k/uE8qFcv34dFStWRJMmTeQYH9qHxoYDE8bSmjYI6yb9iYsxOdDo6y9Q9J1HWXbU6+UG+4g3vom0j3Hz1B54bfkXR6+EI2EPslYTi9joaERHx0ITn9Vaq0FsLJVFI/ZVYZwXd05h/9lg3SbhuLx/K/b4hCr/3gvcPbML/2zejiMX7yPkyiXcjJQPJBCJIJ/92LrZC/t9gnT3WGZAa71QplLKWErdBOvXr0ffvn0RGBiIhQsXyrVfkp9vxApFi+TVnWi0eBwcjAil9N31Mk5kkA/2b90Mr/0+CHqz4r24g1P7zyJYV+/DL+vq5x4fhCZ+Mnx0/+Zmr/3weevJ8aIQ7HcQ2/7Ziv0X7uOF7pjzP30RYbrDJ6XHGKJD4LP3GG4mSj3yoeMrGiE+e3Es/kmRV/BX7+74wy9K96diEB2b4G9LHz4WaRVsSthG+4jGo1D6e1objPYhze7Zu3ev3LfGgAMTxtJa2E5sPvAEWrPycHHJoRQmzdxxCIa7xi/spUX40Sn4smFnTD18F+F3D+C3lqXwaauJOPSAvqU0uHdyHf5wrwLbLNnw2S8+8stcG3wa66Z0RaUcWZCt9mRc1X2jhXmvxs8dK6FwyVroNnM5Jro6oVrT1mhW2x0rgm9gRbfm6LPqCh49uo6tP9THJ44e2BH++ptQc3crxnZyx5S9NxES4IWRjUqjXOsZ8Da+iy+WTLQ6LmUmLVasGEaPHi1ngVC6+K1bt6JDhw6pXIDuBW7fDtHVbDPk/6Q4Yt5XLx/oNtfcxdaxneA+ZS9uhgTAa2QjlC7XGjN0FU8b5o3VP3dEpcIlUavbTCyf6Aqnak3RulltuMc9GXe3jkUn9ynYezMEAV4j0ah0ObSe4Y2E1TYqYB2GNG6CASvOITj8GrYMr4fSRUuharfluBqb3GNMVxh9Fdum9Uf9EsXg5Doee+Inymjed3xF4+q2aehfvwSKObliPD1JG47ji+dh5+1IaEU4Dk7rC/deA7HgTFzQkppjkRa+/PLLL+W+o31YtWpVjBo1Sg6apRW7aV8bNKVLhzGTlp5jTKIOeoiS5hAqmy/EmgilMBlibywUrgWKim6bwpQS3b91cbKoa2MmcjWZJfyVoSgx58eJyhYWwunHC+LV6JSok+L7subCovpv4orSwR97eYJwtlAJy8ItxfTzT8XzexfECb8g8fTf3sK+4khxKipuOxHlJybWdxVz7muU++fEhDo1xMjj8S9eIwKXthZ2agtRbsRRpUz/eIyJ/gUFBYnp06cLR0dHobuyFrqTl7h06ZLyaErEissTnN8YY6IRDw+NEtWyq4Q6Zx0xySeutr6rXkbp/js3oY6oMfK4eFXzApeK1nZqYVFuhDhKQ1RiL4sJzhZCZVlYtJx+Xjx9fk9cOOEngnR1OercBFGnxkjxutoGiqWt7YTaopwYIZ+sKwraJHqWLiE6rb2ne3WKx16iZ2EzYe4wQhxTjonkHmNCPBRLXbMLlVUzsSA0riTyQ8eXzsOlriK7yko0i3+S7tXcn91QWJoVFwP2JRhjksbHIu1b2se0r52cnMSMGTNEcHCw8qjhUNH/lBgl06Ipb5S8hvriIiN1UWsmWfnRwsJCXgXlzp1brnxpyumgqUlzw4YN8qe+RXr1gH3b5Xho2wUb7q9E22RdaEZi38ByaPF3Lay7rXtOdqUYz/BP9zJo72mGHv9cwRJXa8T6/gyXahMhRnvj9C+VIfNmxp7B2Co1MTn7/+B3dBQczOgqbx6a2XvAv/s23FjYHFby39P9iyvbomDva+i2cTdmtSyke74WQRuW4VS9nmiTV40Ir55w8IjEmCV9UVYZHKO9txqDei7CtVIjEOM/Ja5Qz6huPnr0SF79sbRDX/mUb4TSwx8/flzO9KCmfprlkfrVezXw/7UmKo89i7y1O8Otkg1iHvhi304faMq3xpDfp2JYvfyyif5d9VJX8dDTwQORY5ag7+uKh9WDemLRtVIYcdgHU1zCMa+ZPTz8u2PbjYVo/vrJ8OrpAI/IMVjSt6wypkuLe6sHoeeiayg14jD8p1TB0W8rofF2NxzwnYIalnIj3Uu/ian1PsXoh0NwSFdeU1ee3GOMjluvHvZou9YJ8+7uRN+8Hz6+5LPkd8RaOM27i530JN02gXOaoMTQm/hm9xXMbRj3xvR1LFKXDiVyozEolAK/Zs2aaN++vUzwZggyZWBCQQgtr03Z9SgbIa36SHPwbWxs5JegMSyt/bFot1NA9vLlS5kIiYKSatWqyeZb+lm/fn2jXtXzTekZmEQd9EC5xrNxy6oNlgdvRlcb5YH3iT6CoeUbYq7FcBy9MAku8V+aOuHLWqGo+04UHrIfATPqJD8wCV2AFkUH4XKP7bj+Z7NXJwBt4Fp0cemGtcE2qNh6AEaNHYYvHXMpX+bRODXKCXU9i2P40MbI90ZnrypbOQzt20y5p18cmOgHJeeytbWVv9M6LX369JHjED5OfGByHs6T/XHQI59u372AWY48yJUt8ffpu+pl9KlRcKrrieLDh6Lx2xUP5Vp/owtowrCgRVEMutwD26//iWavn4xRTnXhWXw4hjbO98YYBRWylWuNvg2C8V2lupjjsBihW7rj1WGpvY0ZDRzwfYhHqgKT7e4l4OZZ+VVg8v7jK07kdneUcPNE5fcGJvo/FmmtHhqTQll6yePHjw0jKy8FJpmBLkIUO3bsEJ9//rnIkyeP6Nixo5g6darQRY1Cd6AqW2VOWq1W3LlzR2zatEn88MMPolGjRiJXrlxiyJAh4urVq8pWxi09u3I0IYvE59lVAhYVxOjTyZwKHLFGfGGtEuZlhouj8U3AisjdfUURM7XI18NL3o/x+UlUebOZOcZbjKlokaiZWRMyXzS1NBNF+uwUb05AjLr9r5jYyUnksVAJlUUe4Txgrbgm/26k2O5eSFgUHyhSOGsxzXFXjv7Q96Hu4kz07t1b2NnZyWN++fLl4tmzZ8oWKZVUV07S3lUvdSdrUciiuBj4voqnCRHzm1oKsyJ9xM7ETxbuhSxE8YH736rrr0SsFu11x5h1+9WvuookzS0xva5l4q6cZB5jQrwU23oVEOoEXTnk3cdXnJfbeokC6g915ejnWKR9TPua9jnte6oDR44ckecBQ/FGDGZ6qFVg1qxZKFOmjEzxS4O44heQ+vbbb2XzZY4c7x+gaOqotaRo0aJo27Ytfv31Vzl6m5L1ZM+eXY7ybt68uVz9kiWPOk9LtG+YE+rYq/h3q1+i2QZv0yAiIhIwy43cdmpogm7h5ptzKs3NYaG73ipir6T0ToMuN0v75hi9+gwCTi+Hh4sZzs3vha+n+OoeUemOB2uI+8dw0P/NV67Fo4Cryu/MmL05g4NaTWj2DbWc0GwcmpWT3jM4VLrvYWtxH8cO+r91zGgfBeBq0Hu62FU5kMNa4P6xg3i72j5CwNUg3S9moMbwqOD7CP7QW/vIY+zdx1dKpN2xSPsy7WZa6Z9JByY08rhGjRrYtm0bVq1aJbttevTowU3DyUAj8ylIoRUvO3XqhC5dumDQoEFGOSc+3akLovPYwXDMEgvfBeOw5Pq7QhMtAnfMxPKzusDE6jM0qZsHqogT2LM/8ToYMSEhCFeXRQvXsvK+Sld/s0DEjYeSJTraWETHCN1P7euyd4jcuxyet+ibWQ07x674Y8dK9P4kGj6HT+jKLFHBxQk5Nb6Y/8Of8E+YhTLCG7Pn7lbuMFPx5gwO6sqlWTn0HUCzdJI7g0OIuJqnu+CVP1PKsoILnHJq4Dv/B/yZuOLBe/Zc7H5zWn1ClhXg4pQTGt/5+OFPfySutrMxd3eEbptyqFDKHLHnvbDp+vsjk485xt5/fL1bXFighfIx6nz8sZhwptUPP/yQRjOt9M8kAxNaO+D3339HgwYN0K9fP+zatQvVq1c3qIjQWFDFpdVBaRwOBSWVK1eW43PY+2VxHoPlU1ui4OMdGNayE6btu504uZTmAU7OG4JfAmqia13q77dFq5HfonaOB9g8fR58X30JhWP3jlOw6zgOg6rInm6YFSyJ4jZa3NyzHsdCdF+WwcexYNQU7H8kIMJD8SA+DtJdJWl0X64vIyISXYFqQ3dg2pQ9MmeDlM0e9vnMUcThU3nXtpUHele0xMOdw9C4aX9MXbkJmzynw8NtCP6r+5XchpmmfPnyYciQIfIijq6wabxdixYtUKVKFcyYMUOOR0uaBo+fPNPVNuDZ0yfy5zu9o17qKh48eleE5cOdGNa4KfpPXYlNmzwx3cMNQ/6ri68+oVEauufqzvniZQQiEj8ZrTx6o6LlQ+wc1hhN+0/Fyk2b4DndA25D/kPdrz4BzMuic88GyBl5DOM7DsCK86GI0j7D5b/n4p+AxIFKso8xHWqVh4hBTGzcAfWh40vSPSdG9xnExMQqQY4a2ayzw0wbhgD/IEQGHca2o6HIkYpjMTg4WO4rJycnue9oH9K+pDGVHh4ech8bvLgeHdNB/We6gEQ0bNhQ3L59WyllacXLy0sUKlRIjs8xJumfkp5EiVvbfhFfOOYVFipLkdehumjUqq1o+3kDUbPm52LwsgviqbJlHI24v2O0aFDYRhRrMkxMX7JYTPFoK1q4/ynOJ+r6fy6O/egibNUqoTK3FDYlW4s/ThwSP1S0EGrrMqLt2L/E7gP/iJn9XISdGkJtU0l8PXGD8HkU9+wIz3Yiu9palHEdKiYvWCimDW4iqjYeK3YHv57OGHlllehTJZcwV8lzjFBZFRFNfz0iwl9vonc8xsQw6C70xN69e4XuAkXkzJlTjtNbs2bNq30Te+uw8Jw3SjQtbC5UUAmLYp+LMQvWiCO33x5p8vSi1zvrpRR5RazqU0XkMlfJegeVlSjS9FdxhCre04vCa2Y/4WKnFlDbiEpfTxQbEj9ZXFnVR1TJRa+D6q1KWBVpKn49Ev56anDsbbG+n6M8dqAyE5a5K4vuS3aK394YY5KcY+zY3Tvi2MqfhGtRM93rsRM1B80TO69EfOD4ihX3jq0UP7kWFWZQC7uag8S8nVfkX4y9Pk80z6UWKrWFyFG+t9h4L+5VJ+dYpH1B+0QXiAhbW1u5r/bt2yfHEhkjk5qVQ1f0uoNGpuhdtGiR7EdlaY9GctOsHeqj/O6775RSw5aes3LeFo2wgHM4538Pj2OzIE/xiqjmZA+bd1XPqCD4HD+DW8+zo2hlF1Qt9mrucAJRCDx7AN4hdnCs5wL7rI/gd9gPlo614WD7/nqvueuPa5Z2UN2+hIDA58ha1BHVq9njrTlY2ie4cfIYfEPUKFy1DpyTfB36w7NyDE9ERIScXkpp6ukKvF27dnLcAo1XSbvvWy2e3DiJY74hUBeuijrOxZCSmqd9cgMnj/kiRF0YVes44+1qG41QvyM4eUuFEtVro2KewLdm5cRJ3TGW7OMrCZGBZ3HUNxql6tRA8YSvO4ljkdJaHDlyRO4Lmvrt7Ows9wVN/6bxgcbMZAKT+KCEBrnSYB4OSvSLghPqKqNBc8YQnGRsYMJSgwMTw0YDJ1evXo3ly5fj2bNnchwanRgdHByULYxEEtOFDdnVq1dl/hEaN0kTNygHTefOnWUuKlNhEmdvGlPSqlUrDkrSEY3sPnDggPy8586dq5QyxjILOhGOGDFCjj+jVhTKiUQtqTSej74TwsLClC0NnO7aXEvX50Ir+0oM0cOHD+Vn6uLiIj9jGpS7ZcsW+dnTPjCloISYxBl88uTJcoAPByXpi4KTnTt34qeffsLly5eVUsZYZkKTChwdHTFt2jTcvXsXP//8M44dO4aSJUvKFASbNm1CVFTCKSWGRRPmg0t3tNCGXsXFwEQr8WUo+szos6OumVKlSsksvbSiM33GU6dOlRMRTJXRd+VQxNioUSOcPXtWToli6Y+WQV+6dKk8cMzN42aOGBruyjE+3JVj3J4+fYqNGzfKMRB+fn5yeip1OxjSDEntg7PYutMPj2KFbC1RqbOiVIMOqF0scbba9EKn45MnT8rPjHKNVKpUSXaPUbr4zJRvy6gDE1qCmpq2aApUz549lVKW3qgKNWvWTCarGzNmjFJqWDgwMT4cmJgOyofk6ekpT7iU7ItOtjQm5ZNPPlG2yNxu3rwpx4zQ2BG6uKMA7uuvv860F9tG3e8xZ84c2bdGSdNYxqGrnyVLlsi58/QFxBhjCdFy+5Tgy9/fXw6YffDggbyopNk8NIOS1mjJbOg903unz4BakWgcCX021C0en+AuszLawISi7tmzZ8v+TE6clvEopT1F+fPmzVNKGGMsMfqupuyj9N1NqfBpRh8lwKTAhbLPUpZumbDMRNF7o/dI75Xe8+7du+VnQLMcaekU+mz4fGbEgcn27dtlBjvakcwwDBgwQI41odH5jDH2PpaWlnBzc5NdrLTiO40V/O233+Sgeso+S+MGjXwIpETvgTLp0nui90ZZyRs3bizfM40joc+APgv2mtGOMWnSpIlMlU79lMxwtGzZUg7U6tWrl1KSsV68eCG/4GjGFi3eyIsRGg/qax86dChy584tl2KnGw0ATPgz/ndDHXTNUu769etyvAWNR6FxRvHjLahV1pjQ7Jn4cTU0w4beB52vaLYSez+jDEyo4tJqiDSewcrKSinVo4hbOLBuLXadu4574dGwsM6D4o610LBhFagP7sXLr/ugsY2ybZqJQuBpL6z2XIO/t9xC3VWnMLV2XFT92KsvXLpvR9lJh7GxzyfImPHjSaPpwz/++CNOnz6tlKQf6t6jPuxTp07Jv08/r127hgoVKsDOzk7mu6GVk5lxsLCwwLhx42RwSTM8njx5Im/xvyf8Sd8D7wpakvqZVBlly+RmdMNBpyaa6UcndmpVoSnJdHKnbLM2Nmn+hZsmKNEcTfGl13zhwgU5E4kG+tasWZPrVgoYZWCybNky7Nu3T0bV+vUE5xd9i77jD8Ouw3cY1acdapTODdXDi9izcgrGTViFCxE1MeXKQYyQC0ylpWe4c9kfe8e3Q58NWTF4/yXMqBMXmGhubcXkuadRtNsodKmUMPVwLCIiNLov2HQI1t6BZkpREECLfVlbJycJc+pRv2x8AEI/qWWkQIECclAdpWemnzTXn05aPCvH+CR3Vg59hVHwklTQklTZux6jpFV0wksqaHlfQPNmGTfLpz3aNzQ2Y4XuhE+LiLq6usoghbp/KIdVRqILIrrgoRk19BppdiK9Nmo9pjrMUs4oAxMay0BZXqmZV38icGZSKzQfdx2Nlh7G6i7F32iZ0OLRwZFo6LYHrgfOYHxVfTQla3B9cl2UGxOKgQkCk3fRBq/A8LlFMWl8A2RcaAIZEFACIBptnlboxEH9tAkDERpIFh+A0E8ab5QrVy7lGYlxYGJ80nu6MLWo0RVvUkHLu8qSeoy6ld4XyCTnMQrqOVlk0mhGz9q1a2WQQgNoqZuHAoGKFSsqW6QPyqFFwQh119DYEXoNX331FfLmzatswVLLKAMTOgnR1NRatWopJWnvxfFRqNFwCu40WgDfrb1RNMnviAjs83CDV9sdmNlAH6GAFrenN4DDyEAM+GBg8hxHv68D9xfT4DunYYYGJoMGDZL9qMOGDVNKUoYCjosXLybqkqFuO2rKTRiIFC9ePNnNoxyYGB9jzGNCX6d0df+uoOV9AU3Cn7RYHgUnCYOVpAKYDz1m6lfs1HUbv24MXZRQcEDrxlDLqT4EBwfLKb0rdEFReHi47Kah26effqpswdKC0QUm8V0FoaGh+ltBURuEZW3L4ZttQNuVN7Ghs53ywNtiL8zErHt9MdyVvgBe4M6pk3hgXx+Olldw6Nh95HZpgMr54ltTIhHkcxxnbj5H9k8+Q83KBfH21watrHkKx/1CYG7/GewPdEbFtwKTaIT4HMZ1m7qo9QmVReLKXz3Rss96aL75Fxf/aIAsZmqY6270mu6eOYKzd2ORu7Qjypg/RkTx8vhEj99Xf/31l5wGRwfwh1D1o9HpCVtCqG+WptIl7JKhcSI05iC1ODAxPsYYmKQV6h6g1pvkBjLveoy8K2ihn8kpo+6tjO4u+RBaaZcGtq/QBQy0bg/lBaEgpXXr1siWLZuyVepQNyH9mxQAUVZWSrNP/3bdunW5VUtPjC4wuXLlilywjwY16s2DZXAr6Y6tkTUx2f8Qviv5gYNSGwbvtbMx7feZ2Hg5Ozr92g8P5k3EnruRyNpyMW5u7YVcd7fip+/X4kW1BigXexJ/TlmLsFrjsc5zGD6LH4rx4iKWDnDH3Ef10cOtOB7sXIL13v/h2n1bZYwJcHXbbPwxdTqWHg5Dg/l3sbNvboQfn4efZ3li44bTeFamCVpVzQfr6oMwu19urO3ZE2tytceXlXRXF//MwdzdxTDp5h4MKqS/A4rGeri7u8sA4010oqHgI2EgQk3fFHzEByLVqlWTX4hpiQMT45OZA5O0QrNB3hW0vC+gSfgYrdxOJ/ekgpaEPz/0GO3P9BgAGh9IrNAFKfQdk5pAIj7QoWBk8+bNMtChlhFat+ZjAx32YUYXmNBJr3fv3jh37pxSkvaiDw1BucazcDPrF1gdvB4dk1UPNfD/tSYqj7uAfJ//jm1r+iDvTT88yl8FFXJdwq+NB+LZpL34vQb9Y1oELWuH8t/sQMHhB3BpSi0Z3GzvXxO9bnvg+I6BkLGQ5iqmNqyK748XxJAELSZhy1rB3n0PasvAJK4/Uxs4B01KDMXNb3bjyty4rpyonX3g8H0u/H3mdzjTU6Mv4rdmo5HDcwsG6jEwoWW5KXik9TF8fHwSdclQU2jVqlUTdclQ/6y+cWBifDgwMQx0kqbgJLmBzLseo1YgClSSG8gk9RjdUjI1PCgo6FXXC2Vapem67+t6oQvf+K4hapmnbalrqGDBgsoWLD0YXWBCq1bSMs8nTpxQStJepFcP2Lddjoe2XbDh/kq0TVa3hxbB85rB3sMf3bfdwMLmr0d5RHj1hINHJMYs6YuySuOL9t5qDOq5CNdKjUCM/xREnxkH59rzUXblLazpED8VThfsTNQFOz+FJxr8Gvf61sJp3vsDk2cr26Jg72votnE3ZrUsBHMKiDYsw6l6PdEmr/4Ck1u3bskDn75ASpcunahLpmzZshnSLMyBifHhwMS0UDf8u4KW5JZR9xbVizeDlncFMgkfoyCF0hlQawrlRKE8WB07dpTdyTSYlgISmulHg2kpIKEF9FjGMLrAhK66Bw8eLK/A9SXqoAfKNZ6NW1ZtsDx4M7oma8q8FqELWqDooMvosf06/mwWH5hE49QoJ9T1LI7hQxsj3xvxgCpbOQzt2wjePzih1lRL/HDmFH6uFH9FoMXtGQ3g8H3iMSaR291Rws0TlT8QmGgD16KLSzesDbZBxdYDMGrsMHzpmEvveU8oz0z9+vVly4nexgGlEAcmxocDE/YmOl3RwOCkgpb3BTQJH6MbdXHRhRMNtKd6RrlRKBih6ccpaZFhekKBiTG5cOGCqFChgnJPPzQhi8Tn2VUCFhXE6NMxSumHaETI/KbC0qyI6LMzUikjkWK7eyFhUXyg2J+wOJEIsbq9tVBZVBU/+yb8expxa3pdYWleSgw9HKWUCfFyWy9RQG0lmi0IVUp0W96fLRpamoniA/bp/uJrUbf/FRM7OYk8Firdv59HOA9YK669/qf0ws/PT5QtW1a5ZxjWrVsnOnTooNxjxsDKykq8ePFCucdY2omOjhZhYWHyuyo09PX3KDMM+mvP15P8+fMjMDBQRs76os7TEu0b5oQ69ir+3eqHWKU8aRpdBB+p/J4UFXLksIa4fwwH/d/8l7R4FHBV/mZhoYvSNXdx80aUvJ9WLO2bY/TqMwg4vRweLmY4N78Xvp7iqzyqH7R/aB0jxhgzRDTDj6YX02w/zjtieIwuMKH56dT0RlNM9UZdEJ3HDoZjllj4LhiHJdffFZpoEbhjJpaffV9gYokKLk7IqfHF/B/+hH/CuCPCG7Pn7tb9YoVKTuVgKR5i1+otCNbGPfyagPatsjcog9214vWGkXuXw/OWRvebGnaOXfHHjpXo/Uk0fA7rb3wOoURoNLOGMcYYSymjC0wIZfj09vZW7ulHFucxWD61JQo+3oFhLTth2r7beKE8Jmke4OS8IfgloCa61rWNK9LoggDxEhERiQMZ21Ye6F3REg93DkPjpv0xdeUmbPKcDg+3Ifiv7le6LcxQqutAtC6gQuimYej88w7ceqHBs+vbsGjLFcRqn+LRowT/ZkwMYnTBSkxMrC40iqPOZo3sZlqEBfgjKDIIh7cdRXDwDkybsgdh8Rtls4d9PnMUcdBvMiDaN7zqM2OMsVSJ69ExLuPHjxffffedck+fosStbb+ILxzzCguVpcjrUF00atVWtP28gahZ83MxeNkF8VRu91Rc9Jop+rnYCTXUwqbS12LiBh/xSD4WJ/LKKtGnSi5hrtJFFLqPXWVVRDT99YgI1ygbCI14ePB/oklhS6GCSqgtLIVdpV5i6rCaur+dRRRrOkzM2XtN3Du2UvzkWlSY6f6OXc1BYt7OK3FPj70u5jXPJdQqtbDIUV703nhPPPNsJ7KrrUUZ16Fi8oKFYtrgJqJq47Fid/CrP6oXRYoUEdevX1fuGQYeY2J8eIwJY5mT0c3KIbt27YIuOMHRo0eVEn2LRljAOZzzv4fHsVmQp3hFVHOyh01K25u0T3Dj5DH4hqhRuGodOBdLYsZKxB2cPnIOgeafoEbdSrC5dQQnoj9FvYp58cGx4pGBOHvUF9Gl6qBG8ezQ3PXHNUs7qG5fQkDgc2Qt6ojq1eyhz6X1aLodLZz38OFDg1pNk2flGB+elcNY5mSUgQlN9SpWrJhcZdLBwUEpZYbgl19+kfkCFixYoJQYhoMHD6JBgwbInTu3UsIMXVhYmDzWebVexjIXowxMyNixY+Xc9FmzZiklLKNRAiVaWI/WyaHR7oaGrr4piyUzDtRiYih5cBhj6cdoAxPqMqDMfLTqLC0yxTIeZU/8888/ceDAAaWEMcYYSxmjnJVDaH0VytK3dOlSpYRlJIpvZ86cKbPyMsYYY6lltIEJoe6cX3/9VbaesIy1ZMkSOR7Azc1NKWGMsY+lRcTtEzhwPkSmRogO8cW+rTtw8nZE3MPMJBl1YEKzP+gK/ZtvvtFrJlj2fpTsbvTo0XIFT15ngjH28bQI816NXzpXQZHSddBr8RmcX9IN1SrUhGs7V9SsWBujDj1TtmWmxqgDEzJq1Cg5NXXRokVKCUtPNJi0V69ecsVnQxzwyhgzRmrk/qwzxnzvBnuVwONji+D50h3/3nuKByfHoVqML+b/sRnhytbMtBh9YEJrHtCV+pgxY3D+/HmllKWXiRMn4uXLlzIwYYyxtKTOnQe5VCpYO/fDxEH1UNhKDevKbdH8UzO8vHUN/71/ITNmpIw+MCHlypWTeTNatGjBwUk6+v3332VQSInLzMzMlFLGGEsjZmq5DJi5hWX8cmC6s5YtbHMAIjISkTz73ySZRGBC2rdvj3nz5nFwkk4oKKEZUTQ1uHDhwkopY4zpX3xWaR5ZaJpMJjAh7dq1k8FJ8+bNOZeGnsTGxmLcuHEyKKFsqhyUMMYYS0smFZgQCk5WrlyJrl27wsPDAxERPK0srVy+fBk1a9bEyZMncejQIRQqVEh5hDHGGEsbJheYkKZNm8LX11emIHd0dEzHxf5Mk0ajwZQpU1CvXj24u7vLlPMFCxZUHmWMMf0QUVGIFtRSG6OU6Ait7juJCqORoJSZELOfdZTfTQqtSEqtJ7TYX8+ePeXJ1NbWFqVKlYJabZLxWJqjwI66xrp16yanZG/duhWNGzc2qFWDGWOm6cXVXVgydRY8vQPxOPw5zHIUQNGCYTi4fBbmrz2LwLCHeG6VH8XLlENha/5OMiVGu1ZOSkRGRmL9+vWYM2cOQkNDMWDAALRq1QplypThIOUNL168wLlz5+RsG/rMXF1dMWjQIDg7O3NAwhhjTO8yRWCSkLe3N+bPny/HSDx48ABVqlRBtWrV5IKAtBggtbRkhuyltNtpNWDKQULB2pkzZ+Tt+vXrcvp1mzZt0Lt3b+TPn195BmOMMaZ/mS4wSSgsLAxnz56VJ+RLly7JgbJ0os4sS+NbWlrKpeVz5879KkCrWLEirKyslC0YY4yx9JWpAxPGGGOMGRYeYMEYY4wxg8GBCWOMMcYMBgcmjDHGGDMYHJgwxhhjzGBwYMIYY4wxg8GBCWOMMcYMBgcmjDHGGDMYHJgwxhhjzGBwYMIYY4wxg8GBCWOMMcYMBgcmjDHGGDMYHJgwxhhjzGBwYMIYY4wxg8GBCWOMMcYMBgcmjDHGGDMYHJgwxhhjzGBwYMIYY4wxg8GBCWOMMcYMBgcmjDHGGDMYHJgwxhhjzGBwYMIYY4wxg8GBCWOMMcYMBgcmjDHGGDMYHJgwxhhjzGBwYMIYY4wxg8GBCWOMMcYMBgcmjDHGGDMYHJgwxhhjzGBwYMIYY4wxg8GBCWOMMcYMBgcmjDHGGDMYHJgwxhhjzGBwYMIYY4wxg8GBCWOMMcYMBgcmjDHGGDMYHJgwxhhjzGBwYMIYY4wxg8GBCWOMMcYMBPB/aAri0Ni4howAAAAASUVORK5CYII=;" parent="1" vertex="1">
          <mxGeometry x="440" y="50" width="550" height="226" as="geometry" />
        </mxCell>
        <mxCell id="_NYBwnaIKDqg1busJ0AT-52" value="Course" style="shape=table;startSize=30;container=1;collapsible=0;childLayout=tableLayout;" parent="1" vertex="1">
          <mxGeometry x="140" y="70" width="220" height="70" as="geometry" />
        </mxCell>
        <mxCell id="_NYBwnaIKDqg1busJ0AT-53" value="" style="shape=tableRow;horizontal=0;startSize=0;swimlaneHead=0;swimlaneBody=0;strokeColor=inherit;top=0;left=0;bottom=0;right=0;collapsible=0;dropTarget=0;fillColor=none;points=[[0,0.5],[1,0.5]];portConstraint=eastwest;" parent="_NYBwnaIKDqg1busJ0AT-52" vertex="1">
          <mxGeometry y="30" width="220" height="40" as="geometry" />
        </mxCell>
        <mxCell id="_NYBwnaIKDqg1busJ0AT-54" value="&lt;u&gt;Number&lt;/u&gt;" style="shape=partialRectangle;html=1;whiteSpace=wrap;connectable=0;strokeColor=inherit;overflow=hidden;fillColor=none;top=0;left=0;bottom=0;right=0;pointerEvents=1;" parent="_NYBwnaIKDqg1busJ0AT-53" vertex="1">
          <mxGeometry width="73" height="40" as="geometry">
            <mxRectangle width="73" height="40" as="alternateBounds" />
          </mxGeometry>
        </mxCell>
        <mxCell id="_NYBwnaIKDqg1busJ0AT-55" value="Name" style="shape=partialRectangle;html=1;whiteSpace=wrap;connectable=0;strokeColor=inherit;overflow=hidden;fillColor=none;top=0;left=0;bottom=0;right=0;pointerEvents=1;" parent="_NYBwnaIKDqg1busJ0AT-53" vertex="1">
          <mxGeometry x="73" width="74" height="40" as="geometry">
            <mxRectangle width="74" height="40" as="alternateBounds" />
          </mxGeometry>
        </mxCell>
        <mxCell id="_NYBwnaIKDqg1busJ0AT-56" value="Credits" style="shape=partialRectangle;html=1;whiteSpace=wrap;connectable=0;strokeColor=inherit;overflow=hidden;fillColor=none;top=0;left=0;bottom=0;right=0;pointerEvents=1;" parent="_NYBwnaIKDqg1busJ0AT-53" vertex="1">
          <mxGeometry x="147" width="73" height="40" as="geometry">
            <mxRectangle width="73" height="40" as="alternateBounds" />
          </mxGeometry>
        </mxCell>
        <mxCell id="_NYBwnaIKDqg1busJ0AT-62" value="" style="shape=image;verticalLabelPosition=bottom;labelBackgroundColor=default;verticalAlign=top;aspect=fixed;imageAspect=0;image=data:image/png,iVBORw0KGgoAAAANSUhEUgAAA0MAAAHqCAYAAADGTJXgAAAAAXNSR0IArs4c6QAAAARnQU1BAACxjwv8YQUAAAAJcEhZcwAADsMAAA7DAcdvqGQAAO0JSURBVHhe7N0FfFTHFgbwA4FggSDF3d29uJXixYK7Qx9WoNAixd21EDS4Fi2F4triFqBIcIJLsRCZl2+4SxMIEMhusvL9328f3dlFdrN77z0zZ86JpAIJERERERGRg4ls/EpERERERORQuDJEREREFOjp06eCy6Lr16/L2bNnJU+ePDJ9+nTJmzevJE2aVObOnSv/+9//5NChQ/LgwQOpX7++7N69W0qWLClfffWVRIoUSRIkSGD8aURkCxgMERERkcPx9/eXyJEjy9KlSyVKlCjy6tUr2bZtm/Tu3VsOHz4sadKkkZw5c8rz58/F1dVV/x4/Pz+JHTu2PHr0SHx9fSVu3Lhy8OBBefHihSRJkkQmTJggjRo1kgsXLkicOHHEzc1NB1cxYsTQv5+IrA+DISIiInIIL1++FCcnJxk3bpxewUmUKJFeDWrcuLEOjhAUhRUuqwICAmTDhg2SLFky2bp1q/5zW7ZsqR9LmDCh8UwisgYMhoiIiMiuIThZsWKFTm3LmDGjXt0pUqSI8ajlnTp1SpydnWXVqlWSIkUKqVu3LleLiKwEgyEiIiKyS97e3vLnn3/qlLUnT55IkyZNjEcizubNm3Ug9Ndff0mtWrUkQ4YMxiNEFBEYDBEREZFdwZ6ee/fuyfDhw+XXX3/VK0PRo0c3Ho14+Pe8fv1a+vbtq/cYxY8fX1KnTm08SkThicEQERER2Q1Ud0NVN1SEa9iwoTFqvfDvRXB0584dqVevnjFKROGFwRARERHZPFzOjB8/XnLlyiWZMmWSVKlSGY9YP1Sy27Fjhxw5ckR++OEH7iciCkcMhoiIiMimoTACymIj3ax8+fLGqO05fvy47m+UL18+yZw5szFKRJbEYIiIiIhs1s2bN8XLy0uXza5QoYIxars8PT114Qf0NsqfP78xSkSWwmCIiIiIbBICoStXrsizZ8+kYsWKxqjtQ0CEAhBIlytUqJAxSkSWENn4lYiIiMimnDlzRvz8/OwqEIJs2bLp6nK3b9+Wf//91xglIktgMEREREQ2Z+3atXL16lUpVaqUMWJf0qRJo/dALV682BghIktgMEREREQ2BUUGUIq6TZs2xoh9KlGihCRIkEDWrVtnjBCRuTEYIiIiIpvh4+MjDx8+lG+++cYYsW9IAYwZM6bcuHHDGCEic2IwRERERDbj+fPncuzYMZ1GZjEBd2RZ24KSM29dmXbe3xgMwv+arB3YTlq3bh3k1lZ6zD8lfsZTzCV27Ni6iSwRWQaryVG4w0cOZUMvX74sly5d0r/ihtKo2Cjq6+srr1+/1s+NGjWqODs7i4uLi6RNm1bSpUunb+nTp9e/JkmSRCJHZkwfWmF9703vO997Ioooo0aN0r2E0IvHUgKuTJYKuYbLeZeHEqfJTjk+sog4G49pz1dKw5QN5XeXtJI4pilQiSyJ6s6QPweXDP5cM0C1vJYtW8ry5cuNESIyFwZDZHH4iOHC+48//pAtW7bIzp07JXr06G8vqk03XHCjrwIuwHEhDqaL86dPn+oLdtPFu+mGGcLSpUvrdAmkEmTMmJEzaEHgvb948aJ+33FDh3OUag3re4+f54sXL/jeE1G4CggIkL/++kuKFCliweONv5wdXlwKuOeTCU0OS+c5OWWVp7tUdjEeDuR3vL8UKLpOqh84LIPyRDFGLevvv/+WlClTStKkSY0RIjIHBkNkEfhYbd26VVavXq0vwpHjjYtm3DCjlzBhQuOZYWPqOm4KtJycnPTfUbNmTX2B7ogrF7hYwHu/Zs2aYO893o9y5cqZ7b2/f/++fu/xd+D9jxIliv47vvvuO4d974nIsjA5M3nyZPn555+NEQvwOyJ98xeTJSV/l5NdjkqlXMMk4cyzsqJxord7Cx571JTUPeLIAq/5UsPZT/wDj39OxmOWsnHjRsmVK5cOiIjIfBgMkVlhtcDDw0MmTpyoVxmaNm2qL4zRM8HSqwb4KJ87d05fmOPfgLSCLl26SLNmzSRWrFjGs+yX6b2fMGGCRIsWLdzfe1R3wnu/cOFCh3vvib4EJi5u3bol165dk5cvX75djcWkjmmVFpXEsHrL79EbOMYgI6BWrVrGiPn57O4qOSpskVq7jsvIQndkRuXs0uP1EDm1tbOk1RHPa9nfI6eUWfaVlE9+XXYfvSE+MdNJieaDZeqIBpIluv5jzO706dOybNkyGTx4sDFCRObAYIjMAo3hMFs3a9Ys+frrr6Vbt26690NEpU3hY713714ZP3687N69W1q1aiWdO3eW5MmTG8+wH9b43u/Zs0cHZfb+3hOFhr+/vxw5ckT27dsXbK8eeuTEixdPUqVKpauFmQIgBEkIirCqixVYpKkijTVoamv27Nn1Su9XX31l/C2OAXsecWxLnDixMWJuz2VT6yxS63gr+fvgL5IrSoDc86gjmVtfkf/9/bcMzB1FF1f4tXIa6Xgot3QYMURaFIott7ZPlt79Vohf83Xy95SK4mr8aeaEz9HJkyclb968xggRmQODIQoTnLR//fVX6d+/v9SvX19f9GLviDXBRQeCBaya4N/ZqVMnPfNq62zlvZ80aZJeLcK/8/vvv2f6HDmE69evv00hRTppsmTJ9CRFpkyZ3gY0qIaGIOhT8F03FT4x3Y4ePSq7du3S33msACMVtmjRojqgsmdoQIrAsEqVKsaImT1aLg0yN5LtWVpKuzJJRE8pvTopS8dvEP/2W+X0pNISXfzk0eWjcvZleimSPYGROvda/u6TT4rPyCYLri2X+rH1oFlh4mvp0qV6wouIzIfBEH2xCxcu6HKimMGcPXu2TseyZv/8849epcCFhbu7u2TNmtV4xPbgteC9R1qNLbz358+f1/9ee3jviT7ElKo6depUnf5WoUIFHajgV0usjOLYe+DAgbdBF47JderU0Smq2Ftij44fP673DZUsWdIYMafAoHPOd5K1w1FJVyKbJAgyb/Pq2iE58LiKLD27UGrHMwbf8XxhLUnY6oEM/WeHdEtt/kkfHEexD7dPnz7GCBGZBYIhos8ReEGrxowZoxIkSKAmTJig/Pz8jEesn7+/vwq8UNH/9qFDh+r7tgTv/ejRo232vZ8yZYr+tw8bNszm3nuiD7lx44bq3bu3+uqrr1SNGjXUtm3bIuS76e3trY9ryZIlU2XLllXr16+3u+/ZpUuX1NmzZ417ZubnpSaWiaVilZ+irr7ztr3a001liuqqKs+8ofyfb1LdCuRQtadeUP/9lH3V4b65VNSETdTqZ8aQmeHne/36deMeEZkLgyH6LDixduzYUeXPn19dvnzZGLU9V69eVUWKFFGtW7e2mYDCXt77K1euqMKFC9vUe08Uklu3bqnGjRurePHiqc6dO6sLFy4Yj0QsHx8ftXDhQn2syJgxo1qyZImeSLEHr1+/VtWqVTPumZffmaGqcLQ4qvKsW+q9ENL3qOqbO6qKVnS48nx9Wy2snVBFTVlTTfrrrvL1e6rOreymCseNrrL9sFs9N36Lubm7u6uDBw8a94jIXJgmR6EWeDEubdu21Uv1KPGJvG1bhopngSdVnb4yb948XRraWuG9b9OmjU6Ps4f3Hg1e8d6jROzcuXOt+r0nehdOm/jc9u7dWx8Te/bsaZXfSfw7UcQEe/XQS2z69Ol2UcgkMCDQhSMyZMhgjJiDnxz+OZ98PS2DuP+zUpomfDfNzV/OjSghefo/li67j8vw1Nukb6M2Mm6ntwREiSR+Ko7kaTpWFk5tLtksUE0O1QYHDBigG86SbcH3EMVQkNaK1Hacz1EoBTdUfjX19qOIw2CIQsXPz0+XScYm3rVr14qLS5DuczYMOf4o0YrXg4251rj5GAdPvPd37tyxu/ce/aDixIkjixYtsvuN32Qfrly5ogOghw8f6v16uXPnNh6xXrgIGzZsmN7LhF+xfy+iqk2aAyqFpkiRQhegiFiv5cE/J8Tzjr/ES59LciT7dDGML4UJJJRgRxVBsk43b96UU6dOBasYabrhO4hzHG4oIoRrKowhSEJgj4Iq6dOnf1tcBbd8+fKxpH44YTBEofLjjz/KsWPH9MV4jBgxjFH7gINR7dq19SwjykFbm169eulNw/b63iMYRYUtlEEnsmbr1q3TRViwEtS9e3ebW9HEhRr+/YkSJZLly5eHqpKdNcLMOpo7r1+/3hixf1iJTJ06tZQtW9YYoYiGCT2svKJ4CYqYYLI4f/78wQIa0y1u3LjG7woORYVQJTBo4IRgCsVQPD09pVChQm+bpqMoCquxWgaDIfqkw4cP6zKm6G9gud4OEevBgweSM2dOWblype7VYy0OHTokVatW1RcxuICxR3jvc+TIoaskoTQwkTVCs0tUaduwYYMUKFDAGLU9mJFu2bKlXmVAMBE7tgVqQIcD9F9CQNexY0djxH5t375dXxy3a9fOGKGIggk8HAtQNRLpmuj5ZCptj5Ucc7btwGogyuebgq3Hjx/Lt99+Kx06dJAiRYoYzyJzYDBEH4VlXJz4sTrRuHFjY9Q+IRDq16+fXgGLHt1CLcQ/g+m9x6pco0aNjFH7tGLFCp0Pj/ceOdRE1mT+/Pm6nPHmzZvtomQ1ZqNxQYUJrt9///2Ds9bW7NWrV/piFHugrK2/mjkhPfrvv//WF9s8Nkace/fuyYwZM2TatGl64rR9+/ZSvnx5neYdXpCiu2bNGt03EZOj6DeFrBbuuQ07rrfRR2GzJja52/vFOOCggv43Q4YMMUYi1siRI3Vn+oYNGxoj9gu9UbJkyWI17z2RCdKT+vbtq2fn7aV3D1JtcGGHFBykXWEG2tZgwgoXhFg9R9qcPcLrwso5giAGQhHDy8tL77FDKjdWU7du3apXaZDeHZ6BEGCPHAIgrBKieAsCM6TgjR49Wk8OUBhgZYgoJCh7nDBhQguXi/VX3kvbqAI58qg6U88F6dnwn2eeK9XAllVUifx5Vf5ilVWLgavUWQvVLkXJbZTJff36tTESMXx9fXXPkoh+719eXKsGN/9WFc2fXxWr3EINWnVWWaiFhtW890Qm+P6hL9a5c+eMEfuCcttNmzZVnTp1MkZsz65du9SoUaOMe/YDPxu0Ifj555+NEQpPuP5BLz98//v376/u3r1rPGJdjhw5oqpXr66yZMmi9u/fb4zS52IwRB+Ek0yePHmMexbi76UmlY2tkiZPqqJl7aUO+BjjBr/L7qp64qjqq4JNVf9xU9T4/s1Uwa+iqqQ15yovC7WoQQ+cLVu2GPcixs6dO1XevHmNexbyiffe//YK1TR1NJUgfxPVb+w4NahNCZXUOYmqOccrxMDJHPDeb9261bhHFHFwMVq6dGk1duxYY8Q+PXz4UDdp3b17tzFie65du6bat29v3LMP+HmguTmFP09PT1W0aFFVokQJdf78eWPUeuFYtXz5cpUkSRLVpUsX9e+//xqPUGgxTY4+6LffftOljy3J//wSWXwwodQc0FZyey0R9z+fGY+An5yaN0U2O9WXXzfPl4HdOknXgfNk87S6ojZOlYXnLZMagdeM1x6RIv6995eLCybI8hfVZOKmeTKoezfpN3OtjK/pK5vcl4uXhbJSUCEKOdFEEc3d3V1Xi0LRBHsWL148mTJlik4FstVUG6RyoxJo06ZNjRHbhj1qt27dkh9++MEYofAyceJECQyC9B7pnTt36vQ4a4cy+XXr1pXTp0/rkv/Y03TkyBHjUQoVIygiCgYzDWnSpFEnTpwwRizBVx3+OZeKlu57tf3ZBTWmRAwVv5aHuvO29be/unVgiZq+5KB6ZIyAz55uKmO0bOrHg+8sZZgJUmIwU+rv/14P8nBheu9PnjxpjFjCp957pfz+vaFOn7n2Xzd1/7tqQc14KmaZieqqhd6aiH7vieDJkyc6TfXUqVPGiAX4e6ulbQqoHHnqqKnnPrHW6n9LbRrWSfVddtFiq7K1a9dWQ4cONe7ZpgcPHqiOHTva7Mw4jv09e/a07OeOQoT3HulwSDfz8vIyRm3TihUr9BaHffv2GSP0KQyGKESPHj1SLi4u+gBhMa92qS4ZnFXWXgeUT2Dgc216RRU7Vhk18fJHTvf+19TCuslV1DTt1VYL7RsCXAjdvn3buBe+kLYSO3Zs63nv/bzUjjljVS+33CphomKq346HxgOWgRxtb29v4x5R+Fu6dKmqVKmScc8y/L0mqbKxk6rkSaMZ38MP8VXnZ1RRiSJHUZm67/3I88Jm7969KmfOnMY923Xnzh01f/58fUHo42Opd8u8Xr58qY/7VatW1fcteuyn95iC0Fy5cunPjz3YvHmzDoi2b99ujNDHME2OQvT06VNxdXW1aJfy59sWyKrrOcWtUQFxlsiSvHYjKe+8T+bNOy1+xnOCCbgtm36oKZ3Wx5Km4wdIWQv2C0SVmIiqsGR17/2TI7J28QbZe/K2+EaPKk/uPJDXxkOWgNdui9WtyH4gVdOyaar+cn7JYjmYsKYMaJtbvJa4S7As1SBeHRkpLfsdkkhxLHc8APQtuXv3rm74aMtQYQ7VT8uUKaPLH1+9ehWTvsaj1geNNffs2SOrVq1620TWksd+Cg6fDaTC7tixQ9/spZ8feh+hD1e9evV0nyL6OAZDFCJfX1+JGjWqcc8SHslGj3Xi7RpTbq8crHvMDJxyWlRCJacWzZa976auPzspsxqXlrqzXkit2Rtl2ndJLPrhdXZ21u9BRLC69z5+bRm/dbvsO3NaVrs9Ffc2bWXGJcuVssV7jx5LRBEBTRXRT6h69erGiAX4HZdFS49Jksp1pGFjNyl4f43M/u2uBBgPv/V4u/zUcrJE7jxOWqQxXzPHkKBZJF5zRO+XNAe8lgQJEsicOXPk119/1eW3161bZzwa8XABjpLZY8eOlX379ul9KdizReEPzVOxN+jPP/+U+PHjG6P2oXTp0npip0mTJnL79m1jlELCYIhChK7kz559YKrSDAK818jCzU8kcQpn8Tp4QA4cwO2YPE+cTlyuLhf3jY+MZ+K5W6XPN2Wk047k0mPtDnFvmEGcjccsBSsTEdWZ3Zre+2D9OyInlJLt60ten8Oy55CPMWh+EfneE+3du1eyZcsmiRMnNkbMz2e/hyw7l07qNComsdK5ScOSvvLHnKVyNegcQ8BtWdWljSxPPVjm9sghzuGwWFCjRg3ZuHGjcc8+DBs2TNKnT6+LLGCTOS4Kb9y4YTwavvz8/PTqw+DBg/WK0Lfffitt2rSR1KlTG8+g8ISGtj179pR58+bpjAR7VKxYMWnbtq106tTJqldII1zgm0P0HuRax4oVSz1+/NgYMSc/5TWxTOCfX15NeXcn/qs9qlumqMq18kx1Aw89O6AGFHZVsbI2VwvPvXzzHAsLDET0a8evEeHVq1f678cmbvML7Xv/Um1on1bFyT9AnfA1Hg/ks6+HyhI1uWq96ZUxYl6m9/75cwtuCCP6CA8PD9WwYUPjniU8UxtbpVDR3n63/NXdBTVVPOe8qv9x05fNV12YWU0lT99MrbwV+D31Pa76541u0T1DcObMGb2B3F6hfxt6saxZs0a1bt1aBQZFFi1WgL0o2A8UGGCq0aNH6/0bU6ZMMR6liFanTh3Vu3dv4579wjUFvtcov00h48oQhQipSlhi3bRpkzFiRv7nZfHi/eJUqp7USvHORzBaEWnilk1ebJsrHud95Pjo72Xk4ZhStFJ2ubtpuowfP/7NbeJs2X7NMqlayK8tWrSoBF6UGyPhC53GS5UqFcHvvZMUKltUXE5Mkx6j98odP3/599xK6dnVXbzSu0njkpbpho73/uuvv5aYMS24IYzoI7Ay6eLiYtyzgEcbxWOdt7jGvC0rBw+QAQMGypTTShKqU7Jo9l5BluqrY6OlZb+r4jZrgtROGn6naazI2vN+vShRouhjO0r4Y8UIK/DYIxUY/Mq5c+d0imBgcKRLjGPv5ufA70Ep9oMHD8r169dlwYIFEnihLSdOnJAnT55I586dpWTJknqGniLehg0b5OTJk9K/f39jxH7hmgIpo/gMcj9uyCIhIjL+mygY9NnYunWrLFu2zBgxD7/DP0u+r6dJBvd/ZGXThO/lavqfGyEl8vSXx/+bKbX+aCtDT4Wwd8cppbTffEGmlzf/RTl6VRQuXDhCT1qzZs2Sbdu2ydKlS40R8wj1e99lt3gOTy87hjSR5iO2yE2/KBLJT4lr3qYyesFkaZHdMsEKcptxsdKxY0djhCh84biH1NHZs2cbI+YUIN5zvpOsHY5KuhLZJEGQL+Cra4fkwOMqsvTsPEk/voAUGnxCQtq1GCl2XVnivVzqWeArePnyZSlXrpx4eXkZI44hICBABz+4OL5w4YIuJoH9PJiYSZIkiT4W49iEgAl7fb755htZuXKlpE2bVm+479q1q0yfPl33ecGfVatWLbl27Zo+j5B1QoEUBMXNmjUzRswv4M4yaV91iBxK0yHwXN5RMgfZ9ud3fLb0mHpAnoVwBR41TyuZ8H1RMffVTZUqVfTnuH79+sYImTAYog9CZSFs7PT29pbo0aMbo/YNxQtw8sNJMXny5MZo+EMuc+bMmfWvmNWJSK8fXJQTnrfFP0FGyZMtiVjqk4D3Hvs0MDMbke89OTZUYMINF7tm539FJlXIIT85jRTPPzpJqiDBkM/e7pKr7BzJMPWUzM62XRbtD1JQQd2V7ZMnytGMHaT7d+WkRsfqkiWK8ZgZHTt2TF8c4vhHb/b4AIJDHJOw3wirPxkyZNBjCIR27dqlm9ZiLxDZBvwMkyZNqn+GliuaECBXJleQXMPPi8vDONJk53EZWeS/3c4+f/aSUp3XyeOgVVP8n8iNy3fFpelvcmVuNbOfazHRg0IR5p5ktQsIhog+pHz58mrq1KnGPfs3e/ZsVbx4ceNexCpXrpyaNm2acc/+4b0vUaKEcY8oYliy8a/fmaGqcLQ4qvKsW+q9P933qOqbO6qKVnS48ny33Vc47RnCfpYmTZoY9yg0sBeoS5cuxj2yBdgzVrZsWeOehfh5qmFFYqp0HWeqAYWiq5StNqqPtgL2f6C2dsmhYmdoqVbfNv+xB9C/z9XVVe8houDCLxmZbNLEiRN16WXkQNs7zPohx3vy5MnGSMTCe498Zr73ROEHK7KoLIVyzOblJ8cWLZWjMcpJvRqJ3y/lGiWXNKpfQOTwApl3KGJKy1u+v5L9wSparly5jHtkC9auXatT5CzJ7/giWXosiVSu01AauxWU+2tmy2933yue/9bD33+UdjNeSoOJY6RmEstcmiPzImfOnLJ9+3ZjhEwYDNFHocQsNt21a9fO7ssyfv/997rMaZ48eYyRiJU9e3b53//+Jx06dLDr9x6vDXuEUP4zd+7cxihRxMGFkvn77USRAkNPyutHq6VpwpBOvU6Spfd+efXaM1g6jRYltww8+lLOjy1msbYCjx49kr///lvvh6HQQzCEC0yyHSiaYdkA1kf2eyyTc+nqSKNisSSdW0Mp6fuHzFl6VUIs+/RirwzvtVB8ag+XQd/GMwYtA68bewMpOAZD9Ek//vij3Lx5U1fHsVcoEoG+D/369TNGrANWS7ARF43h7BXe+/Pnz1vde0+OC6sjq1at0pvhHQVmy8uWLRthVTRtEfY5/vPPP3riimwHimVYtJfd822yYNV1yenWSAo4B15oJ68tjco7y7558+T0m21oQQTINY9h4n41v3TuV0sSW/iqHK/7cyslOgIGQ/RJKLONQKhXr16W2VQcwdavX69XYBBwWFuhCLz3+HehMRwuzuwNusJj5RGvMaILRRCZFChQQG+OnzZtmjFi33BxhJTcLl26GCMUGgiE0MyVrQAoqEcbPWSdt6vEvL1SBg8YIAMGTpHTKqGoU4tk9l4Uzw/C74zMm7VdolTuJK2yBCk3ZyGRIoVD92YbxGCIQgXpS+gBg6Bh0aJFxqjtW7FihbRu3Vp3XccFkDXCe79582adxmdP7z0qdiEtEe99/vz5jVGiiIcLBpTW/uWXX+Tq1avGqP3C6v+3334rZcqUMUYoNLhfyDbFiRPHcv12ArxlzcLN8iRxCnH2OqjL9ON27HliSedyVZa7b5RHxlPB78xK+e1UPKncqJokMMYsCRMfeP0UHIMhCjXspUFZRqwQoUSjrcNqBFYltmzZIgULFjRGrVPevHnt6r3HSiNmoW3hvSfHhEIKP/zwg93vl0RpaDSgHD16tDFCocX9QrYpXbp0uoWDJfhfWy4Lt/tKyT5r9Pntv9tWcW+RTh5umCMrb5rSb/3l+rad4hmjmFQsbcFGz0HgdeP1U3AMhuizIDd6586dunt3ixYt5OHDh8YjtuPx48d6RaJv3766mZ6tbNrHe49eFvbw3mN/ECrasGACWbMePXrofmujRo0yRuwLKlU2b95cpk6dqivo0efBhSVXhmxPjRo1LFAgBfzl/OLFst+plNSrleKdC+xoUqSJm2R7sU3mepw3Cin4yNHDp0RlKygFwiEWwrEMATxXgN/HYIg+W8aMGfUXChvxcuTIYVN7WbBHBf9mJycnfSJDtTxbgia4J06cEBcXF/06Vq9ebTxi/UzvfZQoUfR7nzVrVuMRIusUNWpU/bmdM2eODB482K5WiFBRqmTJknp1vHr16sYofQ6mydmmihUr6sqJZp9Q9Dsmi5YelRjl6kmNECohRMnVSN5Uz58nunp+wF25euO5xEiZVlJYfruQ3h+N1+4oTfQ/R6TAg7t910smi9q7d6/ec4OL3DFjxkiaNGmMR6wLZkCRYobeIUgzK126tPGI7cJ736pVK52mYc3vParh4b0/fPiw3bz35Fi8vb2lfPnyOmgYOnSozW9CPnfunFSoUEF+/vlnad++vTFKnwOlyFOlSiVPnjyRyJE5r2xrUD6/Vq1a0rRpU2PE/lWtWlUaNWokDRo0MEbIhN9gCpPixYvL8ePH9Sw/NsHXqVNH9u3bZzUzqAcPHpT69evrdCwEC5jJs5eLcbz3WCUyvfd169a1uve+Xr16eq9Z2rRp7eq9J8eSJEkSnR6MIjLoifXy5UvjEduDSRSU0B4yZAgDoTA4ffq0ngRkIGSbMJGIlPNXr96p7mancD4+cuSIVKlSxRihoPgtpjDDkitSSK5cuSKlSpWSZs2aSaFChWTx4sXi4+NjPCv8vH79WveuKVq0qDRs2FCKFCmi/23Dhw+3uxKoQd97pLzgvS9cuHCEv/d4z/He42dgr+89OZavvvpK7zHEvjekRu3evdt4xDagehaqgbq5ucnMmTP1sYK+HFPkbFu1atX0PlycP+0drgUQ/E2cOJGV5D6AaXJkdv7+/rJp0yaZMGGCTksrUaKE7mqOW5YsWcyeYoKPMPo9mKq2oDoSViJQFhdpLdgf5Cjw3qNUNQ564f3eY9YcF4j58uXTleIc7b0nx4F9RFghwmd8xIgRVn+Bge9n27Zt9cbpcePGSbx4lu1y7whQZRApymh5QLYJ6a8IaHHuQsVWe4UeYgje16xZwz5DH8BgiCwKGxRRNQwHG9wAufcoXJA+fXpd4hGBS2gvJjC76eXlpTf/4ubp6alLTvv5+emNgbjoRwCQIUMGndPtyI088d5jJtsUqADee8yG4X033ULbiTvoe3/p0iU5e/ZssPcet3LlykmCBOHRLYEoYmGFCNXm8P1CCe6WLVtatqv9F0BqzNixY/XECFaDcHwk8/j66691IIwVebJd8+bNk/Hjx8uePXvsctVk//79en8UtjMkS5bMGKV3MRiicIOP2vnz53VwdOHChbcX1fg1VqxYOihCeVdnZ2ddxQkzGEi7wg2NwnAh/uzZM/08UyCFynaY7cS+maAzHpjtQQUoa22kGt4+9d7HiBFDv6+oUvex9z5oEPWh957Ikfz11196tQUTA0g9QyoavksRxdfXV1f4xMo8SulilRYpMvhuk3kEBATocxWKw3CVzbbh3IjVPUwYoLl5/PjxjUdsHzI1sI97/vz5UqlSJWOUQsJgiCIcPoJ37tzRF+a44MbJHBfhGEdghBtO5LjAwEbm0Fx4ow8P9q0glYE+DO/xlClTdDW6yZMn67S2sL73RI4IF8b4LmESBqsFtWvX1hXbEiVKZDzDcrA6a7qYw9+PyYpu3brpfRFMVTU/nKuwPxZVSsn24XyHVV5kUmzdulUSJkxoPGK78DpQOW7JkiU6Y4M+jsEQ2SVclCBHFqkh9GHY71OsWDF9EuBmYKKww4QOLkCwdw9NkrGKbUrhxXcNEwzmgODLlH6MFd8UKVLovwOFS7BvDylcKFqCPkJkXmvXrtXnFvyMyT7gUhh7a7CqigkFVFtEXx5bnADE3iBMBKMPIarO0qcxGCK7hFx5bHA+evSoMULvQoUZrJ5hY3WHDh2MUSIyF6xy41iEfUW4oRR+ypQpg6Wb4oZ+NQhckKKKG9KwsEKL33/v3j29EvHuDSs+WHlCAIRf390PcPXqVR2EmYo8sAS0+aAC2YsXL3SVTLIv+K707dtXatSoIStWrLCp7w32CXfv3l23AcC/vWDBgsYj9CkMhsguoQ8INvI7ehGFj8GM8a1bt/RBk+lvRJaHCQiUmn83sEHggn4nphRhBDpYQUJghOOYaY9k0BtKfX/qe/vgwQOdKofnY7bbXKtSjg493WrWrKlX4ch+YBICe2xwWYxzI/bSzpo1S++PtXZY0cJ+Rfz70T+JewQ/D4MhslssovBhSPPAxupjx45xAzCRHcMKBjrOY4IIF0zWVvHOFmXOnFm/l2i6SvYDK0JozYFiKFGiRJFJkybJ0KFDdZDRqVMnPQFhbVAlbtCgQbqyrru7O9PivhDXzclu5c+fX3dcpuCw1wCpcdjXwECIyL4h/Q4X7iiCUrp0ad1bhb4cgkscQxEQkf1YtGiRvuG7gmwSrM6iCAmqRWI1F6tD2IeDlhIRDf0E0esM1VyrVq2qm9wjKGIg9OW4MhQGeOuQhvVuygNuqI6GdAfcUOkH6Q6m6lzJkyd/L+UBN87YmReLKLwPn0VcECF15scffzRGicje4XyFvS4os4uqc7aQ+mONDh8+LK1bt9YXn2QfEPAgqEAhEjTSDQmu6aZPny4zZsyQPHny6H22qNIWnuloCMJRHAGVX1ECHMEa0uJwfUlhw2DoM5kaWaKCDzbEPnnyJMR87qRJk+rZBXxIMcOAi1DkgyMv/MaNG8ECJ1O/l9SpU7+tOoSynej/Ql8OG5extM3Vof8gDQAleH///XduqCZyQEil6devn06VxYwyfR6kXqNKoIeHhzFCtgzl0VFI6Ndff9UB0afgGm7p0qWyYMECfS5FBorpui1v3rxmPa8+f/5cp+2Zrjfv378v3377rQ7EihYtyr2+ZsRgKBQuXryoP/j4QGKJtESJEm8//FgqN8cHEhv3sH/D9KHHBTxOVPjgN23aVBInTmw8k0KLRRSCQxDfpEkT/Tnj54nIcaFkcMuWLfUqUeXKlY1RCg3MxqNyX8+ePY0RslUINpBahkIYX/LzxO9H5TZcs+HaDQVLEBy9OzmOW5w4cYzfFRwuwZG6+u4EOa47kdmCPc+WCrboPwyGPgBvCyLy8ePHy/79+/VFJGYN0CciPC6s//33X/0lw+wdcli/++476dq1q+TOndt4BoUGiyi8gSV+9B7BxU/58uWNUSJyVFg5x3kF5aHRpJpCB6lRvXr10heoZLswAY2qgNieMHfuXLNMaiON7fTp02+zfYLe8PeZtkogW8hUORIVJuPGjRtihhHO2dw+ET4YDL0DH9DFixfLhAkT9MoCAhAEQhGZsoalUex7mTp1ql6JQh35KlWqcIk0FHCSxxI4Nj46KhyEMfuLGStUxiEignPnzkmlSpX0HpiffvqJ55RPwOVSokSJdL+od/s6kW1BqijSHZExYekJbnxuUHgD15e4YdsEgiJso8DfzcyViMdgKAikDyF1wNXVVW8ux8yPNS1JYhYBPWHQFAxFGJDjin1G9GEsoiAyatQovcKIlU6UCyUiMkE/FUyWIOsBpYQxa00hQzoTymmjES4DR9uFCe+ff/5ZF05AcEvE5MNA2BDXp08fHfwgHxizBZgts7bcTMwkNGrUSI4ePaoLLCD1C6tFmPmnkOE9cuQCCkiFGTt2rC6jzUCIiN6FFQ5MlGCVyM3NTWdEUMgwsYbUawZCtgsBEDJ+UJqagRCZOHwwhGog2Idj2qyGYgXWfqDD0iqCtz179ugZDgRGXl5exqMUFH62KHqBvFxH8/jxY91sESuIqVKlMkaJiIJDNsSmTZv0hBs2aqPoDL0P1wgfKr1M1g+V42rVqiWzZ8/mz5GCcehgCDXlkR4wZMgQnX6WJEkS4xHbkCVLFh0Q1ahRQ0qWLKln9ii4GDFiSIYMGfSmRkeC7FfsA0DRD2ySJiL6GOxbQNNJVDFFhS1cOFJwp06d0itDZHtQ+Q3XSl26dNF99oiCcthgCH1W6tevLytXrtQVRWwVUvl69OihA7qyZcvqgzUFh8IBaJTnSLAahIo2o0ePNkaIiD4O5xOk1WLvLPYQOdok0qeY0uTItmArQbNmzfTPjiXRKSQOGQz99ttv0rx5c72pHClm9gBfdJQBr1ChApuMvgPBkCO9Jzhho1IOGsNFjx7dGCUiCp0ffvhBF+rBBBv2E9GbSrPIvsiePbsxQrZiwIABuvgFJgm534tC4nDBEGa62rRpo1eG0MHXntSrV09mzJihU6NQjpvecKRgCKkA+Bxgdhdl2ImIvgQaUaLwCjInkEHh6C5cuCApU6aUmDFjGiNkC/AZXrhwoaxevZolrOmDHKq0tr+/vw6AEAzhZq9QEQ/BkIeHhzHi2FDf/6uvvtKbgu39YNiqVSvdwwDNVYmIwur48eO6rx2K9nz//ffGqOPBSjuCQgaGtuPvv//Wn130EmJ6I32MQ60MoZGqi4uL3lhuz7B/aN++fbo6EImeyXOEIgqoLLh3715dbp2IyBzy5MmjjyuTJ0/WjVkdtTUhK8nZlhs3brytHMdAiD7FYYKhy5cvy/Dhw2XWrFl2nzMaK1Ys/Trbt28v//77rzHq2Ow9VQ6l4VElZ9myZTrgJyIyl7Rp0+oJNlRgbdGihd4/42hYPMF2mCrHde7cWapXr26MEn2Yw6TJ9e7dW/+KTaGWEnBnmbSvOkQOpekgS5d2lMwfbOTtIyfHN5TuDzvLxsGlxFKJWzgI1K5dWxdXcHRTpkzRJ7OZM2caI/YDPZS+/vprfZHiyGksRGRZuMhEFVak4qIdhSNNvKROnVoHg+nTpzdGyJyePHmiJ61NN1RDRXl3NMV//fq1DsBR7RC9sHBLkCCBpEuXLtgtRYoUerIb+2aRETJv3jwWTKBQcZhgCD15sImuQIECxoi5BciVyRUk1/Dz4vIwjjTZeVxGFnE2HgvqlZzzaCc12i6SJw3WyJU51cRS9b4WLFgga9as0TdHd+DAAR0o2OPqEPaIXblyRW8Q5YGfiCwJgRCyDk6cOCEbN250iC7+aGCN4gm4YMcFOYUNLjuRzfDHH3/Ili1b9KojJvUQaAYNbtAsHEENGs3jhhLZCIxwu3fvXrDgCTfslY4XL57+GWHis1y5cqyoSqHiEMHQ2bNndVfta9euWe5i0f+sDC9eQNzzTZAmhzvLnJyrxNO9sgSdN/O/vUem9u0mg5bclGgx74t/9dUWDYYePnwoadKk0SUlHb0Cjr0WUVi/fr0O8o4dOybx48c3RomILAeXDb/88otu0ooLWntfLUFzc/SnOXjwoDFCnwtBNPYx44bPDAKaihUr6msztDhB0/uwXp+9fPlSr1ieOXNG73NDNgj6ZeHvcHNz0ytHRCFxiCkO9BVCF35Lzpr7HV8kS48lkcp1Gkpjt4Jyf81s+e1ugPHoG083jZNxnnlk4Nat0jtPFGPUcnBxXLBgQX3gcXT2WEQBG0RRDASFExgIEVF4wbl04MCBOkAoUaKE3Te1RjNz7hf6MlhVGzNmjA6YR44cKZkyZZINGzbo89ecOXN02mXSpEnNcn0WI0YMadq0qf57sNqENLu2bdvqCXH8/FAuHhXmiN7lEMEQlvMt21PIR/Z7LJNz6epIo2KxJJ1bQynp+4fMWXpV/I1ngGuDheJ5wF06FU0Qbm889pLg9ZN9FVHALBsO7CiagJkvIqLw1q5dO5k2bZpUrlzZrifdWDzh8yEN7n//+59Od0PmAkqSI0Dp3r27blxryclpk7hx4+qKcigo5eXlpbdJYIUI50ysIOE8SgQOEQw9ffpUfyks5vk2WbDquuR0ayQFnAPf1OS1pVF5Z9k3b56cDvJdixwzloR3spqrqysryhnsKRgaPHiwTvczFQYhIooIyLrAvlTMyGOfqj1iWe3QQ8EDlGDHBHTs2LH1qhrSKZGlEpFwLYRADEEafh0/frwULlyYk8WkOUQwhCokUaJYLi3t0UYPWeftKjFvr5TBAwbIgIFT5LRKKOrUIpm995XxrIiBTYeOWAY1JAiG7CGdY8eOHXqmC011uZmXiCIaZtp37twp/fv31xVb7WkrMjbtI72awdCnYeUHfanOnz+vg6Bhw4ZJ8uTJjUetA64FUWUX/1bst61QoYL07dtXB3HkuBziSgqzE8+ePTPumVmAt6xZuFmeJE4hzl4HddUy3I49TyzpXK7KcveN8sh4akTAqhBeP4nkzp1b5w6jao2tQgWdJk2a6JKh2HBKRGQNsmbNqi8wsYcR/V38/YMmiduuq1ev6lUF7sv8MBQuwM+8bt26MnToUFm1apXVn5+Qpod2FFgZQsGFvHnzyl9//WU8So7GIYIhbM5D2UVL8L+2XBZu95WSfdboEpH/3baKe4t08nDDHFl5M3ghhfCEPFm8frL9IgqYoUTPqMaNG+vqOERE1gSrALt379bHWGyMt4fZdqbIfRwmmrFn7Pbt2/rnjlUXW4LrI7SlGDRokFSrVk02b95sPEKOxCGCoSpVqsi6deuMe+bkL+cXL5b9TqWkXq0U77yZ0aRIEzfJ9mKbzPU4H6yQQnjBzByqtuBARW/Y8r4h5DijNDj2CxERWSPsz8UFJVJ4v/32W11NzJaxktyHoe8SJuYwybhs2TKbXT3DKhFWtdauXav3vqECMTkWh+gzhNkpLNn+888/5m0Q53dYfs73tUzL4C7/rGwqCd8NLf3PyYgSeaT/4y6y+/hIeduDNeC2TP0mnQxOtdyifYZQZ79Tp07cIBjElClT9Mnt119/NUZsA8qBVq1aVf+K3lFERBEFm+HRv87JyckYeR8uLTB5g7RkW85OQGoysgpixYpljFgf7As+fvy4JEyY0BixvAcPHug+QahYO2HCBLvZv4rJUkygT5w4UerVq2eMkr1ziGAI8KHGDEarVq2MEfPAAcgc1doSJ06s6++b0w8//KD3C6E5XkTA33vlypVwKaEZWnfv3tV5wVgOtxVoToeVTZQFDUsghM/CqFGj2JGbiMIEx3Rsknd2Ns3whQyXF3helixZjBHbU65cOZk6dapVv4YiRYrIn3/+KTly5DBGLAsp22iUimpso0ePtqpzvDlgwhSFFVAOvHjx4sYo2TOHCYaw7ImL80OHDukKa+aCpdWjR48a975cnTp1dKMwc7l//74+MG7fvl2yZctmjIYvHCDd3d2tasYIs5T9+vXTQYGtQMduzLA2atTIGPkyLVu21AUkbPnChMIPUmBwrMSsOFFQCIKwV+RTwZCtw+VR2rRpdVaJNb9WnOuXLl0absHQ5MmTdVoc9ofZa0VT7CNCiXBMeHMC0f45TDCEl4m9M+iWjQ+4vcMme6QEjhs3zhgJfzhIoqmZtR0s8VmwpZkszMKZ4z1EEIRJAQZD9DH4zqKR5s8//6xXE3EMwcq6vc3+0pdzlGAIsPf2Y+mA1iA8gyFkeyBLAZUDM2fObIzaJ0x2Yz/U8OHDjRGyV/YZ0ocAJ3LsE8EmdMyO27ONGzfq8t7caB8yW7uos9eZN7I+2GeIIiPYSIz9aejSjr4xSBXy9PQ0nkXkOKw9EApPmEhs166dTsG390AIsAI2Z84cs2T/kHVzqKusVKlSycCBA/W+IezDsEcPHz6U9u3b66ac1rzhk4isx507d3TZ9gYNGuiVc+w/QN8YNNNEo+JatWrpPQI9e/Y0yx5Je+JzcrzULt9Pdtlu+zKiUEHK2IULF6RHjx7GiAUE3JFlbQtKzrx1Zdr5kOvw+nhtlJFtqknJAvmlSPlG0m/FWXlhPGZOKLyFFfKxY8caI2SvHG7KGYECPuA4udtbx2EUByhTpoxOkStbtqwxSkQUMqTEYfYT6TUo4oLVn3dT4tCxHZ3a0UMElbUQJGG/gINkWH/Uq3Me0rbuT7L29E15yreD7NyaNWt0HyFz7rt+V8C15TJz6U15dGe9TJlzSN6dtg64uVRalq4lY44nkDKNGknFZOdlWuNK0mnNPbFER0ekyv3+++92O4FObzhcMISUI5zIXVxcdEWx58+fG4/Ytlu3bknp0qWlRo0aMmzYMGOUiD7I56SMr11e+jnolD5y/pESh31ku3bt0kVFsEfoQxAszZs3Tx8/kUNfvnx5u085/iD/27JnUispXrydbHkWS7ibihwBgqGaNWsa9yzBX84vWSwHE9aUAW1zi9cSd/nzmfGQ5iN7R/eTNS6dZOX2eTKwW3cZOG+9jPrmiayYuUbuWiAaQll4pATu3LnTGCF75JCbETCrsWjRIkmRIoVuCvf06VPjEdt07do1ncLSpEkT3UWZG52JPuHVOfFoW1d+WntabjrYlD5S4po3b65XgEwpcZ9TcdKUOvfdd99JyZIlpVevXo6XOvd0k4wb5yl5Bm6Vrb3zSBRjmMheXbx4Ua8Mo4y3xfgdl0VLj0mSynWkYWM3KXh/jcz+7e5/Kz6vj8r6zTclf8vvpTjmbfxei58klVZr78vjDa0liYWuaBEAshGrfXPIYAiwKXL27NmSN29eyZMnj74gsDVIU1mwYIFugPe///1P+vTpYzxCRCHzl9t7Jkmr4sWl3ZZnEsuB5g2CpsSh0iRWdb60ShxS53DMQeoc0nMRTDlU6pxrA1noeUDcOxWVBA57FiVHgrYkqMZryYI+Pvs9ZNm5dFKnUTGJlc5NGpb0lT/mLJWrpq1Dz8/JuRuukjbGAfmxYiaJFyO6xIifQb7pvU6uK8v9uzDZjIIyZL8c+jCOL/WkSZN0QzUUVcDt8ePHxqPWDatBKBWO6njIZ+3cubPxCBF92FPZNG6ceOYZKFu39pY8DjKlj5Q4lMNFmktoUuJCy5Q6t2TJEp2e6zCpc5FjSiy2XyIHggyauHHjGvcs4blsW7BKrud0k0YFnAO/Y8mldqPy4rxvnsw77aefEfDkkTz1fSxr+/aXM4UHytp9e2Vl3/xydWoTcRt6+L39ReaC123rGUT0cZzTClSpUiXdcRiNtTBrunz5ct1bwBqh6ANmd5Hrj1kazFbky5fPeJSIPs5VGiz0lAPunaSoA0zpB02Jw8rxtm3bLNKEGV3ajxw5ovcsInXuxx9/1H1oiMg+oIBAtGjRjHsW8GijeKzzFteYt2Xl4AEyYMBAmXJaSUJ1ShbN3iv/lbvyFZdqY2XJoAZSstDXUqPHfJnRMomcXLBA9lto+ydeNxq2k/1iMGSIEyeOXiFavHixLqOYKVMmmThxotXMBnh7ewceHAZI6tSpZdWqVTqtD/n+lqzqQmR/IktMB5jSR0rclClT9OROwoQJw5QSF1pIncMKNSaWcLxC1TlMLLHqHJHtQ9Epy01wBIj3moWy+UliSeHsJQcPHNC9Eg8cey6J07nI1eXusvFR4NE7XkKJ7xxZUmfLJv+ta2MSO71E8r4htyw0h43XbY6VdLJeDIbegVnNv/76SxdY2L9/v6RNm1a6d++uNw+GN1xEYLYVM7u4sEBuPlJc0qdPrws/9O/fX27evGk8m4jov5S41atX6+PF6NGjw/VEjtYF8+fP16lzQ4cOlQoVKjhu1TkiO4FJlRs3bhj3zMz/mixfuF18S/aRNVu2yJYgt63uLSTdww0yZ+VNCYiVV/JljiSXT52S/0q2vJbLXjdEJU4uySzUH/f69ev69ZP9YjD0AaiYgg3Bx44d06svX3/9tS6viJnPDRs2WGyG5MGDB/rvbdmypaRMmVLq1KkjWbJkkUuXLsn06dP1f6PwA1aG8NycOXPq5+zYsYMzsEQODJMlLVq00CtAvXv3tlhKXGiZUueqV6/O1DkiG4cqkphoOXPmjDFiPv7nF8vi/U5Sql4tSfHOVWm0Ik3ELdsL2TbXQ85HyioNW5aW16t+lq7zT8vjAB+5vnWo9JrtJVkaNJKiZs7iwwo7MoZwwzUhr7HsF4OhT0iVKpWMHDlSp30sXbpUkiVLJuPGjdO159HgFBcds2bN0hceXl5e+ssTGsg/PX/+vC5+gC8aVp8KFSqkV6IWLlyoq9xt375dLl++rP+O+PHjG7/zjezZs+vfd+XKFf3vQFNEjCE1hhv9iBxH0JS4r776Sq/C1K9f3ypK7IeUOrdixQpeVBDZiPv378uIESMkd+7cEiNGDH3NYl5+cmzRUjkao5zUq5H4/YvSKLmkUf0CIocXyLxD/pK+3RxZ0CWp/NkutySMHlvSVJoo978ZLx4/FRFz72jCsRXXWFu3bpU5c+aIq6urFC5cWE9WYzsF3gsUs+LxzPZFCvwh8qf4BTDDiRSUEydO6FUbBC244YSfPHlyHSxh0x1WlXBB4Ovrq28ogIClZsziItBKly6dviEIQjCEFShnZ2fjbwk9/Bjx70GAhFUjXAx16tRJXyBFFFTrw8HEkqU4KfSwqoheCfiVRAJuT5Vv0g2WVMuvyJxq0Y1R24JUXnzPUe0IAREmRKzZnj179L8Xpb3x7+Vn0TbhHIVz4Jecq8j8cJ7HZK05z/fHjx/XxZqQboueYiilj0yZP/74Q+8FNCdU8X348KFxL3ReP7gsZ70eSdSkmSRL8tg6iMK1Rpo0ad48wUxQpApbFTw9PeXRo0f6V6yOmX7FDd8FTPTg+IsbVuTxK7J72PfRNjAYMjOs+GCmAEERgh9UYMGvOGmYbgiW0PAVQZIlYB8RVqtmzpwpGTNm1BcfaBoW3sUWGAxZFwZDwdlyMITJFKSdYcYSe4KsZSUoNHBMmDZtmgwePFi3M+jbt6/enE22g8GQdTFXMITv5tq1a3XLEUzyduzYUdq0afN2vwyOOzh/IChCMSdzwTGsX79+xr0vlyBBArPvo0YghNc6cOBAY+R9QYOkoIESgyTbwWDIjiEIQ18RXHj8888/+qDWtm1bHYyFBwZD1oXBkO1Dyf8ZM2bIL7/8Is2aNdNFVFAJ0xZhwqhXr156vyNSj7H3kRcItoHBkHUJazCE/cfu7u6CzBJkrCC19UMTqOgntnv3bp0iZu/fV0w2tW7dWjeX/pIiNO8GSaZAiUGS9WEw5CDwZUZQhApPaIyIGZ/SpUtb9IvHYMi6MBiybbaWEhdaptQ5NHBFWg4/n9aPwZB1+dJgCGn++M6hXYcpFe5TfQsxyYqU/m7duknTpk2NUfuDzzcKVKFwFar3mhNSAhEUvbuaFFKQhD1K2DOOaylsscB2DOxjevHixdvsI1xjIXDF9xH7mrD1AlWHsaLH4Cp0GAw5GBRX8PDwEMwA4UuCoKhJkyYWmV1mMGRdGAzZJqSmoIgKcvXHjBljUylxoYXjBI5JQ4YMYeqcDWAwZF0+JxjCdw2pcAiC0DKkQ4cOOmsE+/hC6+jRozpAQDCF/dH2CKtjT5480W0CwospSEJ7F+z9RuEZfMecnJz09gv8jBDoYF8Ujo94DEEQLuNNWzKwyodiXgiasEfdtC8d531MhKPKZ/TotrlH1pIYDDko/Nh37typL0BQCa9BgwZ6dtacs80MhqwLgyHbYkqJQ646ZmBtOSUutEypczg2oVoTU+esE4Mh6xKaYMiUCocMEaRjfSwVLjRQYW7BggX6+sHeAiL0R0MQdPDgwfcq+VoCghj8XZjwQm8lVBpGO4KyZcvq8zWCGexb+twgBsEcAiPs/zp58qRO+0OWEMqkf/PNN1KxYkW9EsVjLIMhCoQNhyi2gKILmTJl0qtF5ii4wGDIujAYsh3ovo7JCQQ/prLZjgR7EtAugKlz1onBkHX5WDCEi2B8h1auXCk1atTQqXD58+c3Hg0b7B+aO3euDoiw18jW4XIYq9I4T2JlxtJB3u3bt3Vw+uuvv+r3DwEKbl9aVTg0ULkPPy8EXQi+YsWKJV27dpXGjRvr0ukOC8EQEfj4+KjAA6oqWbKkCjwIqAEDBqjAQMl49PNFihRJ+fv7G/coomXOnFmdPXvWuEfW6O7du6ply5YqWbJkatGiRSogIMB4xMz8zqrJtXKr7Nmzv73lyJFT5cpXWJWp0VoN/e2Cem48NbhX6sS4Wqpc352B/2VZvr6+asKECeqrr75SvXv3VoEX38YjFNGiRo2qzxdkHfD9PXXqlHHvzXdn1apVqnTp0ip58uRqyJAh6s6dO8aj5jV+/HiVJk0adenSJWPENuFY261bN5UnTx59HLakI0eOqMDgQ8WNG1d17NhRnT9/3ngkfOE1BwZ9qmrVqiphwoTq559/DtM1ny3jlD29hZkIdK9HvyLMGAQePHXanJubmx4L/LwYzyQic0JKHGYI8X1DgQQ0Tm3YsKHl0hfUK7l7yVOuxS0nnbp0kS6Bt86d/ycdmnwrGZ5sloF1K0rndQ8kwHj6G6/knEdbqfvTWjl986lY+miA1gP4d2FmGxuHkc6B2W0eh4hChj0no0aN0pvnUaGxffv2Ok0q8CL3s/YEfQ6sKmBPY9GiRWXRokU2+f3EfpwqVaroFXk0uzeVEjc3pL9h3w5W6FCcAft6sFUBGTkRAeeXcuXKyfr162Xv3r161QjnIGQlOFzzfkRERB8S+OVQkydPVlmyZNGzT4FfXBX4JTEe/TiuDFkXrgxZp/3796u8efOqUqVKBZvdtSjfY6pf7qgqQZM16qUx9NbLPap7lqjKpeocdd8Y8ru1W01smV8liJFEJUsQRSVuse7932dhu3btUjly5FAVKlRQ586dM0YpInBlyLrg3Ozh4aFXGpo1a6YOHz5sPBJ+Dh06pAIv8FVgUKECgwtj1Lrh+gTXNFh9xurZ69evjUfMCyt1I0aMUAkSJNCr3Zb6e8zhwYMHqlWrViplypRq48aNxqj948oQfRTKNCJ3HxVO0IgNsybYyGcaI6Ivc+/ePV05DUUCevToofvtWMXeIOeUkjJxJPF5/FCe+r8ZerppnIzzzCMDt26V3nks0yz6U7ChGFWsKleurCsi9enTR54/f248SuTYcOxAyeV58+aZbU/Q5yhQoIAEBmFSpEgRXZ4bJalRGMBa4fqlTJkysnDhQr1HEatnYd0nHRJU3EN5bOxBCgwY9Wq3Jf4ec0HBCBTawF4wXOeh2vD9+/eNR+0XgyEKFSynorIJ0lSQtoIvDJZXcTDBmDUf9IisSbinxH2WF3Jp9TBx/0tJxq+LSXKnN6OuDRaK5wF36VQ0QYSeNHARgbQcps7Rp/nLuSm1JU9gkIBA4b1bziLSY7OP8dzncnbVIGlVtaQUyFdAildpKYNWnwv8NtgOpJVi8jIiIdUeBQiQVo/vJaqgjRw5UqfvWQMcJ1BRDSlxuHapXbu27nOG44gloKgF0uKQdoaCBWnTpjUesX64vkNp76+++kry5s2rz1P2jNXk6Iuhrv2aNWt0zitKN7Zt21bfTBVYbKOaHE6YblJ/xnnxM0aCieQi347eJWO+jWYMvOFzcrw07P5QOm8cLKWCP2S1cCBGeWZ7qPpjixIkSKD7PuDEiB4R+N7goixC+B2X/gUKybCLcSVpPNMHWInfswdy76mTpK76iyxc0EOKvnttFXBbpn6TTganWi5X5lSTiO5WgRldvJ845mDlGvscccwhy0JJXpTtRSUq6+Unx/sXkEITXKTDyGaS490FzUjOkr5cYykbeH3qNbuWFO2wX1I16CgNCsWTx4cWy7TFN6TEzP2yonkaMeYErBaOI6HtMxSejh07JhMmTJB169bp9h1YFcmcObPxaPh5+fKlLF68WP9bABMqjRo1smi/HaysYLUJQZC1/Vw+F0qo//jjj7J582bJnTu3MWpfGAyRWWCmFrPdy5Yt06UhUZ67dOnSehbcuoOh0J4w/zsdvjrnIe1qtJVFTxrImitzpJqN9C/DDE+GDBms/ALGfl24cEGuX7+uNxnjwiBCV4KMYGhi/B4yo0NeieL3RM5umCzjVz+VMhPWy5J2OSTEGN/KgiHAqjQCS3TERwnuZMmSGY+QpSClEylRSIeyXsaxfVouWX5jgXz3oQ9r4HdhQMHC4p5ziZxaUEvedJV5KCsaZZfG/3SSYwf7SjYrj4asNRgyQf8wUwlpFHIwlZBG6qslyjnjsvaff/55Wz4akyYlSpTQxwiseFj62IsUQZQdR2pcRAR/lrB8+XJdln3jxo06JdLuIBgiMhcUXJg0aZIuuICP16ZNm4xHrJWvOtYvt4qaoIla86kd4X631O6JLVX+BDFUkmQJVJTELdS68N5FHgYsoBCx+vTpozeejxo1KuI3n4dUQMH/rtrcOYeK4ZJX/bD1vgqx9In/LTWlXPQIKaDwISjo0rNnT328mTlzpjFKlmQbBRRCeWwP/EwfWDJdLTn4yBgAH7WnW0YVLduP6qAN1IlAAYVwK74SBn5+fuqvv/5SgwcPVsWLF1cuLi66IAqKFyxbtkwXYXj48KHx7NDB5/DChQsqMOhRgUGIatOmjUqVKpVKkSKFLgSAP/f+fVMpGMubNWuWXZQaD8lvv/2mS3CfPHnSGLEfXBkii8DHCitCWFZFSoX1CuXsITyaLTXzukuCnmOka8AAKTg0lSy3oZUhzJqz6WrEwuoQUkWw0RnNVLEPL0IYK0PTci2XGwu++2+F59VhGVymjAy8UkHcD66Q5qnfmRK3opUhHGMwW4niE5jtxd4ENGkly7ONpqvGsX1Kepm2f7SUfeefGimKqyRNlSDEz3DA9UVSv2gLOVRtk5yZXl5iGuPWytpXhj4EqZZYZdy3b58uM40bUu6dnJz0fiOkdMeMGVPvFcQtICBAp+djNfju3bv6+Whcmjx5cv183LAXE6tOOM+F9+o7ypgXLFhQvx57WRF6F4orzJgxQw4ePKj3qdkLBkNkMbaxZ+gzTpgBL+T5q5gSK2aA3J76jaQbbHvBEJa3Hz16ZIxQeENvieHDh8vatWt13joqL40dO1afzMPVh4KhQD7Hh0jpEr+IV3l3+WtlcwkWD1lJMITNvKh09ODBA50iV6xYMeMRCg82FQwNPiEhlfdxStleNl+YLuXfyQcNuL1JfqjWUGb8W0eW7Jop3yWx/jpTthoMhQSXpCi4gEAH/X+wzxLBD4IgBEn4zCEwwh5M9FNKmTKlVVRnw78bQRgKJmB/jb3C66xQoYKe5O7Zs6cxavsYDJHF2FQw9FknTNsNhoYOHSrRotlIxQc7hJULzBzCixcvdGCE/HI0LQzXkqsfCYYCwyE5MqiUlBp0RSq4/yUrm6f+bwN5BAdD//77rwwePFhvTkYxkA4dOtjV7KStsKlgaGoWmXNyslR8558aOUoMcY3nIkE/Pc9OzpK2dbvKOqd6MnPdDGmYwZpf33/sKRiyVXPmzNETM3/99ZfdH5MQqBYqVEj2798fYQ1jzQ7BEJElRLKJpqtGXnn8esrjxl11927w2/2H/wY+413+6taUcio69wyRGfzzzz/q22+/VdmyZVPbt283RimogIAAFXixp/cBoKmkt7e38QhFhMCg3X72DGn+6vaW3qpo/KgqSZn+6k9v22oWbit7huwVvgto3Hrs2DFjxBL8lffSNqpAjjyqztRzys8YDcrv1g41vn11VSJ/PlWwTC3VZcYBdddCH+XRo0er2rVrG/dsn/Wv/xKFh0jO4pIgoSRMGPyW4J2ZQyJzy5gxo2zatEmv2rVo0UJXmrt586bxKCElDqknqM60ZMkS3VSSe4PInJ4fHCTf1Z0sj6vPlZ2bBkq5xLw0otBDXyWk7OXJk8cYsYCAa7J85lK5+eiOrJ8yRw69NsZNXuyX/lWqys9b/aVA3cZSM/tTWdO1otQYcUzefao5tGzZUvdsQoaDPeA3nogogmGj73fffae7ouOkil4OY8aMcehmxkjD6tWrly6/i/fmyJEjUrx4ceNRolDyfyxXjh3WpcCD347I6WvPdMro6O9HyuGYRaVS9ruyafp4GT/+zW3i7O1yzd/4c4g+AP0Wa9asadyzDP/zS2TxwYRSc0Bbye21RNz/DPzsBuFzYKEsOpNGOi9eLeN+7CZ9Jq+Vea0TypH5HvK3BaIhNN7HHmSUL7cHDIaI4FMnTKJwgMpJQ4YMkQMHDugeFZhpRLUlR6LUmypx6AqPJqqnT5/W/S24N4i+yOP10u3rgnqvXvBbYak28m/xO7FSVp98Jf63/5RxPbtL9+7/3X4YuEL+YQ9f+ghUuEOVVssGQ35yfNFSOZakstRp2FjcCt6XNbN/k7sBxsMQKZLo/70toOckUaM6Bf4DlViqMABeMwJBu/AmW47I/Gxqz1DgVwFfh/dvTipNx23Gc024Z4gsD/tkVq9erXtm1K9fX924ccN4xH55enqqsmXLqly5cqk9e/YYo2RtbGPPkOPgnqGIc/r0aZU+fXrjnoW82qW6ZHBWWXsdUD6B1x/XpldUsWOVURMvB9k59OqEmlAxmYqbpabqPW6yGtOjqsrgmkJVm+4Zwr5n87h8+bJKmjSpcc+2cWWIHFwUyTPouLxWSs9Iv3/zE6+p7/aCiSxJO/0pL71tp5Ic2R6kzmHmDXtmTKlzKMNtj6lzSIlDOVqkxNWoUYMpcURkE+7fvy/JkiUz7lnG820LZNX1nOLWqIA4B15/JK/dSMo775N5807L24XLqEkkb/mvJcnNjTJ99EgZPeMPuZuytFTKn8RiKWCBgZBub2APGAwREVmxoKlz2LBqT6lzmHAwpcR5e3vLqVOnpHPnzkyJIyKb8Pz5c4kVK5ZxzxIeyUaPdeLtGlNurxwsAwYMkIFTTotKqOTUotmy9xWe4y9X3FtIzQHnpMRsT/G+dV28bx+XyXn+lm7V28nS20Hz6cwHbTr8/f3tYoKOwRARkQ1A1bnff/9dB0bNmzeXhg0byq1bt4xHbc+5c+d08z68nsWLF8v8+fMlSZIkxqNERNYvevTo4uPjY9wzvwDvNbJw8xNJnMJZvA4e0JNiBw4ck+eJ04nL1eXivhFN1J/KjvU75EXJ/8mQuunf9H9zySaNR3wvXz/aLKt2WKbiG/pIgj1MXjEYIiKyEabUOVSdS5s2reTKlcvmUudMKXElSpSQatWqydGjR/V/ExHZGldXV3n48KFxz9z85dryhbLdt6T0WbNFV257e9vqLi3SPZQNc1bKzYAoulhCwIvn8jLoIpCvn/iryOLk9Laqglk9evRI4sSJo89Lto7BEBGRjUFaBvoSoQM4ToxIndu5c6fxqHVCStyKFSt0Stzt27d1SlyXLl2YEkdENit79uxy5coVuXv3rjFiRv7nZfHi/eJUqp7USvHO5Xq0ItLELZu82DZXPM5Hl3K1KkrcAxOk2+T9cue1iM/tPTKhywQ5kKCS1C4dw/hN5rV9+3YpWrSocc+2MRgiIrJRmTJlks2bN8vgwYOlWbNmVps6Z0qJw78TKXELFixgShwR2TykyX3zzTeyfv16Y8R8/I4tkqVHY0i5ejXk/T7AUSRXo/pSQA7LgnlHJGnDqbKoT1Y52qe4JHOJJrFTlJJ+p3JI/8WTpK6FmgiHR3+l8MJgiIjIhiFFoVatWlaZOoeUuN69ezMljojsFppCo9eQuUUpMFROvn4kq5smDPFi3SlLb9n/6rV4jiwSeDWfWMoP3CwXb16Uv7dvlR2HL8nNfzZK39Ih/96wwj6pP/74Qx/X7QGDISIiO2BNqXNBU+KwUsWUOCKyV1WqVJFdu3bJvXv3jJGIEyVeOslfvKQUy5tW4lrwcLtx40bJmTOnJE6c2BixbQyGiIjsSESnziElDmkj+PsXLVrElDgismsootC2bVs94eMIsOLfvXt36du3rzFi+xgMERHZmaCpc2nSpNGpc+PGjbNo6lzQlLiqVavqlDg0USUisneDBg2Sv//+2yJ7h6zNTz/9JKVLl5aKFSsaI7aPwRARkZ1C6tywYcNk3759Or87b968Zk+dC5oSd/PmTTl58iRT4ojIoaA59qxZs6Rjx47y5MkTY9T+4FyycuVKPblmTxgMERHZucyZM+vUuYEDB0rTpk2lUaNGZkmdM6XEYVYUKXEeHh6SNGlS41EiIsdRpkwZXVCgfv368vLlS2PUfly6dEmnXU+ZMkXix49vjNoHBkNERA4AqXO1a9eWs2fPSurUqcOUOmdKiStevLjePMyUOCIikYkTJ0q8ePF0qvDz58+NUduH8wZS437++Wedgm1vGAwRETmQoKlzWC1C6hwqIYWGKSUuW7ZsOiUOVeK6du0qUaNGNZ5BROS4cCzECjkmnLCn5unTp8YjtuvEiRNSrlw5Xa0UhSLsEYMhIiIHhNQ57CNC6lyTJk106tzt27eNR98XNCVu4cKFTIkjIgqBk5OTuLu769V3rKZgVcVWrV27Vgd1EyZM0CnW9orBEBGRgwqaOpcqVSrdN2L8+PHBUueCpsRVrlyZKXFERJ8QOXJkmTp1qrRu3VpX2MSqijU0wg6tu3fv6r1PPXr0kOXLl4ubm5vxiH1iMERE5OCQOjd8+HCdOvf777+/TZ1D1SCkxN24cUOnxHXr1o0pcUREoYDJJlSXO3LkiOzZs0cKFiyoJ5OsGVKhsfKPiTFMkKE6qCNMfkUKfOHK+G8is8LMiJ+fn/6VIl6WLFnkt99+078SfQhOCatWrZIOHTpIwoQJZfr06VKqVCnjUSIRZ2dnvWKIXyni5ciRQ5YuXap/JeuE4ypSi7HSgv03mFgqVKiQ8WjEw7XamjVrdGYAvtuzZ8/WwZuj4FUqERG9hdnMOnXqiLe3t5w+fZqBEBFRGOG4ij03Fy5c0EEG0s6KFSumC9IgEIkojx8/ljFjxkj69Ol1JbwffvhBr145UiAEDIaIiOg92ATMVV0iIvNxdXWV7t27y8WLF/WvCEAQiGDFaMuWLeHSn+jevXuyZMkSad68uaRLl06OHTumU6L37t2r95A6YsNsnumIiIiIiMIJAg4EHghAkL6OIGnw4MGSKFEiXb1t7NixOkh58eKF8Tu+DNLzHjx4IDt27JCffvpJChQoIBkzZpRly5bpND3sBUXDbEdbCXoX9wyRxXDPkHXhniEiMgfuGbIu3DNkP548eaIDF7Q9QBEbLy8viRs3rl7BMd3SpEkjLi4u+vuHgja4jH/9+rWuVvfw4UO5fPny29ulS5f0n5s1a1YpX768DrSKFCnCQjjvYDBEFsNgyLowGCIic2AwZF0YDNmvgIAAuXXrVrAA58qVK3rFCMEPgiBcYyG4wfcRK0ymoAnpd/g1Xrx4es8SfRiDIbIYBkPWhcEQEZkDgyHrwmCIKGx4lUpERERERA6JwRARERERETkkBkNERETkUPr06SNXr1417hGRI+OeIbIY7hmyLtwzRETmgGN6tGjRbLofCTag4zWgn5atw/6ta9euScqUKY0RIvocDIbIYlC9pEqVKjYbDOGrgUou9nCyhPXr1+vu1xkyZDBGiIg+n4+Pj65iZctKlSol48aNk/z58xsjtgvnqJgxYxr3iOhzMRgiizly5IjcvHnTuGd7/v77b90QDV2i7UGcOHGkdOnSxj0iIseFJpPTpk1z+GaTRMRgiOiD0KF59erV+lciIrIfDIaIyISbOYiIiIiIyCExGCIiIiIiIofEYIiIiIiIiBwSgyEiIiIiInJIDIaIiIiIiMghMRgiIiIiIiKHxGCIiIiIiIgcEoMhIiIiIiJySAyGiIiIiIjIITEYIiIiIiIih8RgiIiIiIiIHBKDISIiIiIickgMhoiIiIiIyCExGCIiIiIiIofEYIiIiIiIiBwSgyEiIiKyDQFP5Mqx/bLv2BV54m+MERGFAYMhIiIismJPZF6NOJK5yU/SOn8ayViolJTKn15S520nK64xIiKisGEwRERERFZNBbyWi8uWy5M2v8uN5y/lzv5Bku/6XBkw9bDxDCKiL8NgiIiIiKyeU4E2MrRdEUnsHEUSFGojbgUjy/XLXsajRERfhsEQERERWb2oSVJKCifjTmQXiRUzkvj7+xkDRERfhsEQERERWblIEjlyJOO//6OU8R9ERF+IwRARERERETkkBkNEREREROSQGAwREREREZFDYjBEREREVsxVWqx/Kf+ubCAxjREJ/K8mv72Ul2saG/eJiL4MgyEiIiIiInJIDIaIiIiIiMghMRgishSfkzK+dnnpt8vHGCAiIiIia8JgiMgSXp0Tj7Z15ae1p+XmUzbCICIiIrJGDIaIzMpfbu+ZJK2KF5d2W55JrPd7BBIRERGRlWAwRGRWT2XTuHHimWegbN3aW/JEMYaJiIiIyOpEUoGM/6Yv5OvrK9euXZPLly+/veH+y5cv5fXr1/rm5OQkUaNGFWdnZ4kfP76kS5dO0qdPr3/FDWORInEZwZosW7ZMVq9erX8NvQB58fyVxIwVUwJuT5Vv0g2WVMuvyJxq0Y3HiYgoohUsWFCmTZumfyUix8Zg6AvcuXNHtm7dKlu2bJF9+/bJjRs3JFmyZDqoSZs2rf41derUEitWLB38IAgKCAjQQZGPj488ePAgWOB06dIlwY8hW7ZsUqFCBfnmm2+kcOHC+vdRxPmyYOg/DIaIiKwTgyEiMmEwFAp4i/bu3SsbN26UP/74Q7y8vKRs2bI6aClTpowOfsIauDx69EiOHTumAyzcECThz8bfUatWLUmcOLHxTAovDIaIiOwTgyEiMuGeoY949eqVzJkzR3Lnzi1t27bVqzxTpkyRe/fu6Yvk9u3bS+bMmc2yghMvXjwdYI0YMUKOHj0q58+flzp16uiVpyxZskjz5s3lxIkTxrOJiIiIiCisGAyFAGlwAwYM0KluK1eulDFjxoinp6cMGjRIihUrFi7pa1gJatSokSxcuFAuXryog64qVarogGndunU67Y6IiIiIiL4cg6Eg/P39Zfz48ZI9e3a5e/eu7Ny5UzZt2qRT1SKyuEGCBAmkT58+Oj2vdevWOigrUqSInD592ngGERERERF9LgZDhjNnzuhVn7Vr18rBgwdl+vTpkjVrVuNR64AVqYYNG8qhQ4ekTZs2ek/RwIEDdWEGIiIiIiL6PA4fDPn5+emVltKlS0uLFi1k+/btkiFDBuNR64RVKgRDKLhw+PBhyZ8/v/6VrEvkpJ3kz5feLJ5AREREZKUcOhjCikr9+vV1OhyKFrRr104iR7adtyRFihR6/xBS6CpVqqQr3RERERERUeg4bGltVIpDtbYoUaLo0snRokUzHrFN+/fvl++++05mzZolNWrUMEYpLMJaWpvoQ9Co+fr16+/1G0PPMhyb8DhuQZs1J0yY8G2T5qA3FxcX40+lsMK+UfwMgv5ccAvaRBs/F0yamXrIYU9nSD8XV1dX408la8TS2kRk4pDB0PPnz3XggJOYh4dHuFSHCw9HjhzRFecmTpwo9erVM0bpSzEYInNBOu7ff//9to8YvqtJkiR5e+GcPn16/WvKlCklRowY+kIbEzWmZs24ocrluxfpKKqCPwdFXnBDtcm4ceMafyt9Ct7f48eP61V1/FywXzSk4MbURBvnCtzw+xAUvdtEGwGt6b/xczA10cavX331lfG3kjVgMEREJg4XDOHl1qxZU8/aoYcQZl7tyalTp/TJd+nSpVKqVCljlL4EgyEKi2fPnunPDipSYi8iLqjx3axYsaJ8/fXXOugJK1yUo+y/KchCX7JcuXLpvwel+a19/2NEwMrbqlWrdBPtP//8Uwc/pp9LyZIlzbLShvMMWiKYfi5Ixc6YMaP+exo0aCA5c+Y0nkkRhcEQEZk4XDCEIGHIkCF6jxBmX+3R+vXrpXv37rpJa8yYMY1R+lwMhuhLIKUKzZkx2YKLa0y+YGUAKziWhgv9PXv26AAMPcoQdHXr1k1PjERkewBrgJW1GTNm6EqhaKRdt25dHZykSpXKeIblYBXpwIEDsnnzZpk3b55ky5ZNunbtKpUrV7apfar2hMEQEZk41FH43r17+gSEixR7DYSgWrVqUqBAAd04lojCB1KskJ6aN29evfcEJfARTDdp0iRcAiGIHj26DrzQL+3q1av6YrtDhw6SL18+mT9/vkOW4cdqecuWLSVLlixy69YtvUqHtDj0bAuPQAiQWofAeNiwYXLlyhVp3ry5Pj6jfQMuyF+8eGE8k4iIwptDBUMIhJA6UqhQIWPEfk2aNEnvh8IFGRFZzsOHD/XFrZubm16JwT6esWPHStq0aY1nRAysCqNCJnqoDR8+XBYsWKDL8DvKMQF7Q3HMR3CIdMELFy7Ir7/+qldlIhIm4ho3bqzbIbi7u+s0uhw5cuiUPSIiCn8OEwxhQ+vWrVtl8ODBxogZBNyRZW0LSs68dWXaeX9jMGQ+J8dL7fL9ZJePMWDi4yUbR7aRaiULSP4i5aVRvxVy1gyThKg89csvv+iLICKyDOw9wYVs7NixddDRpUsXiRMnjvGodUAa1rfffqsvtn/66Se9ctyjRw+7Xo3Aa8W+HBQ3wM8Fr9vaChggbbFEiRLy22+/6bRKrF61atVKHj9+bDyDiIjCg8MEQzjhoOS0OffQBFxbLjOX3pRHd9bLlDmH5EMJKK/OeUjbuj/J2tM35WnQHVoBN2Vpy9JSa8xxSVCmkTSqmEzOT2sslTqtkXsBxnPCADnx27Zt0yVhich8cJGN0vw///yzLF++XCZPnqwDImuGi29s3kfaGNLFUGgBBRfsCVaDkP6GwAIBBlbHUSDB2iGd8fTp07rFA4Jr7PkiIqLw4VDBEMppm4+/nF+yWA4mrCkD2uYWryXu8ucz4yET/9uyZ1IrKV68nWx5Fkve3b7ss3e09FvjIp1Wbpd5A7tJ94HzZP2ob+TJipmy5m7YoyFcBGCvAFbEiMg8vL29pXTp0pI8eXJdlrl48eLGI7YBq8aLFy+WcePG6eIOqKpmD54+faorwmHyB4EFAgxbghVF7B9atGiRDuiwx4uIiCzPIYKhu3fvysmTJ6VcuXLGiBn4HZdFS49Jksp1pGFjNyl4f43M/u2uBAthnm4KvODwlDwDt8rW3nkkijH8xms5un6z3MzfUr4vjhllP3ntJ5K01Vq5/3iDtE5inh8NLnbWrFlj3COisEBDTlRmw/6gCRMm6IIFtqp69eq68iRWUVDowZZh31b58uX1ahdWg6wtVfFz4POFIg99+/bVe5yIiMiyHCIYwobhwoULm/XCxWe/hyw7l07qNComsdK5ScOSvvLHnKVyNejWIdcGstDzgLh3KioJ3nunn8u5czfENW0MOfBjRckUL4ZEjxFfMnzTW9ZdV2b7waAJI6pcEVHYoAoYLlTbtGkj/fr1s4tS1Tguotxzp06d9GqRLUKVUBznsP9m6tSpdlGqGpXv0JsIez4RdJP5IEUUFRYxScqy5kQEDnEkQPpE/PjxjXvm8Fy2LVgl13O6SaMCzoHvYnKp3ai8OO+bJ/NO+xnPCRQ5psT60BalgCfy6KmvPF7bV/qfKSwD1+6TvSv7Sv6rU6WJ21A5bKYKuPHixdOvn4i+HPr3VKpUSRdIQPEBe4JS4Cg4gN5k6IVjS9B0Fqvf+NmMGTPGrnoppU+fXnbv3i0TJ07Uad4UNuj1hCqPWD1Es/WUKVNKixYtZO/evcYziMhROUQwhAsZbEw1m0cbxWOdt7jGvC0rBw+QAQMGypTTShKqU7Jo9l55ZTwtNHxdqsnYJYOkQclC8nWNHjJ/RktJcnKBLNj/btm5L4PVMBZQ+HLoSYwLLnJsgwYN0iWZO3fubIzYl+zZs+siEKhm5uNjnmNPeMBKEAwdOtQum8qiDxL2DmHl7tGjR8YofS6ssuXJk0eXMd+/f78uroHmxCiAUr9+fWnWrJluyktEjskhgiEXFxddZcg8AsR7zULZ/CSxpHD2koMHDujZ1APHnkvidC5ydbm7bAzNOStyPEkY31kip84m2YIUoYqeI4ekj+QtN259vFR3aD179szqq1xZK6RRIHcfM4jYW0GO6dixY7ofjOnC216hOh7Ss4YMGWKMWDekLQ4cOFBmz55t1+lOaNaK4j/2tiIZHpAS17BhQx3soK0GUkIzZcqkH0PwjCbJZ8+elcSJE+sqfujP5+cXJLuDiByCQwRD6C+Bg6JZ+F+T5Qu3i2/JPrJmyxY902S6bXVvIekebpA5K28GL6QQoliSN19miXT5lJz61xgK9Pqyl9xQiSV5MidjJGzwum2htKw1MZ1AkXYzc+ZMPTPbs2dPqVq1qly6dMl4FjkCXBhhtWT06NGSJEkSY9Q+4eIQAR827Z84ccIYtU5YsUVDWQQImTNnNkbt14gRI3QqIxuzhg5S4lAtESlxadKkEU9PT6lVq1aIq4eYLBw1apTs2rVLpyOiMTFT54gci0MEQ0WKFNGlVrHRNqz8zy+WxfudpFS9WpLinXcvWpEm4pbthWyb6yGf6MEaKIpkbdhSSr9eJT93nS+nHweIz/WtMrTXbPHK0kAaFTVPWt+GDRvkm2++Me7RxwQ9gaZNm/btCRRVqlCNEBu0seF8wIABTD10EDt27NAXUE2bNjVGwi7gzjJpWzCn5K077RPHCR85Ob62lO+3K/C/gvO/vVMmdKghJQvkl0Jla0vXXw+apTdZ0qRJdYCBlDlrhkaqmNH/4YcfjBEzMEMTbR+vjTK8dRUpXqCQlKrRTkZuvPRZadMfggt2pALi+EQfh5Q47IPDKhD6aA0bNkxixYplPPphSINFXz406GXqHJGDUQ6idu3aas6cOca9L+WrDv2UU0WNW1PNv+tvjAXlp84OL6qiRc2qeh3wMcbAX92aUk5FT9xCrXtpDGl+6sb6H1Xp5NFU5ChRVdTITso1W0M148Qz4/GwCzzAqwMHDuj/3rJli34PLl++rAICAvQYvRF4AlXZs2dXgYGjOn/+vDH6vmvXrqm6deuqwGBJrVu3zhgle9WxY0c1fPhw4545+CuvSWVV7KTJVdJo7x4ngnqpzi5oqjJFd1KJW6wLvBfE833qp7yxVMz0VVS3EePUsO/Lq1TR46iiQ4+qD/1pnwPHh4QJEyo/Pz9jxPoMHjxYde7c2bhnHv5ek1TZ2ElV8qTRVNZeBz74Xr48u0A1zRRdOb1zPPe/sUQ1TBVVRU9TQX0/ZLQa0qmcShUjiaoy/WzgmSPsnjx5ogKDIv0rve/mzZuqYcOGKmXKlGrlypVhOsc9ffpU9ejRQ3311Vdq0qRJytfXHD9BIrJWDhMMLVy4UFWrVs24Z2V87qpzf+1R+45dUY9DirG+EC7qkyZNqvz93/yhu3fvVvXr11dJkiRRqVKlUk2bNnX44OhLT6AILDNlyqSqVq2qLl26ZIySPcH3JlmyZOrcuXPGiBn4eaphRWKqdB1nqgGFoquUrTaqf42HTPxu7VYTW+ZXCQIvpJMliPJeMPTqzw4qtXN21fsv0+X6c7X9+/TKOVM3tccc0VCg3Llz6+OFtcqXL5/asWOHcc8c/JTnsCIqZrqOauaAQip6ylZq4/s/GLV7YkuVP0EMlSRZAhUlWDDkq472za2ixvtWTbtkCiJ91ZkRxZRLkiZq9WNjKIwqVaqkli5datwjeP36tRo7dqxKkCCB6tOnj3r2zHyTiWfOnFFlypRRuXLlUnv27DFGicjeOESaHFSpUkVXj/Hy8jJGrIhzQslcqLh8nSe1uJrxJ4Lc/9q1a7/dXIw0ryVLlug9Mdjj9PXXX7/9FXnVSAuYO3eudb5HZhY0JS516tQ65QbvVWgrUlWoUEGnzhUrVkwKFSokv/zyC1Pn7Mzhw4d1805z7knxO75Ilh5LIpXrNJTGbgXl/prZ8tvd4PltTzeNk3GeeWTg1q3SO0/wVs1a4GdU/+/tR9VJokZ1EglQooyRsMKGfWtt1nzt2jW5evWqFC9e3BgxgzA30X4uJ06cl8iFakqddKb9nlEkU+XykunRHtl2xDwV+qz55xIRsM/nS1LiQsuUOhcYZOnUuebNmzN1jsgeGUGRQxg5cqQqX768Q6yCHDp0SCVKlEgFHriNkQ/D+4HZ7xkzZrxdOQoMEFRgcKQCgyMVGBwZz7QPppS4wIDGLLP+SJ2rU6eOTp1bv369MUq2bvr06ap169bGPXN4pXZ1yaCcs/ZSyI7zvzZdVYwdS5WZeFkFTUjzf/5MPdf/cUtNKRf9/TS5VyfUhIrJVNwsNVXvcZPVmB5VVQbXFKradE+zpGPB1q1bVenSpY171mXt2rWqSpUqxj3zeLWri8rgbKQt+l9T0yvGVrHKTFSXg/9g1LM3P5gQ0p6fqUW1XFS0clPUrSCr+z4He6msUWKoGgveXWb6MlipwIq0o7t165bZUuJCi6lzRPbLYVaGAE0F0asBqx/27PXr19KyZUvdYC4wIDJGPwyrIZj9RnUm08rRH3/8IUWLFn37K1aOMCs2b948XdLWFt2+fVsaN24sTZo00SV58drMMeuP0tsrVqyQwGBSb+iuVq2aXL582XiUbNW///4rrq6uxj0zeL5NFqy6LjndGsmbXs21pVF5Z9kX+J0K3qs5lnyoV7MWNYnkLf+1JLm5UaaPHimjZ/whd1OWlkr5k5itIg5eN16/NUITabP+XMzRRFuiS9HShcX5wGwZs+Ou6PILr6/I6inL5R+/AHn9yjxdtK355xIesKI/fvx4yZkzp+7B9Lkr+mGBIhaoKokCDatXr5YCBQro1Sgisn0OFQxFiRJF96To3bu33Lx50xi1PyjDigv0Ro0aGSOfx96Co6AnULwvljqBompf0NQ5BFxMnbNdmFSIGjWqcS/sHm30kHXerhLz9koZPGCADBg4RU6rhKJOLZLZe0Nbc8xfrri3kJoDzkmJ2Z7ifeu6eN8+LpPz/C3dqreTpbfNUFIukLOzs9U2XzX3z8U8TbSdJG2bMTKwhLdMrpxNshUqJgWyFJH+zwtKkdhRJHoM81QHxc8Fr98RmVLifv/9dx2EDB8+3KwpcaGFBsXoP4frCPQpYuocke1zqGAIcufOrWfvsecDKwX2ZtasWbo3DlYpzHWx/6ngCKXLrTU42r17t+TLly/cTqDRokXTJ8mjR4/qcu44caK8OdkeNGtG02KzCPCWNQs3y5PEKcTZ6+CbRs2Bt2PPE0s6l6uy3H2jhKZXs8hT2bF+h7wo+T8ZUje9RMeQSzZpPOJ7+frRZlm144V+Vlhh9cFamzXj32W2n4u5mmhD9DzSbeNxObB4sLSqWUs6TNkuB8cXE2e/RJI8eQh7v76ANf9cLCXoij72ZpprRT8scE7EHiJMrKGPIRq2ohw9G7YS2SgjXc7hDBkyRGXIkEFdvXrVGLF9EydO1FXi/vnnH2MkfCBfO/CkoPdY1KtXTyVOnDjC9xwhp7xRo0Y6p3zFihURtk8s8MStc/xRyZBV52wLqnaZqwKln9dEVSZWLFV+ylUVvGDkK7WnWyYV1bWymnnjnVKSIe4Zeqo8aroo55Lj1JUgT/f3GqdKOruqukvNU0kL1Tdr1qxp3LMuqHJXoEAB414Y+XmpiWViqVjlp6ir77z9r/Z0U5miuqrKM2+88zMLac9Q4NiGIapD3+XqbTG5wLGbv1ZSrvHrqEUPjaEw2r59uypcuLBxz76hSty4ceN0lbjevXurwEDQeMT6nD59Wu+xQxXGvXv3GqNEZCscNhgCHGjTpEmjLl68aIzYrhEjRqh06dJZRbGDiAyOsKl1/Pjxb0+g5iyz+qVevXqle9Xg3/TLL7+oFy9eGI+QNXvw4IHu6/L8ud41HwZ+6szQwipanMpqVtDd9Qbfo31V7qjRVNHhnsEKKYQcDAVedHvUVomiplI1J+xT3j6Bn69bu9XY6qlU1KT11VLv9//8L+Hm5qZmzZpl3LMuuEiOFy+eunHjhjHy5fzODFWFo8VRlWfdeifgCeR7VPXNHVVFKzpceQb/wYTYN+7ljv+p9NHSq6aLLqjnylfdOTBeVU8RQ2XpuuO98ulfqmvXrmrgwIHGPfu1a9culSNHDl3wCOcSW4Dz3uLFi3U5/ubNm4eqeBERWQeHDoYAF+y4WF+yZEmErR6Exf3791Xjxo1VlixZzHJxYAkhBUcIQnHCmDdvnrpy5YrxzLAJegI1a28YM8EqJJr/Imhl1TnbULZsWbVmzRrj3hfyPaR+yhlVxa05X4Xcq/msGl40mopqVJl760PV5Py91db+FVXqGJFU5KjOKmrkSCpm2spq8I6771/QfwEE766ursrb29sYsT5Y9Z02bZpx70uZuYm2/x21uXexwEA1sooazVk5Rf1K5Ws+U5mrhzaOozhunjhxwhixP6YV/RQpUkToin5YoCnuDz/8oKvOTZ48mVXniGyAwwdDcODAAZUtWzZVvXp13YTTFuAksWzZMl0GG7OF1rACElrmDo5wAkVAGNEpcaEVNHUODW/JeuFiBs2JrZHvw0vq8J5dau/Ry+qRGa+3Nm7cqIoXL27cs04op4zS+Nbo2Y0Tat+ev9SZW8/MEpyaHDt2TE+k2GKA8ClBV/R//PFHq06JC61Tp06pUqVKqTx58qh9+/YZo0RkjRgMGTAb2q9fP5UwYUKdHuLnFywvwqpcv35dfffddypr1qxq//79xqjt+tLg6N2UOFs6geLzNmzYMKbOWTmstuJnhF5SjgDfxYoVK+og0Jph8gc/F3teJXlXixYtVJ8+fYx79sMWU+JCC98nps4RWT8GQ+/AybVYsWK6gSYutLHkbS0OHz6sV0CQL9+3b199QW2PPhUcIRi0lxMoUudq1aqlZ3w3bNhgjJI1GTRokKpcubJdzsi/a8GCBXoTOPblWDtMWqGQgiOkIW3ZskUXx0HjT3thWtFHStzy5cvt+vuF64ju3bvr1LkpU6ZY9WQrkSNiMPQBSJ3DhTgCD6ShRVQlMBw0V61apUqUKKHTwEaNGqUePjRTaSIbgZOkp6en3iOA1DIER/Z2At28ebPKmDGjTtVk6px18fHxUTlz5tQV1uwZ9gglSpRIHTlyxBixbvjuY0/X6NGjjRH7hBVvTAb9/vvvxohts8eUuNBi6hyRdWIw9AlIj+nVq5c+cGMW8qefftKrEpacOb19+7aaP3++3kiKi5MiRYro/UGOvBHTdALFzJq9nkCx0jd06FD9WUPFqJcvg22bpwh06NAh/V3EbLY9QmCB4h5IN7UlmKTC98Xe0quC6tSpk9XuW/tcOHdiYqFcuXJ6gssR4bu2aNEinTqH1EemzhFFvEj4P6PlEH0Eun6jGR8avm3ZskUuXLggpUuXljJlykimTJkkXbp0uvFo9Oi6DWKo4K2/d++eXL58Wd+OHz+u//zAAEwCTxbyzTff6Bv+XEe2Z88eCbwgkMSJE+vGdlmyZDEesU9Xr16V7t27y4kTJ2TixIlSpUoV4xGKSCNHjpS5c+fKtm3bJHny5Mao7Qu8OJMOHTrIyZMndWf9GDFiGI/YBjR67tevn2zdutWujg04PwwYMEBWrFghe/fulcCgz3jE9nh7e0vPnj1l586dMm7cOKlTp47ZmoK/x/+cTHGrLzPO/9cANVKkyBLZOaYkSJlTyrf4UbrWyCAxjcfk+VlZNXaMzP3zhNx6EV2S5vpGWvXqIbWyvH2GRTx9+lQGDhwoCxYs0M1k27dvL05OTsajRBSeGAx9IQQxf/75pz5JIZC5dOmSDmJwwkJglDp1aokVK5Y4OztL1KhR9QUHAirc7t+//zYAQvCE5+OWLVs2qVChghQsWFCiRDFPx3JbhhNor169ZMeOHZY/gVohBMb/+9//JGvWrDJhwgRJmzat8QhFlFGjRsnMmTN1QITvuK3z8/OTli1b6gB8w4YNEjt2bOMR2zJ//nzp06eP/s7kzJnTGLVdOC3j2IeJNwR5iRIlMh6xLfh8TZ06VYYMGaI/ZwhaXVxcjEctxO+49C9QSCa4dJCRzXKI6Uzq//ymHF07W+bvc5YmK/+WmdUTSGR/L5ldq6h02J9KGnRsIIXiPZZDi6fJ4hslZOb+FdI8jeWDk9OnT8v333+vgyO8V0WLFjUeIaLwwmDIjPz9/eXmzZs6yMHFxatXr94GQJjxQVCE4ChevHiSPn16HQC5uroav5tMIuQEaqV8fHxk7NixOhjs0qWLnl39nNVHMj+sTo4ZM0YHRBkyZDBGbY+vr680atRIHj9+LL/99pvEjGnZmXBLW7Zsmf6ObNy4UfLnz2+M2h5MnHXu3Fn++usvHdzFjx/feMS2mFb0EyZMKFOmTNGTOuHCCIam5VouNxZ8J8GOlq/2yg95y8rMDL/KlfUtxPX4AClY2F1yLjklC2oZ7/PDFdIoe2P5p9MxOdg3m4THWg0uw5YsWaKP7xUrVpQRI0bYbABMZJMQDBFZi927d4djTrmfOju5lsqdPbvKbrrlyKFy5sqnCpepoVoP/U1deG489R3+tzapYZ36qmUXw6cqEMqL16xZUwUG0boPDEUsVDJDGX53d3ebLOJx/PhxlS9fPl2i3572pqFBLvYQoaiCLe6xvHDhgipdurQqWbKkCgxSjVHbgj2vTZo00UVusNc13L8fvsdUv9xRVYIma4I3Kwb/K2p8KWcVtfgYdTnw0O1/64BaMn2JOvjIeBx89qhuGaOpbD8eVEFb7YYHVJ3r1q2b3hs7depUVp0jCicMhsgqRMwJ1Fcd65dbRY1dTHWeNlPNnGncpo9XA9qUVimco6p0rdaq++92TvQ9r2ZUSaQiR8mkuu8N39MlKkplyJBB1ahRQ3l5eRmjFBFQhj9//vw6cI+oapOfC4HPzz//rAO5OXPm2GQg9ykXL15UZcqUUQULFlQnT540Rq0bAjcEcAjkxo4da5MXwXgNEyZM0BfyKDoUYUVuPhgMPVcXV7RV2aNHVdl6HfhAoOOvri2sq5JHTaPab/3ATFg4QNU5BMR58+a1i16CRNaOwRBFqIg9gRrBUIImas17U4gv1Z7uWVRUl6pqzn1jSHupDg8pphImSqziRg3/YAhQdW7IkCH6wgk9cFh1LuLg84ty96aLWGttnougZ/v27SpLlix6Ncheq+KZ4PViYgPHFTTTtub+PKhUiMANARwCOVu0Z88elStXLl3qPMKrxBnBkFOshHpy7c0tuUoSN7pyihxLpas+Wu0PcdHNX93a2FXld42uMrVao26/OwkWzvAZRjn/pEmT6qpzd+/eNR4hInNjMEQRJuJPoB8LhvzVlfGllHPU4moM8ikMj7Z1U7kSl1CDF/ZWeaJHTDBkEjR1btOmTcYoRYTz58+rKlWq6PLbuPjGSqc1QI8kDw8PvYKFPlb23tzyXTdu3FANGjRQ8ePH100vP7Saev9+sBkPi8PKz+rVq/XsP/rHIXCz1Z+Lv78/9h3r12EVQacRDMUp00ctDvy8L188Sw1smEvFjZ5G1ZxxSoXcqvxfdWJmA5UpZiyVtcUidSHiDuvvwXkS72+PHj2MESIyNwZDFO7Q3BF9MyIsp/ytDwdDzy+uUG2zR1dRs/VSB4wTo/+tlappuuSq2syL6uXx/ipvBAdDJgiEmDpnHc6dO6c6dOig4saNqz/jaGAaEZ9vzCJj9RC9TJDGt379en3R6qgwcYCLSQRF6KeEvYmmn8uMGTNU5syZw+XnhH1A6JeWNm1aVbhwYbV06VKL9qwLLzimN2vWTCVPnlwtWbIkYgO7kNLk/O+qzZ1zqBguedUPW++rYN8E/9tqS++iKn7UJKpM/z+Vt5V8TfBZ6dKli05pnT59OvcPEVkQgyEKVzioY5arZ8+eVjCLaARDTrFUwrfpFClU8iRxVXSnyCpWuupqtCmfwveCmlktuUrfbKW6FXiy9LWiYAiQKoeL3yhRoujUOYpYDx48UCNGjFCpU6fWtzZt2qgVK1aohw8fGs8wL1xQYwYZq1IojBAzZkydWoN9TfQfpOFOnjxZpwsmSZJEN7RGgPTXX38ZzzAvXMD+/fff+rtZokQJ5eLiotzc3NSBAweMZ9iXvXv3qty5c+uUvzNnzhij4exDe4ZeHlKDirgopyQ11dwrpsDimTowoLByjZVVNV947p09RhEDgeSCBQt0elyrVq2YHkcUDlham8JV4IW6biSI0tnt2rWL4CZzfnK8fwEpNDG+9JjRQfJG8ZMnZzfI5PGr5WmZCbJ+STvJEQ3PeyXHhn8jlZYWkCW7xkmZuIG/88QAKVRkqZT585SMLeas/7SIhK/xokWLpEmTJtK4cWPx8PAwHqGIhJ/LuXPndL8YlElGX7Ls2bNLyZIldVlulNdHmf3AIDxUvcXw5wXtU4bb4cOHdS8u/Fkoy4sSxuhRg8dsvVy2JaF0P0rWFyhQQAIDFv3+oZG2qYk2bqlSpdLtEELj0aNHut+c6eeCJtroRYdm0fi5oIE2fu72/jMJDABl+vTp+ljfvHlz6d+/f/j2r/pIaW2f40OkdIlfxKu8u/y1srkkP/WLFCk6RG4V7yLdK6cIUkY7ssTJXVOal00VLqW1TU6dOqXLkT9//lyfIwODdeMRIrIkBkMU7qynyZwRDE3LJctvLJDv9FkzQO790U3K1pwjUTuuka2jykuCgDcn18EnfPXvCi6SxK67RLyX1/uvo3k44wnUdqBv1L59+2T//v1vL5pxu3PnjqRMmVJffKOPlKlZM3qXmXqV4Tl4LsZNF+u45cqVS8qXLx+sL0nt2rX1hTf67tD7fv31Vxk6dKgOIhGM+vr66oBoz549wQKaW7duSdKkSd820cZ7b2qijd+Dn4spOMXPytQ/DjcEvfi5INB1RPi8IihHPy705apXr174NM3+WJ8h8ZEjg0pJqUFXpIL7PulzsaYUH3pK3j+yO0nK9pvlwvTyoufDLOzJkyfyyy+/6AmtgQMHStu2bSN4opDIsTAYogiBj52pydy3336rm8yhOV/4CikYgldyeHAZKTMQJ8yDsqJpDDno4SH77wYYjwf+++9ul8kTj0rGDt3lu3I1pGP1LG87nYcXnkDtB4KkK1euyPXr1/V/my60sVpkugBHsJM2bVrdtPlTsCpRpUoVfWHPJr3BvRsIfQx+DteuXQvWRBtjkSNHfhuwoikq/hz8Gi4X+zYGq6GYrEmQIIFuvpotWzbjEcJ5EMdvBI2VK1eW4cOHR8B5kIjwZSSKMGgyhypP2CQa/k3mPlJN7tUxNRj55Ym/C5Jf/p+I3DOEnHJUCGNOOX1M9erVVeDFp3GPAMUSUPXMVktY26rAAFJNnDhRlzq3jv2iEQ89sLCPDL2E7HUPGZGtiGzEREQRIk6cODJ27FjZvn27LFu2TAoWLCiBJwbj0QgULY/0nNJTCjxbL727eshVf2M8giElrlSpUjJ+/HhZvXq1uLu7cyaRQtSvXz+94oqVJvq8FSEyL6xwdu7cWR+/kD6HfW043gdegxjPcBxY0e/WrZuUK1dOGjRoIIcOHWJqM1EEY5ocWQ18FCM+dc46YX8VUuIWLlzIlDgKNaTKVa9eXRcrcWQzZ87UBRMYCFkH7M1C6hyO70idQ3Bk73B+W7x4sT6/VapUiec3IivClSGyGsi3b9iwoZw9e1ZcXV31BuRp06bpjcmOCidQ5JTjYgEB0ZkzZ6RDhw4MhChUsDqEfQjY6+KoTIEQVp8ZCFmHEiVKyNGjR6VGjRr6v7Fn5t9//zUetT9YEUOlQmRBrFq1SmbPns1AiMiKcGUoAqASEaoUmSoWmW4PHz58u3Eaz8HmXGzSjREjhq5mFLSCFDZSY9yeoeocZg+fPXvmkFXSTK8fFwkICplKQV8CZZ3d3NykVatWxojjCBoIoZQ5WR9vb28dDGHVDlXn8Fm1l0IUQVf08WvEt5MgopAwGAoHL1++1BV10GcEfSfQdwQVoUyBDWYrEdx89dVXbysUoVqRKTB68eKFrjQVNHBCdSNU5ylevPjbHhb2WMIVPSu6du0qy5cv1+k+jlBthylxZE4o5Y3+U+fPn9fHFkfBQMi22FPqHC6rmBJHZDsYDFkIyrGuXLlSN1vExQh6gSBgwQ3/jZ4VYYHUMQREO3fufBtkJUmSRAdGVatWlTJlytj87BreO8wYYgUMJ0eki9lzgGA6geI14wTKMqtkLtis3bRpU2nWrJkxYt8YCNkmTH4hC2Dw4MF6JRNpni4uLsajtsG0oo9JLazoR1wfPSIKNQRDZB4oebx//37l5uam4sePr9q0aaNWrVqlHj16ZDzDclCS+u+//1aBJxEVGGyprFmzql9//VU9f/7ceIbtOH78uAoMGlXgRYwKDCj1+2piKkeaL18+dfDgQWPU9p06dUqVLFlSl1nFZ4jInHbu3KkyZsyoSxzbOxz3UD77woULxgjZmtu3b6smTZqoFClSqGXLlgU7B1grtIno1q2bLh8e/m0iiCgsGAyZwevXr9WSJUtUoUKFVLp06dSECRP0gTGi4MSxfft2Va1aNX1g7tOnj7px44bxqPW6evWqatq0qUqcOLHuj4L3NSR4fQsXLrSLPjumE2jCCOmzRI4EwTa+N/aMgZB92bVrl8qZM6cqV66c8vT0NEati+l8lCxZMtWiRQt1584d4xEishUMhsIIqzE5cuRQxYsXV2vWrLG6i9l//vlHff/993qlatSoUVY5M4yVs169eul/488//xzqQPLx48eqa9euOpCYNm2aTQUSOIEuWrRIn0BbtmzJxqlkcX/++afKkiWL3QbcDITsE85ZmGBMkCCBPk/8+++/xiMRz7SinydPHq7oE9kwBkNfCOlnPXr0UIkSJdKzQta+jH/p0iVVtmxZVaBAAXXixAljNGK9evVKjR8/XgczWOH50tUrW0udO336tCpVqhRT4ihc4Rj19ddfq6VLlxoj9mPmzJkMhOzcrVu3VOPGjXXq3PLlyyP0nIsJu+7du+vMC2QxcEWfyLYxGPoCe/bs0ftZ6tevb1NL4jh5zJo1Sx/A+/fv/8E0NEvz9/fXF2RIKaxcubKeXQsrvDYPDw+dOte6dWt179494xHrYTqBMiWOIsrmzZtV9uzZ9XfQXjAQcixInUM2BlLnzp49a4yGD5xnTCv6TIkjsh8Mhj4TCiJgNei3334zRmwPVmDKly+vatasqXx8fIzR8IGN3AULFtSrONu2bTNGzSdo6tz06dOtIuAIegJFShxPoBRR8FnE3kYUJrEHDIQcEybykFWA1Lkff/wxXFLnTCv6SInbt2+fMUpE9oCltT8Dyh7/8MMPsmnTJsmbN68xapsCgyCpX7++7mOEjtjRo0c3HrEMT09PCTxp6bKjw4YNk3r16uleSpaCjt8ob4oeTSjVWrhwYeOR8HXmzBn973jy5AnLrJJV2Lhxo/z0009y7NixMH0HUTo4aO8z0w0NpXFcwQ290kzNo3FLlixZsObRplucOHGMPzX0Zs2apUsws3y247p9+7ZuRYAWE+PGjZM6deqYvaUEPudo57BgwQLd/619+/bs+0ZkZxgMhdKcOXN0zwP0vsmePbsxattwoYLeI/fu3ZO1a9eGufdRSHBhhBPIb7/9Jr1799aBQbRo0YxHLQsfbfQmwsmySpUqum8PGtuGB9MJ1MPDg53Hyarge1GgQAHp37+/1KhRwxj9NHymTX3NcBzEhWhIgQ0CHkyuIPiJEiWK7h2DwOjVq1f6eBBSAGXqkYY+bOiR9qngiIEQBbV79259bsHnaPLkyZIlSxbjkS+H78nSpUulR48e+nM5cuRISZQokfEoEdkVBEP0cZs2bVLJkydX58+fN0bsB9LImjVrpr777judQmMugRdOKjB41BXievbsqR4+fGg8Ev5MqXNIb5wxY4ZFU+fwHi5evFh/XphTTtYKab5IVf3Udx4ptUOHDtUFSmLFiqX3aaAqJXqBmet4gT8HRV3w5yJ918XFRf99Q4YMUdevXzee9R+mxlFIzJk6x5Q4IsfCYOgTsOkdJ96tW7caI/YHVd2yZctmlipTOCGhzHWSJEl05Z8rV64Yj0Q8XHChBHr+/PnVX3/9ZYyaD06gpUuXZplVsnoIQHLnzq02bNhgjASHlgENGjRQ8eLFUx06dNATQp9q4IzjCEr547OPTe44ZqKc9+7du3WVRxwLQlPaH3/P77//rv9e/P34d5i+rwiAUqVKxUCIPghV5xo1aqTP259bdQ6TeD/88IMuMjR58mSHaFJMRNwz9EkdO3bUKR7u7u7GiH0KvFiRmjVr6r02X5JKho+RKRUu8CQko0ePtsp9Vfh3Lly4UO9fqlq1qt6/FNbUuX///VenxM2fP5855WQzsFdw1KhR+ruPfRaBF42yevVqGT9+vNy8eVM6d+4srVq1EldXV+N3vIHjYWBwolPmAoMf8fLyksBAR6fbJk+eXKcSIUUOe4XwfUM6LvYoIq3u7t27+jlp0qTRtxw5ckjZsmUlV65cIe5fwl672bNny6RJk/Tv69Kli9SqVUun3xF9TGBALt9//32oUufwOQ2aEjdixAhJnDix8SgR2TsGQx+BPOSGDRvqTf9x48Y1Ru1X9+7d9cUKgoXPsX//funZs6cOChAE4WRi7k2s5oaLrAEDBuiiGNh70Lp1688OYPDVWbZsWbATKHPKyVYg+EEQMnbsWEmbNq0OfBC0YKIAe4mCBhxnz57VhWO2bdsme/fulYwZM+ogBsEMghr8fuwV+lSQgj//+vXrbwMoFHHAn/nw4UO9V6hcuXJ6f1+KFCmM3/EG9h2tW7dOf8ew5xCTU5kzZzYeJQoZAvEpU6bI0KFDpU2bNtK3b9/39saiyA2CpkePHuliO8WKFTMeISKHgWCIQlapUiU1b9484545+CvvpW1UgRx5VJ2p59RHd668OqHG1Sqn+u58ZQy84Xf1N/VL21a6SenbW5sf1LyTYV/Of/bsmc63vnr1qjHycdhDVbt2bd0Eb+7cuTbZN8eUOodmtJ+TOoeUuMCLN+aUk01DyXeknWFv36RJk4J9h5HyGhjs6w77KAuPtDWU5L5//77xDPO5du2aPtY2adJEp8ah7D9S7N5NccK/D/9OHKcCAyOmMVGoBE2dW7Fihf5cMSWOiEwYDH0A9grFjh1b/2o2/l5qUtnYKmnypCpa1l7qwIda/Lw8qxY0zaSiOyVWLda9NAbfeLaigYoXNa5KmSmzypzZuGUtofruMk+/IBRTwMXGx6AoQKdOnfQFyfDhw9WLFy+MR2wTTowLFizQDVvbtGnz0YatOIH26NGDncfJ5nl6eqq8efOqmDFj6v5pJig4MmDAAP19wCZy7LtAYBRe8B3DvkM0h82SJYtuUPzu3+/l5aUqVKigi0DgdRCFBvrc4XOFXlsI8HG+Q3BERI6NwdAHoJgAVobMyc9zmCoSM53qOHOAKhQ9pWq18d1qN37q1u6JqmX+BCpGkmQqQZR3gyFfdaxfbhU9dz91zEKTWKgyhRWPkGBjMyo8IQjq3Lmzunv3rvGIfcBFYJcuXUKsOoeAacmSJbpKXPPmzVkljmzakSNHVOLEifXnHCu8qPaIzziOe6aLxFOnThnPjhj49+DiFUFPjhw51N69e41H3sDjv/76q34deD1EoYHA2t3dXX+esBrk5ORkPEJEjorB0AfUr19fn2jNx1cd/jmXipbue7X92QU1pkQMFb+Wh7rjbzysPVTu36VWRVpNUXtPTVLlor8bDD1SC76LoxI1/U2hrpOvr/lXJRDwxIkTJ1gqDIICnDwQCLi5udl9JaegqXOoqnXmzBmmxJHdQLW3hAkTqjVr1hgjSl28eFFVrFgxxKAjoiHoQboegrTWrVu/l6aH14HXwwqOFFoI+lH5EOe2yJEjG6NE5Ki+vP24nUO1pNKlSxv3zMBnv3gsOyfp6jSSYrHSiVvDkuL7xxxZetXfeAK4SoOFnnLAvZMUTRDCj+a1p5zwfCXOF2dK2VSxJaZzDImboZx0XXJOXhlPCauYMWNK/vz55ciRI7pAALrV586dW1dKQ/UpFAyw9yaH2FSO4hmopoXN3GhQiUa7hw4dkq+//tp4FpHtQQU4FEdAN/3vvvtOj6GAQdGiRXVBhKNHj1rdBnIUY3FzcxNPT0/dzBXHp/PnzxuPin4deD14XXh9RJ+C8xgqp5qqKBKRY2Mw9AFPnz6VePHiGffC7vm2BbLqek5xa1RAnAPf9uS1G0l5530yb95p8TOegx9HzFgxjf9+X8CjU3L6mp+88E8rrebslEMHVsmAIt7i3ryG9PjjifGssEPlPFSGQ9WnIUOG6PLTKFNauHBh4xn27+rVq7rkMLrjN2vWTNKnT89yvmTTrl27JnXr1tUlhL/99ls9tmLFCmnQoIH+tVevXroctrVCiW+USEYVSExUHT582HhE9OvB68Lrw+skCg1rr3pKROGDwdAHoAQsSriaxyPZ6LFOvF1jyu2Vg/XJfOCU06ISKjm1aLbsDeWyTuQEbjJt1x7ZvXGStCmfX3IXribd5syV/2X0kkWzf5d/jeeFFWZfX716JalSpZIDBw5I9erVHe6kcevWLV3218XFxYyfA6KIgVVe9L/q2rWrXgGCWbNm6ftbtmyRUqVK6TFb0KJFC/n111+lcuXKsmPHDmNU9OvC62nXrp1+vUSfYjqv8fNC5NgYDH0AehE8f/7cuBc2Ad5rZOHmJ5I4hbN4HTygA4wDB47J88TpxOXqcnHf+Mh45idEiSfpCn0t2YOm0Dlnl+yZosiLO7floZlW+589e6aDACKyD+gdhkaqWP2Bv//+W/dcQTponjx59JgtwQQNUp2wquXt7W2Min59aO76ub3SyLExGCJybAyGPiBhwoRy48YN415Y+Mu15Qtlu29J6bNmi56FfXvb6i4t0j2UDXNWys1QBDIvfu8uBXPWkWkXg+wz8jsn5y/5iWvqNPKVmX6aeN14/URk+9BIGY2B58yZo9PgXrx4IU2bNtXNKJH+aavQpBXNktu2bfv2YhavD68Trxevm+hTsDrEYIjIsTEY+oCKFSvKhg0bjHth4H9eFi/eL06l6kmtFO+83dGKSBO3bPJi21zxOB+0kELIoufNL6nvrJMRvabJ3/f8xP/f87KqVyeZ8k9GadqmogTvq/1lMHuM/TIFCxY0RojIlmGVBCllKDwAP/30k+TLl0/vr/kiAXdkWduCkjNvXZn2ieOWz8nxUrt8P9nlYwyInxyf3VXaBAYxCGSC3zrIlANvnxgq/fv313sb586da4yIfm1Vq1YVDw8PY4TowxgMERGDoQ+oWbOmrFmzxrj35fyOLZKlR2NIuXo1JPF773YUydWovhSQw7Jg3iFj7MMiJ2kgk+f3kAx/95QiSWNKjPhZpf7811Jr+goZUuLDhRc+x2+//aYrqFnzRmoiCj0cx0yBz4MHD3TggFWhLxVwbbnMXHpTHt1ZL1PmHJLXxvi7Xp3zkLZ1f5K1p2/K07fXmv5y//xB2bd3r+wNctu1cWngv2uNHLn/eRelzs7Oev/Q4MGDg13Q1qlTxyzHb7J/DIaIiMHQBxQpUkTu3Lkjly5dMka+TJQCQ+Xk60eyumnCEN9spyy9Zf+r1+I5sogx8kbkpJ3kz5feMqdadGMEIkvSSsNk++Wbcu7ANtm256RcvX5UZjfPJkGfFRYIhkwld4nItiFVDCWETUUT1q5dK998843Ejx9f3/98/nJ+yWI5mLCmDGibW7yWuMufz4yHTPxvy55JraR48Xay5VksCV56JZqUH3VQPM+dk3PGzXP/FKnyVWRJ13y6DK/y+UcyrGJj8gbtAEzwek+fPq2P4UQfw2CIiBgMfYCTk5PUrl1bZsyYYYxYEecEkqlgCSlRJIckM8+CkHb27Fl9QYEUQSKyfevWrdPfZ1SIBJTQxqrJF/M7LouWHpMkletIw8ZuUvD+Gpn9210JtuXx6SYZN85T8gzcKlt755GPF6R/KL//2E5mvGwgE8fUlCRfcEbCxSxeE16bCSpAotw2Xj/RxzAYIiIGQx+BEtho5hd0xtFe+fv7S6tWrWTQoEG6kh4R2b4TJ068bRTs6+urm5IiDfZL+ez3kGXn0kmdRsUkVjo3aVjSV/6Ys1SC945uIAs9D4h7p6ISUu/ooF7sHS69FvpI7eGD5NswtHVDw9XNmzcb997A6z5+/LhxjyhkDIaIiMHQRyROnFjGjBmjgwRcSNizadOm6dWwjh07GiNEZOvQPBrNSk3/HSNGjDCUzX8u2xaskus53aRRAefAs0dyqd2ovDjvmyfzTv/XOloix5SP9I7+T8A18RjmLlfzd5Z+tRKH6WSULFkyvR8qKLxuNI8m+hgGQ0TEYOgTGjduLEmTJpURI0YYI/bHy8tLrwi5u7tL5Mj8SBDZC0ziRInyJlHt9evXuuDAF3u0UTzWeYtrzNuycvAAGTBgoEw5rSShOiWLZu+VUPaOfsvvzDyZtT2KVO7USrI4GYNfCK8LjbKDwj4ie5/EorBjMEREvPL9BBwoZ86c+fZmb1BGu0KFCvLLL79I5syZjVEisgexY8fWTZRN/43VoS+78AsQ7zULZfOTxJLC2UsO6sbRgbdjzyVxOhe5utxdQts7+g0/ObPyNzkVr7I0qpbAGPtyeF1x4sQx7r2BVSG8ZqKPYTBERAyGQiFlypSyY8cOGTZsmEyaNMkYtX0XL16UkiVLSpcuXaRTp07GKBHZC6xqY+UXsBcQqb+oLvfZ/K/J8oXbxbdkH1kTtHF04G2rewtJ93CDzFl5M3ghhY/xvy7bdnpKjGIVpfSXZu0FcfDgQcmePbtx7w28brx+oo9hMEREDIZCKUOGDLJr1y4dDI0cOdIYtV2enp5SunRp6du3r/zvf/8zRonInqBYAsppAy763q26Flr+5xfL4v1OUqpeLXm/d3QTccv2QrbN9ZBQ9I5+w+eoHD6lJFvBAmKGWEi/pnebyOJ1h6VYBDkGBkNExGDoM6ROnVp2796tK8w1bNhQ7t27ZzxiO3DQnzNnjg6Ehg8fLm3atDEeISJ7kz9/fp0mh34+YAqGPu/iz0+OLVoqR2OUk3o1Qih0ECWXNKpfQOTwApl36EMtWIMLuHtVbjyPISnTppAwbhfSKXKokle9enVjRPTrxXiBAoH/LqKPYDBERAyGPhOqFh06dEinX+TMmVOWLl1qMwdSpI2g4SIqx23dulWaNGliPEJE9ggFUdBEec2aNfp+oUKF9MWf6X7oRJECQ0/K60erpWnCkE4ZTpKl93559dpTRhYJWqAhsiTt9Ke89J4jwXpHB4qcprvs9nksy9zC3iht3LhxuqeQqWoemJpHsyAMfQqDISLimeILxIwZU8aOHavTMIYMGaJ7XKAQgbVCFamJEyfqTu0oloD8+ty5cxuPEpE9q1+/vi7+8vz5c33hh5VhlNC/c+eO8QzbdfjwYZk+fbpMmDDBGBH9OvF68brJwficlPG1y0u/XcErC34MgyEiYjAUBoULF5ajR4/qVJS8efPqk+9ff/1lPBrx7t+/r4s+pE2bVjZt2iT79++XXr16vS21S+YX8OSKHNu/T45deSKh3T5BZEnFixfXN+wPhKJFi0qLFi2kXbt2Nn0R+PLlS2natKme6MGKvUm/fv10w9USJUoYI+QQXp0Tj7Z15ae1p+Xm09B/rhkMERGDoTBCf4sBAwbIlStXpEiRItKgQQN9sbF8+XLx8wvSiDAcnT17Vl/oZMyYUS5duiS///67/PHHH5IpUybjGWRWT+ZJjTiZpclPrSV/moxSqFQpyZ8+teRtt0KuMSIiKzB+/Hid0otVYUAp/Rs3bkj37t0lICDUNeCsxosXL3TBhHz58gVbAcLrW7JkSbCVIrJ3/nJ7zyRpFRjwt9vyTGJFMoZDicEQETEYMhP0uOjatatcuHBBr75MmTJFl7F1c3OT2bNny/Xr141nmh9mSBHs/PDDD5IjRw4pU6aMnik9f/68/rtz5cplPJMsQ0nA64uybPkTafP7DXn+8o7sH5RPrs8dIFMPh25DOZElffXVV3oFpVWrVjqNLFq0aHrfIPY/NmvWzKaakz569Ein+yZIkEDmzp1rjL4JkPD6EAjh9ZKjeCqbxo0TzzwDAz/TvSXPZyY+MBgiIgZDZubk5CQ1a9bUVefQz6Ny5cqybds2PYOZNWtW3dMHJ3CU6UaA9Lmzsk+ePJFjx47JqlWrdDU4FERIlCiR3rsUL148vR/g5s2berUK4xRenKRAm6HSrkhicY6SQAq1cZOCka/LZa+IWR0kehdWUrBqXalSJd2QFMcL9Al6/Pix3vf48OFD45nWC0Vg0BsNq/A4jkaNGlWP4/WgiALGMQFFjsRVGiz0lAPunaRogs+/pGEwREQMhiwIqzPNmzeXxYsX683KCxcu1FXo0MD1559/1nuOUIwhS5YsOmhCdTfMbLZv315vcEbZa8za4iIGxQ8wE5o8eXI95uHhofcE4XkIfvbs2aP3BKBaFAIyCm9RJUnK/8oER3aJJTEj+Ys/YyGyErjoQ2EBNCfFygpWWHD8Wb16tU6hxTiOUdZ4YYgiMJj8wXEQx8UxY8a8rRSHYA6vB//+WbNm6ddJjiSyxIz15VUJGQwREYOhcIITNwot9O7dW/cp2rt3r9y6dUvPxuJipEOHDvqEjo2/qPSGEztO/Eh5Q2+QyZMn671AmAE9efKkLh2LinYoH4sUPYpgkSJL5PeuwVTg/4isB45DKK2P40zZsmV1rzSsriC1DNUxcUwpV67c275E1gCr7Hny5NHHTKT1de7c+W3AgwkhvA68HrwultKmz8VgiIh45ohgmJnNli2bVKtWTVdGwsoQAqNOnTpJ27Zt9cpSvXr1dPoH0t4460lEYYFjCIIeNClFFUwEQYBVZQQbGC9WrJieaMG+ooi4UMRKEAo+oCJc48aNZfDgwbJhwwZdGdME/24ESVWrVtWvh8dG+hIMhoiIwRARkYPBBeDAgQN1Cm/Pnj11Rba7d+/qsvsoBIO+aUjd7dGjh07jRfEFpONaEi5IUfSlf//+kjp1ap3Sh38LKmLWrl37bbCDfyf+vfi3LVq0SAYNGsRAiL4YgyEiYjBEROSgUIzgxIkTOvjImTOnLkqAynIuLi56Zfr48eO6IiVWjJC+i8AIq9ZI7TVHwQUEWEgbxj7IlClTSvny5fVeJhSd2b59uw6CTEUS8O+aN2+e/nfi34t04VKlSunHiL4UgyEiihR4EOBRgOgdaFCLmWf8itnpNGnS6F+J7NXhw4f1Zx4rMd9//70uVBA/fnzjUdGVLxE4IVDBDXt4XF1d9XcD6Wv4FTek86L/GoIYnF4QxPj4+Mjt27d1NTj0ZDP9ij8T+yKxTwm3DBkyvLfKg6ALhRHQriB9+vS6eEKBAgWMR4n+E3B7qnyTbrCkWn5F5lSLboy+r1atWjr9Er+iqNGRI0eCNe4lIsfCYIgoBAyGyFGhdD8KKqxbt06noyEwwr7Gd4MUNJVGERhTYGMKclDUAAEQ9v3g95gCI1x0vhs4oRfbh4oeeHp66gAITVSxjwltCdCigCisggZDCIKw8olKrUTkmBgMEYWAwRA5Om9vb12hDWlyaNJasWJF3dcM1duwImRu6KGGtgNoII3+R2gmjYIyaB+AQIrIXIIGQylSpJCDBw/qX4nIMXHPEBERvSdJkiS6OMGNGzd05TaksE2fPl1fNBYvXlx69eolv/76q644h9Q6rAaFBp6H5+P34ffjz0HVOPy5CL7w96B1APYToYocAyGyJKxefm7zcyKyL1wZIgoBV4aIQoYVG/T+wT4LpMVdvnxZ35Ayh5Qj3KJHj67T41CdDul0SJnDviEEOHgeApx06dK9vaEHG4o5xIgRw/hbiCwn6MpQqlSpdNNyFOUgIsfEYIgoBAyGiD4PVnyuXbumgx0EP7g9e/ZMl8jGviMUY0AQhItPBEpEESVoMIQgaNeuXfoYT0SOiWlyREQUZiiSgGpvSHlDZbgKFSqIh4eHDoBQAAHjSIFjIETWhKW1iYjBEBERmRUuLtu3b69Xh1CA4d1KdETWgsEQETEYIiIisxowYIDuSbRy5cq3TVOJrBGDISJiMERERGaDinPoDbRx40ZxcXExRomsE4MhImIwREREZrF69WpdDhu9ghIlSmSMElkvBkNExGCIiIjCDOW2sU9ow4YNulw2kS1gMEREDIaIiChMTp06JXXr1pXFixdLvnz5jFEi68dgiIjYZ4goBOwzRBQ66C1UrFgxGTVqlDRo0MAYJXuEy4Xbt2/bfPDQrl07cXNz0yXgUfJ97ty5uuy7LUL/LjYrJgobBkNEIQgaDPXr10/3T2nevLnxKBHBgwcPpHjx4tK2bVvp1q2bMUr2CnvCateuLcmSJTNGbFNAQIBeEcLt3r17OqBwcnIyHrUdaHBcuXJlXayEiL4cgyEKF5hN3Lt3r3HP+t24cUPWrVsnHTt21LOguEWObF9ZpeXLl5d48eIZ94g+z4sXL/RnCKtCo0ePNkbJns2aNUsOHTokM2fONEZsHwIjWz2279y5U3755Rf9KxF9OQZDFC5atWol69evl1KlShkjFJE2b94snTt3lqFDhxojRKHn5+cntWrVEldXV5k/f77dTRRQyOwxGLJlDIaIzIPBEIWLli1b6nQa/EoRb8SIEfL48WP9K9HnwCkDaXHYK4QJDmdnZ+MRsncMhqwLgyEi8+B0HhERhRouvo4dOyYrV65kIERERDaPwRAREYXKjBkzZNGiRXrDduzYsY1RIiIi28VgiIiIPgmVxAYNGiR//PGHJE6c2BglIiKybQyGiIgoGFR/bN26tS4v//TpU9mzZ4/uzYI9QigzT0REZC8YDBERkebr6yvjx4+XnDlziouLi9y/f18HP1WqVNHpcfnz5zeeSUREZB8YDBERkezevVvy5csnmzZtkn379smECRNk3rx5ukM/mlKiDPvp06eNZxMREdkHBkNERA4MKXGNGzfWtwEDBsiWLVskc+bMxqNv9gpdunRJ6tWrJ2XKlJHu3bvr1DkiIiJ7wGCIiMgBoXEqVn+QEpcyZUrx9PSUOnXqSKRIkYxn/MfJyUk6duwoZ86c0f2psmbNKosXL9Y9h4iIiGwZgyEiIgeDlLi8efPqEtl79+6V4cOH6z1Cn5IoUSKZM2eO7jE0evRovVLE1DkiIrJlDIaIiBwEUuKaNGkijRo1kv79++uUuCxZshiPhl7RokXl8OHDUrduXR0Q/fDDD0ydIyIim8RgiIjIzgVNiUuePLmcPXtWBzIhpcSFFlLnOnXqpFPnHj16xNQ5IiKySQyGiIjs2LspcSNGjAhVSlxomVLnVqxY8TZ1DgESERGRLWAwRERkh7y9vc2SEhdaX3/99dvUudKlS9tl6lzAkytybP8+OXblifgbY0REZNsYDBERBbKXC92gKXHJkiUzS0pcaAVNnXv48KFOnVuyZIltp849mSc14mSWJj+1lvxpMkqhUqUkf/rUkrfdCrnGiIiIyOYxGCIix2VnF7p79uzRjVM3bNig0+NGjhxp1pS40ELq3Ny5c3Xq3KhRo2w8dU5JwOuLsmz5E2nz+w15/vKO7B+UT67PHSBTD782nkNERLaKwRAROTD7uNA1pcQ1bNhQ+vbtK1u3btWrMhENqXOHDh3S/YuQOtejRw/5999/jUdtiZMUaDNU2hVJLM5REkihNm5SMPJ1uezlZzxORES2isEQETk4273QRUrcxIkTJUeOHG9T4tzc3MIlJS60okSJIt9//73uR/TgwQO9b8n2UueiSpKUKQI/KW9EdoklMSP5iz9jISIim8dgiIgcnG1e6JpS4tatW6f/O6JS4kIrceLEOnVu+fLl+t9atmxZ20mdixRZIr8XX6rA/xERka1jMEREjs3GLnSREte0aVNp0KCBTon7888/rSIlLrSKFSumq87Vrl3bxlPniIjIHjAYIiKyAaaUOFSJS5IkiVWmxIVW0NS5+/fv62Bu6dKlbNhKREThjsEQEZGVQ7PU/Pnz65Q4VIlDhbbYsWMbj9oupM7NmzdPli1bppvBlitXTjw9PY1HiYiILI/BEBGRlbpz5440a9ZM6tevLz/99JPNpcSFlil1rmbNmlKqVCnp2bOn9aTOubaQ9S//lZUNYhoDgWI2kd9evpQ1jYOMERGRTWIwRESOy0ovdJESN2nSJF0lDqsnSImrV6+eTabEhRZS5/73v//p1Ll79+4xdY6IiMIFgyEiIitiSon77bffZNeuXXaTEhdaptQ5BELDhw9n6hx9Nv9zU6R2nhx6MuH9W04p0mOz8cxAry7JuiEtpNLXBaRA8SrScvBqOffceIyIHAKDISIiK/BuSty2bdskW7ZsxqNm5n9OptTOE+wiMWfOXJI7fxEp+10bGbb2orwwnqpFwAVj8eLF5ciRI/Ldd99ZX+ocWTX16q5c8rwmcct1ki5durx361A585snBnjLynblxG3CKUlYvqE0qphcLk5vIGWazJUr/m+eQkT2j8EQURCfNaP4VoDc/n24fN9vuVziCZQ+E1LiJk+erD9jiRIlCp+UOPVK7l7ylGtxy0kn4wKxc+f/SYcm30qGJ5tlYN2K0nndg8BPdqAIvGBE6lznzp3l1KlTcvfuXZ06h2ILTJ2jT3OWdGVaSJs2bd65tZZmZdPqZ/hfXCATlr+QahM3ybxB3aVbv5mydnxN8d3kLsu9eDAnchQMhoiCCPWMYhB+/8ySNs37yq/L/xJvnj/pM5hS4tasWaNT4kaPHh2uKXHO6cpIiyAXiu27/iIzf18i36e/LstmrZNHgc+xhgtGlBKfP3++Tp0bNmyYlC9fnqlzFGZO6TvKssM7ZVzNRMbFUID4vX4tAU7RJLqz/e7PI6LgGAwRvefTM4pvvToiI1v2k0OR4ghPnRRaSIlr3ry5Tonr06ePZVPiPpdzSkmZOJL4PH4oTwNjHWu6YDSlztWoUUOnzvXq1Yupc/QBAfL8/hW5fPly8JvXNXnwyniKk4skz55NUsb0lys758q4HxtIhR/2SbYf+kuTVLw8InIU/LYTfbHHsv2nljI5cmcZ1yKNOBmjRB8SNCUuYcKEOiUOAZH1VIl7IZdWDxP3v5Rk/LqYJMeH2souGIOmziGoRBDJ1Dl63yNZ3SarpE+fPvgtY3Hpu9fHeI7JEzmydrFs2HtSbvtGl6hP7siD18ZDRGT3IgWeQHgGIYtr2bKlntXFr9bM73h/KVBoiqSftl9Gl3U2Rg2Roohr0lSSIDruBMjtVS2keJdH0nvXcim04GspsrSM/HlqrBR757dZI6QaeXl5Sffu3Y0RsrTz58/LL7/8IvHixZMpU6ZI9uzZjUcigN9x6V+gkAy7GFeSxotmDCrxe/ZA7j11ktRVf5GFC3pIUVfjIe2hrOpWT6b+fUPOeL6QbE1HyazR9SRDBH/e9+zZI506ddLBZY8ePSRNmjTGI2RuK1askCtXrsicOXOMEev05jg+VbLMOSmTK77zAY0cRWK4xhOXKMb9YALk3o4f5duqv4rr8GOytXN6q57k2rlzpz6m4Fci+nIMhihc2FYwNFhO+BoDQTmllPabL8j08tHE7+IsqVV6pMSfuEfm1E4opwYUsqlgqHfv3jJ79mz56quvjBGytEuXLomvr69cvXpVUqVKZYxGECMYmhi/h8zokFei+D2Rsxsmy/jVT6XMhPWypF0OMYVI77O+C8bjx49L3rx5xdXVVZImTWqMkrk9fvxYMmXKpPe3WbM3x/Fpkmv5DVnwnZ69+jB/f/F3cvrvM+x/SUaXyiaDk84X7xX1xZrb6jIYIjITBENEltaiRQsVePFt3LNevsf6qdxR46t6HjfU3bt3g9/uP1T/+gY+6eVRNaxEYpWr23b16M3vUsf751XRM3VXe330gNUbPny4+vHHH417FB5evHihBgwYoBIkSKDffx+fCPyw+B5T/XJHVQmarFEvjSHlf1dt7pxDxXDJq37Yel/5G8Oan5/yM/5T87uoRhVzVrHrLFHPjaGI8OTJE9WtWzcVGNSrqVOnBv4zg/0rycxmzpyp2rRpY9yzXm+O4wlUkzVvP90hermhvUobJ78acAIHdoPPPtUjS1SVvPUm9coYslY7duxQpUqVMu4R0ZfiyhCFC9taGfr4jOJHV48ixZa6S7xleT1rnk8UGTFihFy7dk1X6aLwky5dOilatKje84KVIuwfqlChgvFoODJWhqblWi43Fnwnbz/prw7L4DJlZOCVCuJ+cIU0T+0krzZ2kGwND0nTPQfll1xGbtHr/dIzd2lZUnytXJpV6SOrSJaB09bixYt176FKlSrp5qwoS06WNWvWLDl06JAEBkXGiHV6c4yeLKlGbZL+xaMao/+JFD2R5M+RSgLurZAmeRrK1uyDZLVHTyka86Ks6dtU2vz6r7T447CMKxXL+B3WiStDRObBAgpEnylysorSbfgoGTXKdBspPb5NIVETlZHOw4dI49w2kCdnwIZ+3sLvhjQ5bOLesGGD/uy0bdtW6tatK9evXzd+IhEsegHpNf1HKfhsnfTu6iFX/UWcC5WVoi4nZFqP0bL3jp/4/3tOVvbsKu5e6cWtcclwD4ROnz4tpUuXljFjxsiqVat0uicDIXrfY1nf7WspWLDge7fC1UbqZ0ROWFsmLOwn+c4PlpLJY0qM+NmkwSJ/qTV9pQyx8kCIiMyHK0MULmxrZejTM4rB+ckJG9szhJUh5P/jV4o4L1++1D8DFFRAmehu3bqJs3M4fIA+tDKk+ciRQaWk1KArUsH9L1nZPKU83DFEmjQfIVtu+kmUSH6iXPNK09ELZHKL7OG2p+Lp06d6FtzDw0P/2r59e3FyYg3H8GQrK0Of7fUDuXjCU277J5CMebJJkk9sM7IWXBkiMg+uDBG959MzikTmECNGDBk4cKD8/fffsnv3bsmVK5f8+eefxqMWFCWPDDr+Wu6/FwhBNMnf/6A88/OWNc1Ti1PgaSJhmf6y+cJ1+efANtm257Rcv3FEZodTIIT5ukWLFknWrFl1AH/mzBldPY6BEJmNcwLJULCElChiO4EQEZkPgyGiIKLkGSTHXyt9ARbSzc9rqvHMoKJI7oFH5eV521gVIusTNHUODX7d3Nzkxo0bxqNWIgIuGIOmxK1cuVKXdGZKHBERmRODISIiK4DGq9WrV9crH1myZJE8ef7f3n2AR1F1YQA+P8XQFBQQQhMQkd6r9CKIIIgJNSDd0IsoCFIEBESaFAUREoWEFgQBAakqVXqVjnQIQYo0CSS5f77rLAQMkjKb7Mx+7/OsuLMLySa7c+fce+45xWTUqFFy7577dX9ESlzv3r2lWrVqOjDcsWOHLjxBRERkNgZDREQuJFWqVDJ06FD57bffdD+XokWLytq1a41H7Q2rr3PmzNEpcVevXtUrQ0yJIyIiZ2IwRETkgvLkySMTJ06UXLlySdeuXW0fECEQmjt3rnzwwQdSq1YtXVgiU6ZMxqPkCvA7IiKyGwZD5HTop4IN4hxIiWIHAdGyZct0YNCuXTtp0qSJ6+0lMgFSA5EShz1TQUFB4u/vz0CIiIgSBIMhchr0VcHFTdmyZXXVLCKKPewlatCggRw8eFBeffVVvZcInys77CVy7A1CkQRvb29dtvm1114zHiUiInI+BkPkFNjwjFLUq1ev1qtChQsX1hd1RBQ3UfcSoa8I9hIlSBluJ8Aq8ezZsx/sDcLKEFIBkyVLZjyDiIgoYTAYIlPdvn1b3n//falbt67+c9WqVZI7d27jUSKKr6ipc+3bt7dc6pwjJW706NEPUuJYLpuIiBILgyEyzU8//SSFChWSy5cv6ypQLVu25GoQkRNYMXWOKXFEROSKGAxRvIWEhIiPj4906tRJpk6dKrNmzZKMGTMajxKRs1ghdY4pcURE5MoYDFGc4SLnu+++0/uBPD099WpQ7dq1jUeJKKFETZ3r0KGDblTqCqlzTIkjIiJXx2CI4gTlstELZMKECbJ8+XIZM2aMpE6d2niUiBKaI3UOAUi+fPn0KlFipc4xJY6IiKyCwRDFStRy2QiGUCmuZMmSxqNElNgcqXNbt25N8NQ5psQRJY5NmzZJqVKlZP/+/cYRIoopBkMUY4+Xy/7www95kUPkohI6dY4pcUSJByuv2LdbvXp1GTlypJ64JKKYYTBkA3///beuKoVqbosWLZJ58+ZJQECAnqFdsGCBLF68WDZs2CDnz5+XiIgI42/FXNRy2b169WK5bCKLeDx1DlXnRo0aZWrqHFPiiBIfPuvt2rXTk5Zr166VChUqyOHDh41Hiei/MBiykLt37+qTHFJgWrVqJRUrVpQsWbLI888/Lw0bNpRx48bJzJkz5fvvv5cVK1bI0qVLZe7cuTJ9+nTp27evTmfDvp4CBQpIvXr1pHv37rr6G/b/PMnj5bLfffddlssmspioVefWr18vRYoUiXfqHFPiiFzPSy+9pCcsHdcIuC4IDw83HiWi6PwvckBTxv+Ti8Gv5tChQ/rEhtvGjRulYMGCegY2b9688vLLL+sVGgRESZLELK7FKs/Jkyfljz/+0Lfdu3frtLeUKVPqPUCoBodUF5w8u3XrJps3b9YBU3yrxLVt21afmPEnJT6kTl2/fl3/Se4F5xVMlPTo0UOnveJiKVu2bMajMYPAp0uXLvLXX3/Jl19+yZUgNzFt2jS98oA/KfFhT+Ann3yi/4wOJjrbtGmjP/PffvutvmYgon/jypALwkXq2LFj9YmrTp06OgUOy9+nT5+WLVu26HxgnOAqV66sL2JiGggBVoaw0lO/fn3p2bOnLo2N9LkffvhB7zGYMmWK/jfffvtt/e9iMybLZRPZB1Z28fmPS+pc1JS4Ro0a6QtjBkJErgnXEAiU3nnnHV30CBMXcUmVJ7I7BkMu5Pjx4zp1Das9u3bt0nt/Tp06pWfhvLy8dDqcM+DiCL2CcJGzcuVKCQ4O1k1UcaGD1RzMKIWGhhrPJiI7iE3qHGaWH0+Jw8pQ0qRJjWcQkSvCpCb2+iKzZNasWfL666/riVUieojBkAvAiQkzN+XLl5c0adLo1ZjAwECdwvKk/Tk3b96UnTt36hWdSZMmSZ8+faRZs2ZSpUoVPQNUokQJfXGDP8uUKaNXkZo2baorwE2cOFEXWkCwgzSXx2H1yNfXV1/wII0K+46Qh4y/x9xjInvBivCPP/6oS+ZHV3UO5wFWiSOyNqwCIyBCMIQS3NhLzF0SRP/gnqFEhOXqr776Suf8YuYGN8zWRufixYv6RIaqcPjz6NGjegk8R44ckj179ge3rFmz6v0/yZMn1xuZUV4TN1ScQzrc2bNnH7kdO3ZMXwxVqlRJrwLhhn/jcQjQMBOMf2vGjBl6hjg2uGfItXDPEEUH5wm8J5BOgz2D165d0xMzOEd17NiRK0FujnuGXMvT9gw9iaMYUubMmeWbb76JdswncicMhhLJkSNH9D4g/PgRXGDW5nGYncWyNm6XLl3SpTIRUCBwwYqPh4eH8cy4wz4BpOQhwHLc0qdPLy1bttQnSwRbDgjeUExh0KBBOnDDahSCrphgMORaGAzRf0HKLipQpkuXTu9R5EoQAYMh1xLXYAju378vI0aM0BMf2KPcokULVoolt8U0uUSA3j8IDJC2hpWeqIEQghPsFXrjjTd0mhv2DGE5G6WtlyxZogMQpNOZEQjBM888I+XKlZMPPvhAp9yFhITo8twXLlyQ4sWL6yV17BVAWW/kHnfu3FkHT+h2jaAM+weIyF6wWowS/ZioYSBEZD+YyBw8eLBun4EUWbTnwKQrkTtiMJTAsMqDIgnoF4SeHI5KcFghQj4+0s++/vprvSqDlSH8P6o1xaZiXHzg62DPEdL3kFbXvn17XUABAducOXP094nVInS2xz4k7CVAAEVERETWgiwTrPah/2DRokVl/vz5xiNE7oPBUAJCakG/fv10IIRVHwdUc8JKEZas8Zx169ZJ8+bNn7h/KKGkSJFCmjRponscoQQ3ltKxioRUOiynoxwvSnCjaAMCJyIiIrIWZJrg+mPx4sU6DR7j/p9//mk8SmR/DIYSCIIcnGyQ2+soPoDKbEh78/b21lWcMDtTo0YN/ZirQcCzbds2vakagRoaNuL7HzJkiO50jVUirhARERFZE7JC0IgdvQYxYYvgiMgdsIBCAkDFNuzzwQoQcvEBJa0RVKB6E9LjULTAKlBhCvud8NbB/ib0P8KeI6T1oQx3dOxUQAGNJ5999llLbzZlAQUiiq2AgABdXAelmeMKhXgwVmTIkCHRsx+sDlVlS5YsqbNJzIb9zGjujjT9CRMmOK3PIZErYDDkZDjxV69eXaeT9ezZUx9DX6E6dero4+PHj49xRTZXghLb6FmEvUMrVqyQLFmy6JmkMWPGSIMGDYxnPYSTKlLs7BAMoagEVsQwSFgVgqBbt27pVEciopjAeIYCOnG9bEB/PGRDoJ/esGHDdCo2xQ+atDtrMhVjBKpKongTSnCjsBORHTEYcjKUosZ+G+yzQY8OVGXDRTRWVjAoWB1mjHCS3Lp1q24Ci9Uu9DBASd6oMPAhFxm9j6wMHxekB+J3aeWVIQSzKM7x3nvvGUeIiJwHfe3efPNNqVq1qnzxxReW7FmFnlsnT56UAQMGGEfcA/Y5oxUIJgKxd/i5554zHiGyBwZDToRZlZdeekkvN6NSC6BxIdLMkE4W14vpiJAg6dJghGzP6SuzAzpK3ieOKaGyf2JL+eBKV1k6pLI8YxwVuSNHFn8hY/3XyL7ztyVFliJSq11feb9+HontPB3ePtgzhNeCqnOdOnXSKWToVm9HwcHBUqhQIV3q3BWCoTt37khoaChTGIjIZe3bt0/q1q2r95r27t3bshNJKCbk2PvrbpAejt/d6tWrxc/PT2e2ENkFCyg4Eer3I7faEQhhfw1ye7GSEvfBIELOBk2T2acuy/lFk8Vvxz3j+OPuyuFZ74l334Wy9+xfkX/LIVxOfdtCqjUaJ7tSlxevFo2kwrO7ZZx3VWkx83Tko7GD1zFlyhRd/AH9iVAuHKU57Rpj//777/r36SqD+cqVK3VxC+xBIyJyNVhVqFmzpp4gw95SqwZCgPEcGRDIDnA3WA3CtQvGe7T+wFh/+/Zt41Eia2Mw5ERoYopGZg7Yp4H+PfFaYg4/KnMCN0v6hoPEt+gJmT19rdwyHnIIv7hBJrarKBV9V8nN1I8NPGEHxH/iMpHGU2Vl4HD5sMcHMnzmSvnKK0yWTg6QI3E4x6dOnVqnXOH1IVBAI9c9e/YYj9oLgqGCBQsa9xIf9qKhkh8qEqKjOBGRq0DBBaROo0gQUsOt7oUXXhBPT085dOiQccT9YL/z/v379QQc+hJhCwCR1TEYcpJ79+7J8uXLpX79+vo+0gSuXLkS76XlsH2BMndXZqnbyEdaNC4tVxbNkMWXH677wI3lY2XM/iIyaOUq6VfssT06SV6UOn0myLhuNeXBlsskz0oWz7Tyv9s35WYcJ7wqVKig96Fg1gwX6IsWLTIesZeDBw+6VDCEWVbs20qZMqXe/8OsVyJKbDgPjRw5Uj7++GOdDYHVa7soU6aMbjPhzpCWjQbyKJjUqFEjnT6HyrhEVsVgyElQRvvll1/WVdYAKWQtWrSQJEni8yMPlS0z58nh3N7iUyG15G7cXCrdWyl+c888kt6WtlmgHN7mJ90rZPj3LziJp5Rr2lGaln1Y4CDi/Pcyef5J8axcUwo/3FgUK7goR8lVFItAAIgKc3bkSJNzJdiIPGfOHP29DR061DhKRJTwMCnWuXNnnRa+ZcsWl5o8MkPp0qXdPhhywMQnVolQHKNEiRL8uZBlMRhyEjQgzZEjh3FPdLW1WrVqGffi6PZambngjBRq7COlIoOWJFm9xKdmctn07bdyIMx4TqQkqVJLTLs3RAT/JH0adpbFqd+V8YOrx/jvRQevD0Fg9uzZbdmAFbOdrpYm54BUxaVLl+qgG4UsiIgSGvaQvPPOO3L8+HFZv379g8lAO8HK0Pbt2417hH5R2Cf8ySefyFtvvaVXA1HUh8hKGAw5CSrJoZeCA/Jr41vx69ryAFkcnFZSXVwgwwYPlsFDJssBlVEi9gXKjI13jWfF3K1906VlFS+ZerOBTF/2lbydOX5vB7w+vE68bvSTsJtLly7plb0XX3zROOJaMmXKpFMzP/roI13xh4gooWACDGngGAfQf86u5ZeLFSum9wwxLexRTZo0kb179+rWGlg92717t/EIketjMOQkKCKAfUMOj9+PtYhg+SFghVzP6CnJjm3U5bpx2/5XesmZ5pQEzVgm142nPl2EBK/uJ7WqdZZ1WT+QxT/7iU+eOObHRYHX5+Hh8eBPu3G1SnLRefXVV2XBggXi4+Oj96kRETnbsWPHdP88ZAdgZRrjnV1hf2b+/PltWyQoPjJnzqwLR6FqYO3atXVzchb2IStgMOQkmBW7fv1heIIKNCdOnDDuxV7EmSAJWHtfKvdfLGvWrdObUv+5/SwzWueSK0v9JOjCo4UUnuT2b0Pl7UaT5Hp9f/ll+RCpEc8VIQe8PrxOvG70GrIbVyue8CQVK1aUyZMnS7169eTcuXPGUSIi8yE1GhUt0UQczbWtXDo7plhE4cnw+0fp7V27duk9Y+XKldMTiUSujMGQk2AzIfYJOVaDvLy89Cb3uAmXI7MDZVPSKtLEK/tjvzQPKd+iieS/s078Zx19ep+gsD0yuuso2ZGqvNQpGCLLp4yX8eP/uU2YsU7OxKN9Al4fSjwjVxzL5HbjqvuFotO4cWPp3r277vjOHkRE5AyLFy/W+0SmT5+uq1m6CwZDT5ctWzZdSAmN5qtWrSqjRo1yy/5MZBGKnKZcuXJq5cqV+v9v3Lih0qZNq0JCQvT9WLm/XfUvnFyle/s7dSncOBZV2CE1sryHSp6/j9oSahyD8Atqco0UKlObJepv49D9HR+rwskF9Zf/dUuavaNafdd4Yixdu3ZNv76rV6+qWrVqqaCgIOMR+6hYsaJau3atcc/1RUREqC5duqiaNWuq0NCobwwiovj58ssvlaenp9q+fbtxxH0cOHBA5cmTx7hHT3Py5ElVrVo1fU10+PBh4yiR6/gf/hN5IUxOgJmQ06dP60argKVjVFobPny4vm8nn376qd6jMm3aNF1F78KFC48UkLA6fEzSp0+vN86iUIFVYCYOjX/RLNDf398tUliIyHkiIiKkf//+upccZv5z585tPOI+cF5FoYhTp07pcys9Hd43uBZC1bkBAwbozIX4tRohMg/fiU6Ei1BsJnSUmURwhAvSNWvW6Pt2gbQ47FEZO3asTptAgz07BULg6pXknsTRgwj7nbCZlYgorjCWoZ8czvmbNm1yy0AIcF4tWbIkS2zHAsbPrl276j1mKPKD1Ln47KMmMhODISfKmzevzi0eMWKEvo/iAoGBgXowwcqJHSBIaN68ua4ghKIJ6DGASjJ2Y4VKck8StQcRgnEiothCYZw6deroktJr167V/WXcGfcNxU2ePHnk119/lQYNGkjZsmVlypQpOvOCKDExGHIyLAvjw+4oc1ytWjXp1q2bLkF68uRJfcyqzpw5o8tntm3bVt544w358MMP9WZarAzZjVUqyT0JUvuQ0tKvXz9ZtWqVcZSI6OnOnj0rlSpVkkKFCklQUJAuL+3u2Hw17rCy1rt3b90eBBN0uB7C9QRRYmEw5GTowD1y5Ehp166dhIWF6WO4IPX19dV9GTBDYkWbN2/WJTOxyoX0K8wUrly5UqcC2pGVKsk9iaMHUYsWLXRzPCKip8FEHsaq1q1by4QJE/SFLD1cGeKqRtyhXxOuJTBJjLRDPz8//jwpUTAYSgBYOUmXLp306tVLf9CRaoXVIaQtoQTyxIkTHwRKrg4bR7HS9fbbb+tyqpjd+eOPP6RNmzYydepU23Ydd6TJWR17EBFRTGGSq2bNmjJ69Gh9rmcBlodQOhqwakZxlyxZMl2QA++1SZMm6bHJLtsIyDoYDCUADCBILdixY4euuY+qKvD666/rZeKFCxdKsWLF5KefftLHXRUKP6B/EvY9YUULPWxQXQ0bIbFXCPftCAGsHVaGHBCA9+jRgz2IiOiJAgIC9H5QjF1NmzY1jpIDxnXuGzJPkSJFdG/GUqVK6eshXGdwlYgSCktrJ6CbN2/qPTUoPY3lYMyIAH4FS5Ys0R28c+bMqUtvY8nYVWbhdu/erUthHjlyRKfBvfPOO/p7Q6oVNtR+9tlnumy4XQUHB+tc+cuXL9tmZhTvOaxO4ne6bNkyeeaZZ4xHiMid4dyAczpW+pcvX26bSSBnQEuJGzduyOeff24cITPs3LlTWrVqpYtQ4X1otSquZD1cGUpAqLaGwQUV2Ly9veXPP//Ux3GBjcoqBw4c0MFSo0aN9MzIF198ISEhIfo5CQ3fG9L3sBKE7w2pEigi4OXlpb9frGKheAJyyO0cCIGVK8k9CV4LfnfYCI3O8ZwTISKka3fu3FnmzZsnW7ZsYSD0FFwZcg5MBiOTBsEQVoyw15XImbgylAjQqwFFFND/BQEP0paiXmgjjQ5paChXjb49SENDShOq+eTLl88pF+V4Gxw9elSn7aHqGPJ3kbuLvUDY3OhojnblyhW99wnPw+oWHrM75DEjEMReKbu5ffu2/h3i/YVmeETkmrBfE+ffe/fuyf379/UtefLk+oaVXTSFjk9xA5wLmjVrJnfv3tUXn3bd/2mmq1evyksvvaTLjrOwhHMgKEfxDkzMYr8r3udEZmMwlIiQH4viCqi7jxLcWbNmNR55CKl12FOE4GTjxo16SR6b4HErXLiwZM+eXd+w6hRTt27d0ps+ccNqFAIb/NvoR4N/t3r16noFKG3atMbf+CdYwgCJrtFNmjTR6QF2a6z6JNjnhTQ5NIyzI6xUli9fXgYOHKiDXyJKPKdPn5Zdu3bphpQoTuO4ofQwzrkeHh46+EGaNVZyEBxhgg3ndaRgoxFq1BsuIpF+/V+QgYCsBFT3+uabb3SARTGD1QuM0RgjyDnu3Lmj9yXPnz9fp83hvUpkJgZDiQyDGEpvY8YD5bdxwY3g5knOnz+vAxfcDh8+/CCoweCFv4eACqlPuO8YLHFDozz8XTwXX9MRRKHcsiO4iu7rYpUKKXFjx46VixcvyowZM/SFszupXLmyLh9u51Uw7B1CfyhUOETPByJKGAhifvnlF93/C+0Jrl27ptsWYJIsalCDFYj/6u+DFZ1Tp049EkAhoELHf1QzxecaN5zHok5kHTt2TO/9RLEEnOfslA6cENCqABOImNgk51q/fr2esEOWDLJq8L4mMgODIReBQQvpWI6LUaSioTtzTOBXiAEUM4cIeBDsIIUCQRACItxSpEihex5h5vCFF1546oCHlAl8L459Jfh+UFHI3Tba42eLTutIk0PjUjtDgI3iGKtXr5aiRYsaR4nIbFjNwUo72hOgcWfp0qX1Hkyc+/HZc6QlmwETWugV5Ai2sMcFFbsw+YYVI+xRHTp0qHTo0MH4GxQb2FuLqqp2TKN2RZg8QLGpH3/8Ua9i4nPzNFEnCnCdhMlhXCPhc4j0RlzXYAIZKXiOyQcUbeDEgPtgMORiUOoYe3Fwgs2cObMeqDBAYiOrsz+YOMlgrxJWgubOnatXixAEYRbGXU8Kdqwk91+QhoB+IsjTdvTRiC2kcmLQwXsZgw1uuCDDgINbqlSp9EUYBxtyN9jz8/XXX8uXX36p93926dJFX8whRTmhYKILEx7IRkCqdsOGDWXcuHF60odiDytv+D2iAholHLyHEdBjVXPMmDEPtgog2EHQv2nTJj3JfPLkSV0QChPBL7/8sv4TYxCCH9wwNjnGKTzPsaKKACpXrlw6MMI1AFqhoPmwu00IuwsGQy4Km2VReQ43fLCx2hM1zQGrFPG9kMSHH3uGHDOGqN6CGUp8DQRhOHG4u3Xr1unUkZ9//lnv33KcNPH7wYkUJ0bk8ONixi4X9hhYsCqIvWRR9409DquQ+PlgVtSRloObYxDBLJvjZ4SfjWMmDkE3ZumQB+6YhcMNaUFIScTAwyCJ7AQpxihQgskGNKzu2bOnS6y+7t+/X6cbYc8LKpzie4xu7yo9Gc53ONfhQvq/0hjJfJhwQ4sIXL9UqFBBZ3CgqAUCF6R9Yz8Xxha8p2Nb4AL/NgIpjGnYw4frJKSTY4zCNRImMV555RWOVTbBYMgC8CvCTAU+8PhAIp0JF5b4kDtmLnBDTjkuyqPOeDguQB0zHlFvGKDx93DiwAcbJw93KYrwJLhIR/8kx88IF/voho0BD+mGjs3LOLE6Ni9jyR3HHL+HqDekoyAt0UrwfouuBxFeJ3K28R7EDT8X5Mqj9CleK4Jn/JkxY8YYDRBYQXIMNrhhDxwKheBn7Qj88d7Ev0dkRfgs+fv7y0cffaT3Orz//vsumW6LAgrjx4/XaXsjRoyQ9u3b8yIvFnCeR5q7u+2nTUwYL5DGj6q8WO1B4ZHBgwfriQYz00yjwsoums87JpCRvYOvh4rAjnGSrInBkEWhlKfjItJxw8kAF5K4QEcQhBMCPqAIjJ5//vkHF6uOP1EwAY+5M6z2YPOyI9DEbBAGNsfPCCmDqMaESjZPSmXBRwh7th7/fRw/flyvtqFHkWMmCfvAEFS5Oqx8IX0G7xvsJcCgg58F+l85Xgt6QTijnGzUwB+/G/z8EJxh5trd369kHQj00cMLM9UoPIPPjqvD3iKkHiHlCPsxmB0QM+jNhGJEPXr0MI6QM2CsRXocVjORlohKr506ddJBCcZuTFZif3RCwGQzMnfwvSA7Au8BX19fpptaFYIhInfy999/Kz8/P1WlShWVJk0aVaNGDTVq1Ci1e/duFRkEGM/6R6VKldS6deuMe7EXGZzqv9+3b19VvHhxlTZtWuXl5aUiL/RV5MnUeJbrCQ0NVZEXcCpVqlQqMiBSkyZNUpEBuPFowokM7NUPP/ygqlWrprJmzapGjBih/vzzT+NRItcUEBCg0qdPr88r9+/fN45aA77f0aNH6+//u+++M47Sf/H391fNmzc37pEzbNq0SRUpUkQVLlxYj00Yx13Fvn37VNu2bVW6dOlUv379XOp7o5hhMERu4+LFi2rQoEHqxRdfVHXq1FGLFy9Wt27dMh79NwQrL7zwggoODjaOxN+lS5fUtGnT9Am9YMGC6ptvvlF37twxHk18CAYnT56sA4/q1avri6FcuXKpHTt2GM9IPAhWW7durQecbt26JUpwRvQ0U6dOVdmyZVMHDhwwjljTwYMHVfbs2fX5gP4bftd58uQx7pGZbt68qc/3np6eav78+S49iXjhwgXl7e2t8ubNqzZs2GAcJStgMES2d+LECdWqVSt9Ed2xY0c9yMdEWFiY6tmzp1NOvvg316xZo+rVq6cyZsyoBgwYoG7cuGE8mjjwc3nttddUxYoVdeDhgIDRlQYgBLW+vr76gnPJkiXGUaLEN378eJUzZ051/Phx44i1/fHHH3oyBCtF9GQYK5599ll15coV4wiZYeXKlfrzhPHbSj/b77//XmXJkkV16dIl0cd1ihnuGSLbwr4XbGr99NNPpXv37rr8Kar+uJqjR4/K8OHDdVlzlN3FfpyEhP1lkRc7egM1KuchD9tZG1DNhP1E2OiNCogoRc9CC5SYRo0apQsQoAgINnTbxblz56RGjRrSsmVLGTBggHGUHocqryiUgfM3ypc7isOg1DP28uI8ixv2WWLvI/bzYjxy7E81o0KsnaCQB8bDadOmJfiYaAbsI0abis2bN+uiC3FtVUEJg8EQ2RJKbGIjMAYcXKCgBKarQ8EAbMBEVT/0/UiIKnTon1S3bl39tTDwoCKhlaA8NyoIzZo1SxYtWsRqTpQoUGWxWbNmuoEqmlvbDfqtYdIBJfdx0U8POQq+oHeUo/0CNvOjlxqCHEdfG4xFKJ4TEaWvDc6/joI7CKAe72uDctHuVqUMl6QDBw7U53MEEZ6ensYj1oSJxqlTp+pJErwnyDUxGCLbQeUzrAYNGzZMV3OywiqHA3rw9O/fX3enDwwMdOqFB0qr16xZU/c9wc/LyrOSK1askFatWklQUJAOJokSCkrOo2fQ559/rj9LdoWO/ygjjIpzuLh3Vwh00HfOUfESEzKosImgB4FL27Zt9QV8bMedqK0GUCkN/zbKR0fta4O+OXZePcLl6AcffKBbWuD122W1Hw2OERQhuLPCxKw7YjBEtoG3MtK85s6dqwcqq61yRIVZpKZNm+qZWHTYNhtSN5D60rp1a1023A4wgOJnhlUiK6ZVkDX17dtX9yebN2+eccS+fHx8dBnjsWPHGkfcBxqUo4wyJqrKlCmjAxTcChcu7LQA5fG+NgiyevXqpdsM2HHFCGmGCDTRxgFtHezEz89Pr3ht3bqVKXOuCMEQkdVhg3+fPn10lTYzq78lps2bN+vKdwsXLjSOmOPcuXN6Uyo2e9vNxo0bdUGKyMHUOELkPPv371eZMmXSVSKdJfzSfNWxXDFVsukUdSTMOPiIUHVqxefqvfpVVNny1VTDjp+rZcedU9r38uXLKjIYUnv27DGO2Buqa/7444+qZs2auprZsGHDVEhIiPFowsL3goIxqPKJzfnDhw+3VZsBnLvxuuxchOKTTz7RRZNcqSAR/YPBEFkeTizdu3dXJUuWtF0Pmp07d+qLrXnz5hlH4gc/qzfffFOXGLerX3/9VV+4sLITOdtHH32k+4o4T7g6Nbmmei5zVpXZo6Dq+1uocdwhXJ2f11LlTO6hXqrRSQ35bIjqWC27Spm5rppyyDn9jXDu+PDDD4179vXzzz+r/PnzqxIlSqhZs2bp3muuAsFomzZtdIXUjz/+2PJ9bfD9v/rqq7oKm53hPVSoUCE1e/Zs4wi5CgZDZHk4sRQoUMC2fWfQ0A0NEM0o14tBHY3rXGlgdwb0pUA5ViJnwgXctm3bjHtOEHZIjSyfSuXq9LUaXCaFyt5+ubppPKTd36UGFn1GPf/GV+qEY9Xo/u/qswpplOe7i5Qzzoi7du3SPXXsOruNceS9997TpfvRi86VX+f58+dVw4YNVb58+XRTUqvChAKakbuDrVu36gnOxFphpOhZZ2c5UTRQjQc51P7+/pI2bVrjqL0gJz1ysJAOHTrofVFxdenSJV3qc8aMGbavUISyrChVjtxzImc4dOiQLnhSqlQp44j5wvYFytxdmaVuIx9p0bi0XFk0QxZfjjAejXR7r+w58j8p09Bbcic1jiXLK2/WzCtXN6yRXaHGMRMVK1ZMl4j+/fffjSP2gSIRqOQG2CNUv359ly5YgMqFCxcu1AVwsI+oR48e+j1pJSjkg2prKDJgmogQCepUXoqXaiZTj4YbB6MXun+iNK49WNbfMw48LnS/TGxcWwY/8Qmxg/1m2Ns6cuRI4wi5AgZDZGk4+bdo0UKfYOwMVZxQevWbb74xjsQeeoS8++67Jl68RUhIUCcpX7yUNJt6VP5zyInBgBIRvFJG9xwsC/7478ErJtKkSaNLhXfu3FmXsiUy25IlS3T1OOddLIfKlpnz5HBub/GpkFpyN24ule6tFL+5Zx5+1pI9I8mTRQZN98MiP40OEXLn778lPPicnLtvHDIRXm+DBg3067cLTDJhczv60aFoDc4dVppc8/Ly0sHb9evXpWzZsjrAsIrFixfrIkEozGGWiLNBMm32Kbl8fpFM9tshTxp17h6eJe9595WFe8/KX9ENE3cPy6z3vKXvwr1yNtonxA36433//ffxmtwkczEYIstChZ1t27bJ0KFDjSPxFxESJJ3KF5dSzabKf08ohcr+iY2l9uD1j51o78qJpSOkfb3KUrZcVWnQYYT8cOS28VjcoVEfVnRQ+Q2rYbGFmVzMICJ4NE3EWQmaNltOXT4viyb7yY4njzhPH1DCjsuM91rJR1/OlS0X4x8MASo9pUyZUr9HiMx2+vRpyZ8/v3HPCW6vlZkLzkihxj5S6pnIwTqrl/jUTC6bvv1WDoQZz0lRXqqUSS5bZoyRn0P++dzcO7VQJs8/KmER9+SuOZPZ/4LXjddvB7ggRTnnpUuX6kpfVu2jhF5x3333na74h/YCqBhqBT/88IPJJenD5eicQNmcvqEM8i0qJ2ZPl7WPL5aFX5QNE9tJxYq+supmavn3dEa4XNwwUdpVrCi+q25KapPnOwoWLKgb7+7Zs8c4QomNwRBZFlLj+vTpY2LPiwg5GzRNZp+6LOcXTRa/J1/dy+FZ74l334Wy9+xfj8zIBi/wlRreY2XXcxXFy6uKZDg4UZpUbSn+p+J/gY/0DfQFQjO62ELKGDqdm1nSM/zoHAncnF4aDvKVoidmy/R/jzgxHFDuyu7RbeXjrUqeM3nQwSAbl58X0dOgweazzz5r3DPfteUBsjg4raS6uECGDR4sg4dMlgMqo0TsC5QZG+/+86SkuaT955/IaxcmypsFCkiZCqUkX9mBcqtUOXk2WQpJ6fHP08yG142+OFaHVeMuXbrIxo0bdUlnO/S1QZ86rIgjIELPIleGnk2bN282t31E2D4JnLtLMtdtJD4tGkvpK4tkxuLLUcbpSDeWy9gx+6XIoJWyql8xSWYcfuiGLB87RvYXGSQrV/WTYv9+QrxgdbVhw4Ycm1wIgyGypNDQUL0fBDndpgk/KnMCN0v6hoPEt+gJmT19rfx7QmmDTGxXUSr6rpKbj1/dhx+XmV/Ml9tvTZAVASOkz4dDZMaPX8jb95fL9Pkn/zuNLIbiegLF7Bv+rnnCZF/gXNmVua408mkhjUtfkUUzFkvU7QwxHVCu/zJA2kxQ0nVsW8np2PdgEsfPi+kIZDZc0DjtfRURLD8ErJDrGT0l2bGNsmHDBn3b/ld6yZnmlATNWCbXjaemKtlbVuzZJDMHt5K36neQL9b8Jl9UfEbCXswqWU2+iHPA67ZSM+snQfox0stWr15tq742eF3o2YOAyJVT5tavXy/lypXTac1mCd0yU+Ydzi3ePhUkde7G0rzSPVnpN1fORB2A0zaTwMPbxK97BckQ7ds4rTQLPCzb/LpLheifEG9vvvmmft+Ra2AwRJaEWbwCBQqYmmf81M3KkW4sHytj9heRQStXSb/Hr+6Tviyd5+2QX8e/I5kcn6yIMAlTScUjxTPRLMXH3htvvCGbNm2K9azs8uXLzQ0cQ7fIzHmHJbe3j1RInVsaN68k91b6ydxHR5ynDigRwQulV/u5kn2ov/QpbM7PKKqSJUvqDvEnTpwwjhCZ47nnnnPa6kjEmSAJWHtfKvdfLGvWrdMNhf+5/SwzWueSK0v9JOhC5Lkp4qIsG95ZhmzIIN7d+svAvr5Sv2CorFy5S1KWLC/FnLQyhNeN129laGyN/SoommD11xIdX19fadmypXTt2tU44nrQVBaNZM1zW9bOXCBnCjUWn39yS8XLp6Yk3/StfPsgtzRSklSS+j8TSpJIqv9+QrzhdV+9etW4R4mNwRBZEgYxc/OMY7BZOVLaZoFyeJufdK+QIZoPT1JJk7WgFMieSsJP/SL+4/pJs1q9ZUO+3jKoZQ5TPmwYtCtVqhTrKmmYHcyVK5dxL/5ur50pC84UksY+peSZyFeW1ctHaibfJN9+e0AeDjlPGVD0PqHusr7CBJnWPk80qQrxh9n7l156SYKDg40jRObImzev7Nq1y7hnpnA5MjtQNiWtIk28sj923vCQ8i2aSP4768R/1lEJT/K8pL60Skb3GyLzjt+J/EyFyG8TO8mwXzzl3S71xVlrHbt379av36pQjAbVOadMmWLLQMhh0KBBcvDgQb1Z3xXh92Bemnuka8slYHGwpE11URYMGyyDBw+RyQeUZIzYJ4EzNoqRXOoSUqdOrV8/uQYGQ2RJJ0+efFAC1RQx2awcKUmq1BKTU/dfOxfL7B/Xy55z9yS1xy25fDXKPxJP2HyJ1x9TYWFhcu/ePV1MwBzXZHnAYglOm0ouLhgWOeAMliGTD4jKGCH7AmeIYzvDf/tnn9DA043lmwle4unEMxH2N2B/B5GZUFENqwr4fJkqbLcEzN0lKas3kQYPlpgfSlbMR5qVUrLjO3/Zfi+FVB7wpfTK/JO0fjWdpEidRSoPPyc1J8yTT6ual3oUVXh4+INKelaFQjQVKlTQqUp2liJFCpk+fbp069bNJVchMCbdvWtWiBIhwT8EyIrrGcUz2THZaKSWbtj+l6TPmUZOBc2QZY7cUhfw999/mzgmU3wxGCJLMnvzcow2K8fCC17jZfW6TfL7gYXi/dfX0t53iphQMVqL7cU9KtGBWSWmI4J/kIAV1yWjZzI5ttEYcDZsl7/S55Q0p4JkRkxGnLDDsmjeb3Jp33ip8fz/9ApO8mJDZffdozKuYgp5rvE8uWM8Nb5QSQ+Ve4jMhBXHHDly6M33pkpWSobvuyfXFr0rL0Y3QifNJx9tviv3Do6Scpi4ebG2jNz4h5zc/Yus2bBPTp/aLv4dikhq4+lm27Jli07xMXOlOSGhCl5AQICMHz/eOGICE/raRFzbIf4fNJbq5ctKxTdaysB5v/9rz2pcIOhD4P75558bR1wHypebFqRFnJGggLVyv3J/WbwmamrpOvl5RmvJdWWp+AVdeLSQQiLC67bzqqTVMBgiSzJ183IsNis/XURk0GH8b6QkGStLx6bF5e629bLNpAaIeN14/TGF52KDKir3xF+EnAkKkLX3K0v/xWseGXDW/TxDWue6Ikv9ggTbGf5TkixSu9dIPUA7bqM+eEOyJX9RqnUfKZ+2KCpmtYXF63Zm1S9yXyjQgZL1ZgsMDNR9wWJ+GylT5i+Xn5bMli9HDnpwfNasWca/aB4UJDG3GEvCQjEZ7J/MkCGDcST+4t3XJuygTGpUW7ouui3FGnhJtUxHZGrLWtJ61hlTLt5dta9N+fLl9ViLzIX4Cj8yWwI3JZUqTbwk+2NXth7lW0iT/Hdknf+sp7TMSDhr1qyRihUrGvcosTEYIksys7RrjDcrP83d5dLllfRSbtj+KPtmwuVSyBVRz6WTtCZVSovLqhi6xqOEabyFH5HZgZskaZUm4vXvEUdaNMkvd9b5y6ynjThJXpQKrXrLhx9++OD2fosykjFpOineuJd0r5/PlD1EeI8cPXrUuf1gyG2h4fPs2bPl+PHjxhFz4DOOmeP43sxOD0V6LnrZ4HVblfnBXPz72txeOU5Gb8wmPeculHEf9ZFh362W2e1TyY+ffSXbTegVVaJECR1wYP+QK8mSJYvee4bWD/ETJrsD5squlNWlSYNM/76wTVZMfJqVErXjO/E34wdqAvP7K1G8KCIL6tatmxo+fLhxLz7C1MHhZZXHc2+qaRfCjWMP3d8xQBVJnkKV/+xQ5DOjCL+gJtdIoTK1WaL+Ng6p8BA1v7mnSpbxdTViQ7C6H3ZDHQrqrkqn81D5ev2ibhlPi6+aNWuqhQsXGvdiZvz48apt27bGvbi7v72/Kpw8nXr7u0vq3z+tyJ/moZGqvEdylb/PFuPIP8IvTFY1UmRSbZY8+Gn9y/09g1TxFHnV+xtDjSPxN2fOHPXmm28a94jMN2bMGFW1alUVHh7dJ8I+IiIi9Lln1KhRxhHrCQkJUc8995y6c+eOccQE93epAUU9VO6u69StY2NUpVTplVdAyKPnx6vTVYPspVWbCevVvok1VIpMbdTDU2Go2vh+XuWR/0O1Jcqp7+4qX5Xdo4wafvCRkSfOunfvroYNG2bccx2fffaZ6tSpk3HPPZw+fVplyJBB3b9/3zhCiY3BEFnS2rVrValSpYx78XB/u+pfOLlK9/Z36lL0V/dqZHkPlTx/n0cGqmiDoUjhIevUkNo5VMr/JVXJkydT/0uWXpVo66cO3DaeEE9Xr15Vzz77rLp1K3ah1cmTJ1XGjBlVWJg5A6tVNGnSRE2bNs24R2Q+fKbKlCmjpk6dahyxp+nTp6uSJUta+gIuKChI1atXz7hnjrvre6pXPPKrPhggws+oKbWfVWmqT1Qno55qw2+rW3oMCFcXJj8eDN1SAQ1TK49aU1WIcQTCjoxU5Tw8VbtlT55Aio2ffvpJValSxbjnOo4cOaIyZ86sbt82aZC0gJEjR6rWrVsb98gV/A//MRaJiCwDm+LRY2jPnj2SPXt246iruCdXju+VgxfDJf0rxaRA5hTG8fjDHoAFCxbo0uKxVbx4cRk7dqxUr17dOBJ7hw4dkoEDBxr3nMvLy0uaNWtm3Is9lC3NmjWrRA62kilTJuMokfnQuLNatWq6/5mpVS5dBNKrqlatqptEFi1a1DhqPV9//bXs3LlTpk2bZhyJr9uyvEM+eWd3O9n22ydSJFmEXJ7lLa92OC3dt26VT4o+nuwbIRe/rCW5h+WQ+af85C09NFyRaXWySs+U0+XPhS0eVCuNOD9Jar48SDIFnJc53vEvP713717dd2jfvn3GEdfh4+Oji3KMGTPGOGJfp06dklKlSunCK/ny5TOOUmJjMESW1apVK91Us3v37sYR+3vnnXf05t/WrVsbR2Ju5syZuoLStm3b4lxd7fz58wnWs6J06dJ6g21c9erVS/7880+nbCInetzcuXN15380OMYeDbvAhFOdOnVk9OjRlt4rBOPGjZMzZ87IF198YRyJp2tB0vzV5rI2X1vxrZb5n71Ad/fJ3PE/SkTH1bJ/YlV5dCosumDolnzXIKP4qilyeUlrcewGjTg1Xqrl+1SyzzkvAQ3jP6GGfW21a9d2yQbUly9flsKFC+uS7WXKlDGO2g8ut9E4HRML/fr1M46SS0AwRGRF69evV9myZVPXr183jtjbb7/9pjJlyqRT5eICOf+Rg6FJe61c25YtW3TqReQgaxwhcj7s5XvxxRf1+88Otm7dql8P0svs4KuvvlK+vr7GvfgKVxf96qt0yT1V0WrVVLUot/KvpFPJMrdQC64ZT30gujS5u2pZuyzKo8Ln6niU1DrszyzkkVf12mDOHsp9+/apggULGvdcz+zZs/X3d/fuXeOI/fj7+6vixYure/fuGUfIVbCaHFlWpUqVdNO8Pn36GEfsC5WA2rVrp1d2nn8+bn3lUWIbaSKYHT18+LBx1H5CQ0Olbdu2MmHCBFPL5xI9DaqUffvtt3r1dtWqVcZRa0Lp33r16smMGTPE29vbOGpt6Gtz5coV4148mdbXJrkULVlQkh3eKTseFP+LkJAdO+RkyoJSoqA5TQZQXdCV+9o0bdpUV5bDudv0RsYuACXEca3i5+fHvncuiMEQWRr60yAtBbn6djZixAjJnTu3HjDiA40ihwwZovfiYHC0GzSW7dq1qx5UGzVqZBwlSjhIKQsKCtKTF++9955J/b0SDr7fjh076lRcpP4hILILNCD95ZdfTLnYNq+vTRLxbNBCaiX5UYZ+ECiH/gqVqzunSY9Rv8rzDVtL3bjNff0L9nthAtFVYbIO/bUwLmGcM6P3kKvAxAL2wKIMP9pckOthMESWhpm+r776Sl94XLp0yThqL+gP9OWXX8qUKVNi1Wz1STp37iw1a9bUG75DQkKMo9YXHh6uZxVRMAH7o8z4WRHFRZUqVXRRhSRJkkjBggX1XggrWLZsmS4AgUkFfP/xKbbiijAZhII7mzZtMo7Elbl9bZJk8ZEvpraRVD+0loIZ0kim0t1lU84+8u2oemJSLGSJvjYpU6bU3yfO5dgfe/fuXeMR68Jnqnnz5nqvLcZdck0soEC2MHToUD3rghmYbNmyGUetD7OYjRs31kUAsPnVLPjYf/LJJzJ//nxZu3atbn5nZaguiEpJSIHBYJo6dWrjEaLEhc9w+/btdRU2bJpGJSlXs2vXLvnss890pbVvvvnGdkFQVMOGDdPnCdOKKJgo4vZZObD3pNx67hUpVsjzQWW5+Dp27JgO0M+dO6cDdFeH8/m7776rv180+UVWhNUgoJs8ebLO6sBkSNmyZY1HyBVxZYhsYdCgQXp1CCd8lK60g59++kkHQvPmzTM1EAKsmiBdDhX5KleurCtGWRUqxmEW8datW7J06VIGQuRSUDkK5YzLlSun36dIVVq4cKG+WEpM+PqYOMA5s0GDBroyJ75POwdCgH1daE/giqsOSVJnlyKvVZbXTAyEAOln+B1bIRAC7KkJCAjQ3zOqyyFwTezPS2ygBQU+51gNwl4hBkIWgJUhIruYNGmSypEjh9q/f79xxJoiAyDdJHXTpk3GEeeZOXOm/loff/yx+vtvcxr8JQRUx5s7d66uGterVy8VGmpO1SUiZ0HDUny2y5cvr3LmzKk+//xzFXnhpN/LCQFf5/Dhw2r06NEqd+7cKvIiTX+G3K26lZeXl/roo4+Me/aGpqbp06dXJ06cMI5Yy7Fjx3SzWLxXDxw4YBx1TfgcffrppypDhgy6cmFkAGc8Qq6OwRDZzqxZs/TJaOjQoZa7QA4JCVFNmzZVL7/8stqxY4dx1PkuXLigGjZsqPLly6c2b95sHHVd58+fV/Xr11cFChTQJceJrAbv2w4dOqjs2bPrCZz27dur+fPnqytXrhjPMAdK8aM0Nr4Wvg7aEbRr18425b/j4uLFi7pk+M6dO40j9oSL8UqVKqnx48cbR6wJr2Pq1Kk6qPPx8UnQsTEmbty4oSZMmKDH7Tp16qjTp08bj5BVcM8Q2dLZs2d1RSTkHKM0rCvm6UeFj+GcOXPk/fff13tfkMKWKpWZiRJPh+8By/poYouNnmhaWrx4ceNR1xB5EaMLZkQOjLoQRP/+/cXDw8N4lMh68LlD0Q+U4l65cqVOq8Em/8gLK71XIuoNe/vwfn/mmWckadKkOnUIVbdwQ0PkP/744183NBlFyk6tWrX0DV3vWVzEnCbUrg7nSqSb4T2F94vVXbt2TaZPny6TJk2SnDlz6ibHSKVLrNeGlHx8LyinX6NGDT1mIh2Wny/rYTBEtoW3NooqIMDA3pvevXvrE6ir+e233/SmXgRwCNxKly5tPJI4rl+/rvsRYfMnLsgw4Lz11luJOphigzfyxrEnCJV5evTooctnE9kN+mQhOIousLlw4cKD4AfnN1x0ITDCzdPTUwdMjwdRr776KicMooGfH85r6dOn1+fdZMmSGY/YA4oJoYXCr7/+KgUKFDCO2gNKoy9atEgHs/hMYB8YAn3sf3XmnlG8ZxwTF9jTi0AaFUy7dOmiKxWSdTEYIttD+ejRo0frZmcoJ42Le/SbSMzZG1TLwSoMLvAvX76sL+6xkoWLGlfh+B4x4KBIAfqOoJADNlonRGB04sQJPeig18nJkyd1/6AOHTrEuekskZ2g/LVVNsS7qtu3b+ty0y+88IJeQbHLChHKObdp00afv125t5AZdu/erXsNYqzApBmKFSAwQuGSV155JV7jBcZArKzia2DVFl8DnzuMg6+//rrUrVtX0qRJYzybrIzBELkNVBvDcvaECRMkXbp00qlTJ90gETOqCQEftcOHD+sKTkhfwAwultXR1NDVUxiweoUy3BgQgoODdRodBhwMCEjpMSOwRLNHNM91pAvduXNHfw3M3iIVgl27ichsqCrn7e2tV4ZQudPqq2gIgJBC7I7lnG/evKlL2WP82Lhxo55Qw+/VsUqKMTdHjhw6BR3jCW4IbrDSisAHE5NYgcXfc6zE4voAvcIwFuHGNFN7YjBEbgcnP8wkoX8BeuzgYt5xosMsWooUKYxnxh/6WeBrOGaVMJOLAMzX19fl9uPEFPZhoZs5XhNSMZCyEN3+Bsy2YrDBahcGDww2GHQQlCLXOmr6D25Iz8OKHWbd8LsoXLgwBx0icjqcl5B+ixVwf39/yZUrl/GIdeA8PG7cOL2Sv2LFCilWrJjxiPvC5S3G4KjjDFZ6EAA7AiCMyRijMFYhZTLqWIbAyZWyNch5GAyRW8MAsmPHjgerEeizgfxqx8kw6okxc+bM+oQZ9QIdgRVy/HGCjXrCxe348eNy+vRp3ccDF/e4yMeyvZ0u8HH6uHr16oPX7JhRww0rPY4BBz8nx4CDWTns3XL8XB0/Z2wOZ9oPESUGjAVjx47VKdXoW4d9IFYpOrB3717dZw8ZD2iaa8VgjigxMRgiigKrEwcPHnxwQR/1dunSJT1gYtkdN1zko5oTVpKyZcv2yMU9bhiQsLzOzctERNZw9OhRad++vT7Xo7BC/vz5jUdcDybiPv30U13w5rPPPtP7hLiaThR7DIaIYgEfFwRBGCix0oGZQw4+RET2gZVsBBgDBw7Uac3Y21miRAnj0cSHSTtHiWmkW2MPKlbWiShumJNCFAsIfBAEIdULq0MMhIiI7AXpuiiwg1Ui7F1EARekO6OcM7IBEgtSr9EHDpkHqHAWFBSkC/IwECKKH64MERERET0BsgEWLlyoWyGgmibKcWMfaEL0tUHaNvazoijCnj17dHsBVItDajYRmYPBEBEREVEMYEUGgQkClKh9bbBy5OhrE9eMAewBQtGdnTt36qI+uCETwVFh84033tBZCURkLgZDRERERLEUta/N5s2bdTVNBEJRC+mgPHPKlCkfVNNEmp2jyiYagj9epAetHqL2tcmTJw/TsYmcjMEQERERUTzhcuratWuPBDiOvjYIfhAEYa8pgiLcMmTI8Ej7BqS+4XEiSlgMhoiIiIiIyC2xmhwREREREbklBkNEREREROSWGAwREREREZFbYjBERERERERuicEQERERERG5JQZDRERERETklhgMERERERGRW2IwREREREREbonBEBERERERuSUGQ0RERERE5JYYDBERERERkVtiMERERERERG6JwRAREREREbklBkNEREREROSWGAwREREREZFbYjBERERERERuicEQERERERG5JQZDRERERETklhgMERERERGRW2IwREREREREbonBEBERERERuSUGQ0RERERE5JYYDBERERERkVtiMERERERERG6JwRAREREREbklBkNEREREROSWGAwREREREZFbYjBERERERERuicEQERERERG5JQZDRERERETklhgMERERERGRW2IwREREREREbonBEBERERERuSUGQ0RERERE5JYYDBERERERkVtiMERERERERG6JwRAREREREbklBkNEREREROSGRP4POR6cL0BVIj0AAAAASUVORK5CYII=;" parent="1" vertex="1">
          <mxGeometry x="110" y="390" width="749.8" height="440" as="geometry" />
        </mxCell>
        <mxCell id="Vv5zSVdgEOzmotpruDQn-1" value="Prerequisite" style="shape=table;startSize=20;container=1;collapsible=0;childLayout=tableLayout;" parent="1" vertex="1">
          <mxGeometry x="180" y="206" width="120" height="70" as="geometry" />
        </mxCell>
        <mxCell id="Vv5zSVdgEOzmotpruDQn-2" value="" style="shape=tableRow;horizontal=0;startSize=0;swimlaneHead=0;swimlaneBody=0;strokeColor=inherit;top=0;left=0;bottom=0;right=0;collapsible=0;dropTarget=0;fillColor=none;points=[[0,0.5],[1,0.5]];portConstraint=eastwest;" parent="Vv5zSVdgEOzmotpruDQn-1" vertex="1">
          <mxGeometry y="20" width="120" height="50" as="geometry" />
        </mxCell>
        <mxCell id="Vv5zSVdgEOzmotpruDQn-3" value="Cno" style="shape=partialRectangle;html=1;whiteSpace=wrap;connectable=0;strokeColor=inherit;overflow=hidden;fillColor=none;top=0;left=0;bottom=0;right=0;pointerEvents=1;" parent="Vv5zSVdgEOzmotpruDQn-2" vertex="1">
          <mxGeometry width="60" height="50" as="geometry">
            <mxRectangle width="60" height="50" as="alternateBounds" />
          </mxGeometry>
        </mxCell>
        <mxCell id="Vv5zSVdgEOzmotpruDQn-4" value="Cnum" style="shape=partialRectangle;html=1;whiteSpace=wrap;connectable=0;strokeColor=inherit;overflow=hidden;fillColor=none;top=0;left=0;bottom=0;right=0;pointerEvents=1;" parent="Vv5zSVdgEOzmotpruDQn-2" vertex="1">
          <mxGeometry x="60" width="60" height="50" as="geometry">
            <mxRectangle width="60" height="50" as="alternateBounds" />
          </mxGeometry>
        </mxCell>
        <mxCell id="Vv5zSVdgEOzmotpruDQn-8" value="" style="endArrow=classic;html=1;rounded=0;exitX=0.733;exitY=0.994;exitDx=0;exitDy=0;exitPerimeter=0;" parent="1" source="Vv5zSVdgEOzmotpruDQn-2" edge="1">
          <mxGeometry width="50" height="50" relative="1" as="geometry">
            <mxPoint x="268" y="280" as="sourcePoint" />
            <mxPoint x="180" y="140" as="targetPoint" />
            <Array as="points">
              <mxPoint x="268" y="300" />
              <mxPoint x="330" y="300" />
              <mxPoint x="330" y="180" />
              <mxPoint x="180" y="180" />
            </Array>
          </mxGeometry>
        </mxCell>
        <mxCell id="Vv5zSVdgEOzmotpruDQn-11" value="" style="endArrow=classic;html=1;rounded=0;exitX=0.254;exitY=1;exitDx=0;exitDy=0;exitPerimeter=0;entryX=0.137;entryY=1.013;entryDx=0;entryDy=0;entryPerimeter=0;" parent="1" source="Vv5zSVdgEOzmotpruDQn-2" target="_NYBwnaIKDqg1busJ0AT-53" edge="1">
          <mxGeometry width="50" height="50" relative="1" as="geometry">
            <mxPoint x="530" y="340" as="sourcePoint" />
            <mxPoint x="580" y="290" as="targetPoint" />
            <Array as="points">
              <mxPoint x="210" y="300" />
              <mxPoint x="140" y="300" />
              <mxPoint x="140" y="180" />
              <mxPoint x="170" y="180" />
              <mxPoint x="170" y="160" />
              <mxPoint x="170" y="150" />
            </Array>
          </mxGeometry>
        </mxCell>
        <mxCell id="Vv5zSVdgEOzmotpruDQn-64" style="edgeStyle=orthogonalEdgeStyle;rounded=0;orthogonalLoop=1;jettySize=auto;html=1;exitX=0.837;exitY=1.015;exitDx=0;exitDy=0;exitPerimeter=0;" parent="1" source="Vv5zSVdgEOzmotpruDQn-15" target="Vv5zSVdgEOzmotpruDQn-32" edge="1">
          <mxGeometry relative="1" as="geometry" />
        </mxCell>
        <mxCell id="Vv5zSVdgEOzmotpruDQn-14" value="E1" style="shape=table;startSize=30;container=1;collapsible=0;childLayout=tableLayout;" parent="1" vertex="1">
          <mxGeometry x="940" y="420" width="240" height="70" as="geometry" />
        </mxCell>
        <mxCell id="Vv5zSVdgEOzmotpruDQn-15" value="" style="shape=tableRow;horizontal=0;startSize=0;swimlaneHead=0;swimlaneBody=0;strokeColor=inherit;top=0;left=0;bottom=0;right=0;collapsible=0;dropTarget=0;fillColor=none;points=[[0,0.5],[1,0.5]];portConstraint=eastwest;" parent="Vv5zSVdgEOzmotpruDQn-14" vertex="1">
          <mxGeometry y="30" width="240" height="40" as="geometry" />
        </mxCell>
        <mxCell id="Vv5zSVdgEOzmotpruDQn-16" value="&lt;u&gt;A1&lt;/u&gt;" style="shape=partialRectangle;html=1;whiteSpace=wrap;connectable=0;strokeColor=inherit;overflow=hidden;fillColor=none;top=0;left=0;bottom=0;right=0;pointerEvents=1;" parent="Vv5zSVdgEOzmotpruDQn-15" vertex="1">
          <mxGeometry width="60" height="40" as="geometry">
            <mxRectangle width="60" height="40" as="alternateBounds" />
          </mxGeometry>
        </mxCell>
        <mxCell id="Vv5zSVdgEOzmotpruDQn-17" value="A2" style="shape=partialRectangle;html=1;whiteSpace=wrap;connectable=0;strokeColor=inherit;overflow=hidden;fillColor=none;top=0;left=0;bottom=0;right=0;pointerEvents=1;" parent="Vv5zSVdgEOzmotpruDQn-15" vertex="1">
          <mxGeometry x="60" width="60" height="40" as="geometry">
            <mxRectangle width="60" height="40" as="alternateBounds" />
          </mxGeometry>
        </mxCell>
        <mxCell id="Vv5zSVdgEOzmotpruDQn-18" value="A3" style="shape=partialRectangle;html=1;whiteSpace=wrap;connectable=0;strokeColor=inherit;overflow=hidden;fillColor=none;top=0;left=0;bottom=0;right=0;pointerEvents=1;" parent="Vv5zSVdgEOzmotpruDQn-15" vertex="1">
          <mxGeometry x="120" width="60" height="40" as="geometry">
            <mxRectangle width="60" height="40" as="alternateBounds" />
          </mxGeometry>
        </mxCell>
        <mxCell id="Vv5zSVdgEOzmotpruDQn-19" value="E1_A6" style="shape=partialRectangle;html=1;whiteSpace=wrap;connectable=0;strokeColor=inherit;overflow=hidden;fillColor=none;top=0;left=0;bottom=0;right=0;pointerEvents=1;" parent="Vv5zSVdgEOzmotpruDQn-15" vertex="1">
          <mxGeometry x="180" width="60" height="40" as="geometry">
            <mxRectangle width="60" height="40" as="alternateBounds" />
          </mxGeometry>
        </mxCell>
        <mxCell id="Vv5zSVdgEOzmotpruDQn-31" value="E2" style="shape=table;startSize=30;container=1;collapsible=0;childLayout=tableLayout;" parent="1" vertex="1">
          <mxGeometry x="940" y="544.5" width="360" height="80" as="geometry" />
        </mxCell>
        <mxCell id="Vv5zSVdgEOzmotpruDQn-32" value="" style="shape=tableRow;horizontal=0;startSize=0;swimlaneHead=0;swimlaneBody=0;strokeColor=inherit;top=0;left=0;bottom=0;right=0;collapsible=0;dropTarget=0;fillColor=none;points=[[0,0.5],[1,0.5]];portConstraint=eastwest;" parent="Vv5zSVdgEOzmotpruDQn-31" vertex="1">
          <mxGeometry y="30" width="360" height="50" as="geometry" />
        </mxCell>
        <mxCell id="Vv5zSVdgEOzmotpruDQn-33" value="&lt;u&gt;A6&lt;/u&gt;" style="shape=partialRectangle;html=1;whiteSpace=wrap;connectable=0;strokeColor=inherit;overflow=hidden;fillColor=none;top=0;left=0;bottom=0;right=0;pointerEvents=1;" parent="Vv5zSVdgEOzmotpruDQn-32" vertex="1">
          <mxGeometry width="60" height="50" as="geometry">
            <mxRectangle width="60" height="50" as="alternateBounds" />
          </mxGeometry>
        </mxCell>
        <mxCell id="Vv5zSVdgEOzmotpruDQn-34" value="A4" style="shape=partialRectangle;html=1;whiteSpace=wrap;connectable=0;strokeColor=inherit;overflow=hidden;fillColor=none;top=0;left=0;bottom=0;right=0;pointerEvents=1;" parent="Vv5zSVdgEOzmotpruDQn-32" vertex="1">
          <mxGeometry x="60" width="60" height="50" as="geometry">
            <mxRectangle width="60" height="50" as="alternateBounds" />
          </mxGeometry>
        </mxCell>
        <mxCell id="Vv5zSVdgEOzmotpruDQn-35" value="A5" style="shape=partialRectangle;html=1;whiteSpace=wrap;connectable=0;strokeColor=inherit;overflow=hidden;fillColor=none;top=0;left=0;bottom=0;right=0;pointerEvents=1;" parent="Vv5zSVdgEOzmotpruDQn-32" vertex="1">
          <mxGeometry x="120" width="60" height="50" as="geometry">
            <mxRectangle width="60" height="50" as="alternateBounds" />
          </mxGeometry>
        </mxCell>
        <mxCell id="Vv5zSVdgEOzmotpruDQn-36" value="A7" style="shape=partialRectangle;html=1;whiteSpace=wrap;connectable=0;strokeColor=inherit;overflow=hidden;fillColor=none;top=0;left=0;bottom=0;right=0;pointerEvents=1;" parent="Vv5zSVdgEOzmotpruDQn-32" vertex="1">
          <mxGeometry x="180" width="60" height="50" as="geometry">
            <mxRectangle width="60" height="50" as="alternateBounds" />
          </mxGeometry>
        </mxCell>
        <mxCell id="Vv5zSVdgEOzmotpruDQn-37" value="A8" style="shape=partialRectangle;html=1;whiteSpace=wrap;connectable=0;strokeColor=inherit;overflow=hidden;fillColor=none;top=0;left=0;bottom=0;right=0;pointerEvents=1;" parent="Vv5zSVdgEOzmotpruDQn-32" vertex="1">
          <mxGeometry x="240" width="60" height="50" as="geometry">
            <mxRectangle width="60" height="50" as="alternateBounds" />
          </mxGeometry>
        </mxCell>
        <mxCell id="Vv5zSVdgEOzmotpruDQn-54" value="E2_A9" style="shape=partialRectangle;html=1;whiteSpace=wrap;connectable=0;strokeColor=inherit;overflow=hidden;fillColor=none;top=0;left=0;bottom=0;right=0;pointerEvents=1;" parent="Vv5zSVdgEOzmotpruDQn-32" vertex="1">
          <mxGeometry x="300" width="60" height="50" as="geometry">
            <mxRectangle width="60" height="50" as="alternateBounds" />
          </mxGeometry>
        </mxCell>
        <mxCell id="Vv5zSVdgEOzmotpruDQn-41" value="E4" style="shape=table;startSize=30;container=1;collapsible=0;childLayout=tableLayout;" parent="1" vertex="1">
          <mxGeometry x="930" y="680" width="300" height="70" as="geometry" />
        </mxCell>
        <mxCell id="Vv5zSVdgEOzmotpruDQn-42" value="" style="shape=tableRow;horizontal=0;startSize=0;swimlaneHead=0;swimlaneBody=0;strokeColor=inherit;top=0;left=0;bottom=0;right=0;collapsible=0;dropTarget=0;fillColor=none;points=[[0,0.5],[1,0.5]];portConstraint=eastwest;" parent="Vv5zSVdgEOzmotpruDQn-41" vertex="1">
          <mxGeometry y="30" width="300" height="40" as="geometry" />
        </mxCell>
        <mxCell id="Vv5zSVdgEOzmotpruDQn-43" value="A13" style="shape=partialRectangle;html=1;whiteSpace=wrap;connectable=0;strokeColor=inherit;overflow=hidden;fillColor=none;top=0;left=0;bottom=0;right=0;pointerEvents=1;" parent="Vv5zSVdgEOzmotpruDQn-42" vertex="1">
          <mxGeometry width="60" height="40" as="geometry">
            <mxRectangle width="60" height="40" as="alternateBounds" />
          </mxGeometry>
        </mxCell>
        <mxCell id="Vv5zSVdgEOzmotpruDQn-44" value="&lt;u&gt;A14&lt;/u&gt;" style="shape=partialRectangle;html=1;whiteSpace=wrap;connectable=0;strokeColor=inherit;overflow=hidden;fillColor=none;top=0;left=0;bottom=0;right=0;pointerEvents=1;" parent="Vv5zSVdgEOzmotpruDQn-42" vertex="1">
          <mxGeometry x="60" width="60" height="40" as="geometry">
            <mxRectangle width="60" height="40" as="alternateBounds" />
          </mxGeometry>
        </mxCell>
        <mxCell id="Vv5zSVdgEOzmotpruDQn-45" value="A15" style="shape=partialRectangle;html=1;whiteSpace=wrap;connectable=0;strokeColor=inherit;overflow=hidden;fillColor=none;top=0;left=0;bottom=0;right=0;pointerEvents=1;" parent="Vv5zSVdgEOzmotpruDQn-42" vertex="1">
          <mxGeometry x="120" width="60" height="40" as="geometry">
            <mxRectangle width="60" height="40" as="alternateBounds" />
          </mxGeometry>
        </mxCell>
        <mxCell id="Vv5zSVdgEOzmotpruDQn-46" value="A16" style="shape=partialRectangle;html=1;whiteSpace=wrap;connectable=0;strokeColor=inherit;overflow=hidden;fillColor=none;top=0;left=0;bottom=0;right=0;pointerEvents=1;" parent="Vv5zSVdgEOzmotpruDQn-42" vertex="1">
          <mxGeometry x="180" width="60" height="40" as="geometry">
            <mxRectangle width="60" height="40" as="alternateBounds" />
          </mxGeometry>
        </mxCell>
        <mxCell id="Vv5zSVdgEOzmotpruDQn-47" value="R4_A1" style="shape=partialRectangle;html=1;whiteSpace=wrap;connectable=0;strokeColor=inherit;overflow=hidden;fillColor=none;top=0;left=0;bottom=0;right=0;pointerEvents=1;" parent="Vv5zSVdgEOzmotpruDQn-42" vertex="1">
          <mxGeometry x="240" width="60" height="40" as="geometry">
            <mxRectangle width="60" height="40" as="alternateBounds" />
          </mxGeometry>
        </mxCell>
        <mxCell id="Vv5zSVdgEOzmotpruDQn-48" value="E3" style="shape=table;startSize=30;container=1;collapsible=0;childLayout=tableLayout;" parent="1" vertex="1">
          <mxGeometry x="940" y="810" width="180" height="70" as="geometry" />
        </mxCell>
        <mxCell id="Vv5zSVdgEOzmotpruDQn-49" value="" style="shape=tableRow;horizontal=0;startSize=0;swimlaneHead=0;swimlaneBody=0;strokeColor=inherit;top=0;left=0;bottom=0;right=0;collapsible=0;dropTarget=0;fillColor=none;points=[[0,0.5],[1,0.5]];portConstraint=eastwest;" parent="Vv5zSVdgEOzmotpruDQn-48" vertex="1">
          <mxGeometry y="30" width="180" height="40" as="geometry" />
        </mxCell>
        <mxCell id="Vv5zSVdgEOzmotpruDQn-50" value="&lt;u&gt;A9&lt;/u&gt;" style="shape=partialRectangle;html=1;whiteSpace=wrap;connectable=0;strokeColor=inherit;overflow=hidden;fillColor=none;top=0;left=0;bottom=0;right=0;pointerEvents=1;" parent="Vv5zSVdgEOzmotpruDQn-49" vertex="1">
          <mxGeometry width="60" height="40" as="geometry">
            <mxRectangle width="60" height="40" as="alternateBounds" />
          </mxGeometry>
        </mxCell>
        <mxCell id="Vv5zSVdgEOzmotpruDQn-51" value="A10" style="shape=partialRectangle;html=1;whiteSpace=wrap;connectable=0;strokeColor=inherit;overflow=hidden;fillColor=none;top=0;left=0;bottom=0;right=0;pointerEvents=1;" parent="Vv5zSVdgEOzmotpruDQn-49" vertex="1">
          <mxGeometry x="60" width="60" height="40" as="geometry">
            <mxRectangle width="60" height="40" as="alternateBounds" />
          </mxGeometry>
        </mxCell>
        <mxCell id="Vv5zSVdgEOzmotpruDQn-52" value="A11" style="shape=partialRectangle;html=1;whiteSpace=wrap;connectable=0;strokeColor=inherit;overflow=hidden;fillColor=none;top=0;left=0;bottom=0;right=0;pointerEvents=1;" parent="Vv5zSVdgEOzmotpruDQn-49" vertex="1">
          <mxGeometry x="120" width="60" height="40" as="geometry">
            <mxRectangle width="60" height="40" as="alternateBounds" />
          </mxGeometry>
        </mxCell>
        <mxCell id="Vv5zSVdgEOzmotpruDQn-55" value="" style="endArrow=classic;html=1;rounded=0;exitX=0.919;exitY=1.073;exitDx=0;exitDy=0;exitPerimeter=0;entryX=0.103;entryY=1.032;entryDx=0;entryDy=0;entryPerimeter=0;" parent="1" source="Vv5zSVdgEOzmotpruDQn-32" target="Vv5zSVdgEOzmotpruDQn-49" edge="1">
          <mxGeometry width="50" height="50" relative="1" as="geometry">
            <mxPoint x="1300" y="770" as="sourcePoint" />
            <mxPoint x="1350" y="720" as="targetPoint" />
            <Array as="points">
              <mxPoint x="1270" y="920" />
              <mxPoint x="959" y="920" />
            </Array>
          </mxGeometry>
        </mxCell>
        <mxCell id="Vv5zSVdgEOzmotpruDQn-56" value="A12" style="shape=table;startSize=30;container=1;collapsible=0;childLayout=tableLayout;" parent="1" vertex="1">
          <mxGeometry x="1430" y="380" width="120" height="70" as="geometry" />
        </mxCell>
        <mxCell id="Vv5zSVdgEOzmotpruDQn-57" value="" style="shape=tableRow;horizontal=0;startSize=0;swimlaneHead=0;swimlaneBody=0;strokeColor=inherit;top=0;left=0;bottom=0;right=0;collapsible=0;dropTarget=0;fillColor=none;points=[[0,0.5],[1,0.5]];portConstraint=eastwest;" parent="Vv5zSVdgEOzmotpruDQn-56" vertex="1">
          <mxGeometry y="30" width="120" height="40" as="geometry" />
        </mxCell>
        <mxCell id="Vv5zSVdgEOzmotpruDQn-58" value="A12" style="shape=partialRectangle;html=1;whiteSpace=wrap;connectable=0;strokeColor=inherit;overflow=hidden;fillColor=none;top=0;left=0;bottom=0;right=0;pointerEvents=1;" parent="Vv5zSVdgEOzmotpruDQn-57" vertex="1">
          <mxGeometry width="60" height="40" as="geometry">
            <mxRectangle width="60" height="40" as="alternateBounds" />
          </mxGeometry>
        </mxCell>
        <mxCell id="Vv5zSVdgEOzmotpruDQn-59" value="A14" style="shape=partialRectangle;html=1;whiteSpace=wrap;connectable=0;strokeColor=inherit;overflow=hidden;fillColor=none;top=0;left=0;bottom=0;right=0;pointerEvents=1;" parent="Vv5zSVdgEOzmotpruDQn-57" vertex="1">
          <mxGeometry x="60" width="60" height="40" as="geometry">
            <mxRectangle width="60" height="40" as="alternateBounds" />
          </mxGeometry>
        </mxCell>
        <mxCell id="Vv5zSVdgEOzmotpruDQn-60" value="" style="endArrow=classic;html=1;rounded=0;entryX=0;entryY=0.5;entryDx=0;entryDy=0;" parent="1" target="Vv5zSVdgEOzmotpruDQn-15" edge="1">
          <mxGeometry width="50" height="50" relative="1" as="geometry">
            <mxPoint x="1210" y="750.32" as="sourcePoint" />
            <mxPoint x="940.2400000000002" y="500.00000000000006" as="targetPoint" />
            <Array as="points">
              <mxPoint x="1210" y="780.32" />
              <mxPoint x="880" y="780.32" />
              <mxPoint x="880" y="470" />
            </Array>
          </mxGeometry>
        </mxCell>
        <mxCell id="Vv5zSVdgEOzmotpruDQn-62" style="edgeStyle=orthogonalEdgeStyle;rounded=0;orthogonalLoop=1;jettySize=auto;html=1;entryX=0.304;entryY=1.022;entryDx=0;entryDy=0;entryPerimeter=0;exitX=0.758;exitY=0.988;exitDx=0;exitDy=0;exitPerimeter=0;" parent="1" source="Vv5zSVdgEOzmotpruDQn-57" target="Vv5zSVdgEOzmotpruDQn-42" edge="1">
          <mxGeometry relative="1" as="geometry">
            <mxPoint x="1510" y="500" as="sourcePoint" />
            <Array as="points">
              <mxPoint x="1521" y="480" />
              <mxPoint x="1640" y="480" />
              <mxPoint x="1640" y="770" />
              <mxPoint x="1021" y="770" />
            </Array>
          </mxGeometry>
        </mxCell>
        <mxCell id="Vv5zSVdgEOzmotpruDQn-76" value="" style="endArrow=none;html=1;rounded=0;" parent="1" source="Vv5zSVdgEOzmotpruDQn-65" edge="1">
          <mxGeometry width="50" height="50" relative="1" as="geometry">
            <mxPoint x="1430" y="620.33" as="sourcePoint" />
            <mxPoint x="1530" y="620" as="targetPoint" />
          </mxGeometry>
        </mxCell>
        <mxCell id="Vv5zSVdgEOzmotpruDQn-77" value="" style="endArrow=classic;html=1;rounded=0;exitX=0.247;exitY=0.996;exitDx=0;exitDy=0;exitPerimeter=0;entryX=0.345;entryY=1.036;entryDx=0;entryDy=0;entryPerimeter=0;" parent="1" source="Vv5zSVdgEOzmotpruDQn-66" target="Vv5zSVdgEOzmotpruDQn-42" edge="1">
          <mxGeometry width="50" height="50" relative="1" as="geometry">
            <mxPoint x="1260" y="820" as="sourcePoint" />
            <mxPoint x="1310" y="770" as="targetPoint" />
            <Array as="points">
              <mxPoint x="1450" y="790" />
              <mxPoint x="1240" y="790" />
              <mxPoint x="1034" y="790" />
            </Array>
          </mxGeometry>
        </mxCell>
        <mxCell id="Vv5zSVdgEOzmotpruDQn-81" value="" style="endArrow=classic;html=1;rounded=0;exitX=0.764;exitY=0.964;exitDx=0;exitDy=0;exitPerimeter=0;entryX=0.168;entryY=0.986;entryDx=0;entryDy=0;entryPerimeter=0;" parent="1" source="Vv5zSVdgEOzmotpruDQn-66" target="Vv5zSVdgEOzmotpruDQn-49" edge="1">
          <mxGeometry width="50" height="50" relative="1" as="geometry">
            <mxPoint x="1490" y="730" as="sourcePoint" />
            <mxPoint x="1540" y="680" as="targetPoint" />
            <Array as="points">
              <mxPoint x="1512" y="900" />
              <mxPoint x="970" y="900" />
            </Array>
          </mxGeometry>
        </mxCell>
        <mxCell id="Vv5zSVdgEOzmotpruDQn-82" value="" style="endArrow=none;html=1;rounded=0;" parent="1" target="Vv5zSVdgEOzmotpruDQn-65" edge="1">
          <mxGeometry width="50" height="50" relative="1" as="geometry">
            <mxPoint x="1430" y="620.33" as="sourcePoint" />
            <mxPoint x="1530" y="620" as="targetPoint" />
          </mxGeometry>
        </mxCell>
        <mxCell id="Vv5zSVdgEOzmotpruDQn-65" value="R3" style="shape=table;startSize=30;container=1;collapsible=0;childLayout=tableLayout;" parent="1" vertex="1">
          <mxGeometry x="1420" y="610" width="120" height="70" as="geometry" />
        </mxCell>
        <mxCell id="Vv5zSVdgEOzmotpruDQn-66" value="" style="shape=tableRow;horizontal=0;startSize=0;swimlaneHead=0;swimlaneBody=0;strokeColor=inherit;top=0;left=0;bottom=0;right=0;collapsible=0;dropTarget=0;fillColor=none;points=[[0,0.5],[1,0.5]];portConstraint=eastwest;" parent="Vv5zSVdgEOzmotpruDQn-65" vertex="1">
          <mxGeometry y="30" width="120" height="40" as="geometry" />
        </mxCell>
        <mxCell id="Vv5zSVdgEOzmotpruDQn-67" value="R3_A14" style="shape=partialRectangle;html=1;whiteSpace=wrap;connectable=0;strokeColor=inherit;overflow=hidden;fillColor=none;top=0;left=0;bottom=0;right=0;pointerEvents=1;" parent="Vv5zSVdgEOzmotpruDQn-66" vertex="1">
          <mxGeometry width="60" height="40" as="geometry">
            <mxRectangle width="60" height="40" as="alternateBounds" />
          </mxGeometry>
        </mxCell>
        <mxCell id="Vv5zSVdgEOzmotpruDQn-68" value="R3_A9" style="shape=partialRectangle;html=1;whiteSpace=wrap;connectable=0;strokeColor=inherit;overflow=hidden;fillColor=none;top=0;left=0;bottom=0;right=0;pointerEvents=1;" parent="Vv5zSVdgEOzmotpruDQn-66" vertex="1">
          <mxGeometry x="60" width="60" height="40" as="geometry">
            <mxRectangle width="60" height="40" as="alternateBounds" />
          </mxGeometry>
        </mxCell>
        <mxCell id="Vv5zSVdgEOzmotpruDQn-83" value="A17" style="shape=table;startSize=30;container=1;collapsible=0;childLayout=tableLayout;" parent="1" vertex="1">
          <mxGeometry x="940" y="310" width="300" height="70" as="geometry" />
        </mxCell>
        <mxCell id="Vv5zSVdgEOzmotpruDQn-84" value="" style="shape=tableRow;horizontal=0;startSize=0;swimlaneHead=0;swimlaneBody=0;strokeColor=inherit;top=0;left=0;bottom=0;right=0;collapsible=0;dropTarget=0;fillColor=none;points=[[0,0.5],[1,0.5]];portConstraint=eastwest;" parent="Vv5zSVdgEOzmotpruDQn-83" vertex="1">
          <mxGeometry y="30" width="300" height="40" as="geometry" />
        </mxCell>
        <mxCell id="Vv5zSVdgEOzmotpruDQn-85" value="R3_A17" style="shape=partialRectangle;html=1;whiteSpace=wrap;connectable=0;strokeColor=inherit;overflow=hidden;fillColor=none;top=0;left=0;bottom=0;right=0;pointerEvents=1;" parent="Vv5zSVdgEOzmotpruDQn-84" vertex="1">
          <mxGeometry width="60" height="40" as="geometry">
            <mxRectangle width="60" height="40" as="alternateBounds" />
          </mxGeometry>
        </mxCell>
        <mxCell id="Vv5zSVdgEOzmotpruDQn-86" value="R3_14" style="shape=partialRectangle;html=1;whiteSpace=wrap;connectable=0;strokeColor=inherit;overflow=hidden;fillColor=none;top=0;left=0;bottom=0;right=0;pointerEvents=1;" parent="Vv5zSVdgEOzmotpruDQn-84" vertex="1">
          <mxGeometry x="60" width="60" height="40" as="geometry">
            <mxRectangle width="60" height="40" as="alternateBounds" />
          </mxGeometry>
        </mxCell>
        <mxCell id="Vv5zSVdgEOzmotpruDQn-87" value="R3_A9" style="shape=partialRectangle;html=1;whiteSpace=wrap;connectable=0;strokeColor=inherit;overflow=hidden;fillColor=none;top=0;left=0;bottom=0;right=0;pointerEvents=1;" parent="Vv5zSVdgEOzmotpruDQn-84" vertex="1">
          <mxGeometry x="120" width="60" height="40" as="geometry">
            <mxRectangle width="60" height="40" as="alternateBounds" />
          </mxGeometry>
        </mxCell>
        <mxCell id="Vv5zSVdgEOzmotpruDQn-89" value="A18" style="shape=partialRectangle;html=1;whiteSpace=wrap;connectable=0;strokeColor=inherit;overflow=hidden;fillColor=none;top=0;left=0;bottom=0;right=0;pointerEvents=1;" parent="Vv5zSVdgEOzmotpruDQn-84" vertex="1">
          <mxGeometry x="180" width="60" height="40" as="geometry">
            <mxRectangle width="60" height="40" as="alternateBounds" />
          </mxGeometry>
        </mxCell>
        <mxCell id="Vv5zSVdgEOzmotpruDQn-90" value="A19" style="shape=partialRectangle;html=1;whiteSpace=wrap;connectable=0;strokeColor=inherit;overflow=hidden;fillColor=none;top=0;left=0;bottom=0;right=0;pointerEvents=1;" parent="Vv5zSVdgEOzmotpruDQn-84" vertex="1">
          <mxGeometry x="240" width="60" height="40" as="geometry">
            <mxRectangle width="60" height="40" as="alternateBounds" />
          </mxGeometry>
        </mxCell>
        <mxCell id="Vv5zSVdgEOzmotpruDQn-88" value="" style="endArrow=none;html=1;rounded=0;" parent="1" edge="1">
          <mxGeometry width="50" height="50" relative="1" as="geometry">
            <mxPoint x="1430" y="670" as="sourcePoint" />
            <mxPoint x="1530" y="670" as="targetPoint" />
          </mxGeometry>
        </mxCell>
        <mxCell id="Vv5zSVdgEOzmotpruDQn-92" value="" style="endArrow=none;html=1;rounded=0;" parent="1" edge="1">
          <mxGeometry width="50" height="50" relative="1" as="geometry">
            <mxPoint x="950" y="370" as="sourcePoint" />
            <mxPoint x="1110" y="370" as="targetPoint" />
          </mxGeometry>
        </mxCell>
        <mxCell id="Vv5zSVdgEOzmotpruDQn-93" value="" style="endArrow=classic;html=1;rounded=0;exitX=0.295;exitY=1.009;exitDx=0;exitDy=0;exitPerimeter=0;entryX=0.473;entryY=1.01;entryDx=0;entryDy=0;entryPerimeter=0;" parent="1" source="Vv5zSVdgEOzmotpruDQn-84" target="Vv5zSVdgEOzmotpruDQn-66" edge="1">
          <mxGeometry width="50" height="50" relative="1" as="geometry">
            <mxPoint x="1250" y="460" as="sourcePoint" />
            <mxPoint x="1470" y="670" as="targetPoint" />
            <Array as="points">
              <mxPoint x="1029" y="400" />
              <mxPoint x="1320" y="400" />
              <mxPoint x="1320" y="700" />
              <mxPoint x="1477" y="700" />
            </Array>
          </mxGeometry>
        </mxCell>
        <mxCell id="Vv5zSVdgEOzmotpruDQn-95" value="" style="endArrow=none;html=1;rounded=0;" parent="1" edge="1">
          <mxGeometry width="50" height="50" relative="1" as="geometry">
            <mxPoint x="1445" y="440" as="sourcePoint" />
            <mxPoint x="1535" y="440" as="targetPoint" />
          </mxGeometry>
        </mxCell>
        <mxCell id="Vv5zSVdgEOzmotpruDQn-96" value="" style="endArrow=none;html=1;rounded=0;" parent="1" edge="1">
          <mxGeometry width="50" height="50" relative="1" as="geometry">
            <mxPoint x="200" y="260" as="sourcePoint" />
            <mxPoint x="285" y="260" as="targetPoint" />
          </mxGeometry>
        </mxCell>
      </root>
    </mxGraphModel>
  </diagram>
  <diagram id="K7mmQnmnaKrtmPgJM_Bn" name="Page-2">
    <mxGraphModel dx="1050" dy="557" grid="1" gridSize="10" guides="1" tooltips="1" connect="1" arrows="1" fold="1" page="1" pageScale="1" pageWidth="827" pageHeight="1169" math="0" shadow="0">
      <root>
        <mxCell id="0" />
        <mxCell id="1" parent="0" />
      </root>
    </mxGraphModel>
  </diagram>
</mxfile>
